<svg width="32" height="32" viewBox="0 0 32 32" fill="none" xmlns="http://www.w3.org/2000/svg">
<g clip-path="url(#clip0)">
<path d="M19.9711 4.25267C19.6896 3.12255 18.6598 2.30029 17.4724 2.30029C16.8347 2.30029 16.216 2.5415 15.7453 2.96704C15.2744 2.5415 14.656 2.30029 14.018 2.30029C12.8308 2.30029 11.8008 3.12255 11.5193 4.25267C10.3098 4.8325 9.54199 6.04124 9.54199 7.40085C9.54199 8.31881 9.90185 9.19332 10.5388 9.8437C10.4968 10.0354 10.4756 10.2316 10.4756 10.4299C10.4756 11.9055 11.6523 13.1113 13.1167 13.1581C13.3979 13.8263 14.0556 14.2787 14.8086 14.2787L14.8232 14.2785C15.1765 14.2758 15.4992 14.1398 15.7451 13.9189C15.9899 14.1398 16.3117 14.2758 16.663 14.2785L16.6818 14.2787C17.435 14.2787 18.0927 13.8263 18.374 13.1581C19.8383 13.1113 21.0151 11.9055 21.0151 10.4299C21.0151 10.2316 20.9938 10.0354 20.9518 9.8437C21.5885 9.19332 21.9484 8.31881 21.9484 7.40085C21.9484 6.04124 21.1806 4.8325 19.9711 4.25267V4.25267ZM14.8159 13.341C14.8144 13.341 14.81 13.3412 14.8086 13.3412C14.5185 13.3412 14.2583 13.2038 14.093 12.9865C14.4096 12.861 14.7031 12.674 14.9594 12.4318C15.1474 12.2541 15.156 11.9575 14.9782 11.7692C14.8003 11.581 14.5036 11.5727 14.3154 11.7504C14.0542 11.9973 13.737 12.1564 13.3974 12.2116C13.3327 12.2184 13.2683 12.2221 13.2053 12.2221C12.217 12.2221 11.4131 11.4182 11.4131 10.4296C11.4131 10.2329 11.4448 10.0395 11.5073 9.85493C11.7134 9.321 12.1699 8.90914 12.7024 8.76143C12.7925 9.05489 12.9343 9.32735 13.1228 9.56123C13.2155 9.67598 13.351 9.73579 13.488 9.73579C13.5913 9.73579 13.6953 9.70186 13.782 9.63203C13.9836 9.46944 14.0151 9.17452 13.8528 8.97286C13.6425 8.71187 13.5266 8.36666 13.5266 8.00045C13.5266 7.68673 13.6103 7.39059 13.769 7.1445C13.9091 6.92697 13.8464 6.63694 13.6286 6.49656C13.4111 6.35666 13.1208 6.41941 12.9807 6.63694C12.7556 6.98654 12.6238 7.39328 12.5952 7.82223C11.9367 7.96359 11.3574 8.35201 10.9661 8.89913C10.6531 8.46725 10.4795 7.94455 10.4795 7.40085C10.4795 6.34128 11.1169 5.40696 12.103 5.02025C12.261 4.95848 12.373 4.81615 12.3962 4.64818C12.5075 3.84398 13.2048 3.23779 14.018 3.23779C14.4736 3.23779 14.8967 3.4204 15.2094 3.75219C15.2526 3.79784 15.2766 3.85863 15.2766 3.92284V4.73143C14.6784 4.75194 14.104 4.98363 13.6528 5.39695C13.4619 5.572 13.4492 5.86839 13.624 6.0593C13.7165 6.16038 13.8427 6.2114 13.9697 6.2114C14.0827 6.2114 14.1963 6.17087 14.2863 6.08836C14.5625 5.83518 14.9118 5.69041 15.2763 5.67015V12.8688C15.2763 13.1271 15.0698 13.339 14.8159 13.341ZM20.5243 8.89913C20.133 8.35201 19.5536 7.96359 18.8952 7.82223C18.8666 7.39328 18.7348 6.98654 18.5097 6.63694C18.3696 6.41941 18.0795 6.35666 17.8618 6.49656C17.644 6.63694 17.5812 6.92697 17.7214 7.1445C17.8798 7.39059 17.9638 7.68673 17.9638 8.00045C17.9638 8.36666 17.8478 8.71187 17.6376 8.97286C17.475 9.17452 17.5068 9.46944 17.7084 9.63203C17.7951 9.70186 17.8991 9.73579 18.0024 9.73579C18.1391 9.73579 18.2748 9.67598 18.3676 9.56123C18.5561 9.32735 18.6979 9.05489 18.788 8.76143C19.3205 8.90914 19.777 9.321 19.9828 9.85518C20.0453 10.0397 20.0773 10.2329 20.0773 10.4296C20.0773 11.4182 19.2731 12.2221 18.2848 12.2221C18.2221 12.2221 18.1574 12.2184 18.0927 12.2116C17.7534 12.1564 17.436 11.9973 17.1747 11.7504C16.9865 11.5727 16.6899 11.581 16.5122 11.7692C16.3342 11.9575 16.3427 12.2541 16.531 12.4321C16.7871 12.674 17.0805 12.861 17.3972 12.9865C17.2319 13.2038 16.9716 13.3412 16.6816 13.3412L16.6745 13.341C16.4204 13.339 16.2138 13.1271 16.2138 12.8688V5.6699C16.5783 5.69016 16.9277 5.83518 17.204 6.08811C17.2939 6.17063 17.4074 6.2114 17.5204 6.2114C17.6474 6.2114 17.7739 6.16038 17.8661 6.0593C18.0412 5.86839 18.0283 5.572 17.8373 5.39695C17.3862 4.98363 16.812 4.75169 16.2138 4.73119V3.92284C16.2138 3.85863 16.2375 3.79809 16.2807 3.75219C16.5935 3.4204 17.0165 3.23779 17.4721 3.23779C18.2856 3.23779 18.9826 3.84423 19.0939 4.64818C19.1171 4.81615 19.2292 4.95848 19.3871 5.02049C20.3732 5.40696 21.0107 6.34128 21.0107 7.40085C21.0109 7.94455 20.8373 8.46725 20.5243 8.89913Z" fill="#60347B"/>
<path d="M25.3132 17.0552C25.2707 16.9837 25.2087 16.9229 25.136 16.8824L21.6648 14.9593C21.9326 14.5249 22.2227 14.1014 22.5352 13.6912C23.6733 12.1973 24.2749 10.4122 24.2749 8.52938C24.2749 6.65 23.6751 4.86681 22.5398 3.37341C22.3833 3.16711 22.0891 3.12707 21.8831 3.28356C21.6768 3.4403 21.6367 3.73449 21.7935 3.94054C22.8037 5.26964 23.3377 6.85654 23.3377 8.52938C23.3377 10.2054 22.8023 11.7938 21.7896 13.1231C20.189 15.2237 19.1277 17.6553 18.7134 20.1653H12.7794C12.3685 17.6304 11.318 15.2137 9.73496 13.1661C8.65195 11.7654 8.09239 10.0147 8.15928 8.23641C8.30601 4.33214 11.4771 1.12977 15.3782 0.94642C17.2132 0.859263 19.0139 1.43616 20.4478 2.56921C20.6509 2.72961 20.9458 2.69494 21.1062 2.49207C21.2669 2.28894 21.2322 1.99402 21.0291 1.83362C19.4178 0.560436 17.3953 -0.0865322 15.3343 0.00990273C13.2076 0.11 11.2037 1.00623 9.69125 2.53357C8.1793 4.06066 7.30235 6.07359 7.22252 8.20126C7.14732 10.1986 7.77623 12.1656 8.99326 13.7396C9.29551 14.1307 9.57675 14.5362 9.83701 14.9537L6.35558 16.8826C6.28332 16.9226 6.21984 16.9837 6.17834 17.0555L4.02552 20.7246C3.87611 20.9793 3.83655 21.2766 3.91468 21.5618C3.99256 21.8467 4.17786 22.0825 4.4364 22.2258L6.11388 23.1553V26.4558C6.11388 26.6262 6.20641 26.7832 6.35558 26.8659L15.5186 31.9423C15.6583 32.0195 15.8336 32.0197 15.973 31.9423L21.7132 28.7622C21.9395 28.6367 22.0215 28.3515 21.896 28.125C21.7705 27.8986 21.4851 27.8166 21.2588 27.9421L16.2147 30.7368V24.0942L17.5098 26.3017C17.7129 26.6482 18.0721 26.8408 18.4441 26.8408C18.6233 26.8408 18.8052 26.7961 18.9744 26.7026L24.4402 23.6746V26.1794L23.1575 26.8901C22.9312 27.0156 22.8491 27.3007 22.9746 27.5273C23.0603 27.6816 23.2202 27.7688 23.385 27.7688C23.4619 27.7688 23.54 27.75 23.6118 27.7102L25.136 26.8657C25.2852 26.7832 25.3777 26.6259 25.3777 26.4555V23.155L27.0552 22.2256C27.3137 22.0825 27.499 21.8467 27.5769 21.5615C27.655 21.2766 27.6155 20.9793 27.466 20.7244L25.3132 17.0552ZM15.7457 21.8333L14.4276 21.1028H17.064L15.7457 21.8333ZM23.9417 17.2925L19.7757 19.6004C20.0647 18.2798 20.5447 16.9895 21.197 15.772L23.9417 17.2925ZM10.307 15.7652C10.9559 16.9727 11.4332 18.2661 11.7201 19.6028L7.54991 17.2925L10.307 15.7652ZM7.05138 23.6746L7.92979 24.1611C8.00181 24.2012 8.07969 24.22 8.1566 24.22C8.32139 24.22 8.48155 24.1328 8.56699 23.9783C8.69248 23.7519 8.61045 23.4665 8.38413 23.3411L4.8905 21.4055C4.84265 21.3789 4.82507 21.3369 4.81873 21.3142C4.81238 21.2915 4.80628 21.2463 4.83386 21.199L6.75548 17.9243L15.0982 22.5464L13.1732 25.8274C13.1317 25.8979 13.043 25.9223 12.9715 25.8825L10.1749 24.3332C9.94858 24.208 9.66318 24.2898 9.53769 24.5161C9.41245 24.7427 9.49423 25.0278 9.72055 25.1533L12.5172 26.7026C12.6861 26.7964 12.868 26.8408 13.0472 26.8408C13.4193 26.8408 13.7784 26.6482 13.9818 26.302L15.2769 24.0945V30.7365L7.05138 26.1794V23.6746ZM26.6726 21.3142C26.6665 21.3369 26.6489 21.3789 26.6008 21.4055L18.5201 25.8825C18.4483 25.9223 18.3597 25.8979 18.3184 25.8274L16.3931 22.5464L24.7361 17.9243L26.6575 21.199C26.6853 21.2463 26.6789 21.2915 26.6726 21.3142Z" fill="#60347B"/>
<path d="M6.00758 13.584H6.00977C6.26881 13.5828 6.47755 13.3718 6.47633 13.113L6.47584 12.9963C6.47437 12.738 6.26466 12.5298 6.00709 12.5298C6.00611 12.5298 6.00538 12.5298 6.00465 12.5298C5.74586 12.531 5.53687 12.7419 5.53809 13.001L5.53882 13.1177C5.54004 13.3757 5.74952 13.584 6.00758 13.584Z" fill="#60347B"/>
<path d="M5.54249 14.8376C5.54371 15.0959 5.75343 15.3042 6.01124 15.3042H6.01344C6.27247 15.303 6.48121 15.092 6.47999 14.833L6.4795 14.7163C6.47804 14.4583 6.26856 14.25 6.01075 14.25C6.01002 14.25 6.00904 14.25 6.00831 14.25C5.74952 14.2512 5.54054 14.4622 5.542 14.7209L5.54249 14.8376Z" fill="#60347B"/>
<path d="M6.81055 14.3843H6.81324L6.92969 14.3838C7.18873 14.3823 7.39747 14.1714 7.39625 13.9126C7.39478 13.6545 7.18531 13.4463 6.9275 13.4463C6.92652 13.4463 6.92579 13.4463 6.92506 13.4463L6.80836 13.4468C6.54932 13.4482 6.34058 13.6592 6.3418 13.918C6.34327 14.176 6.55274 14.3843 6.81055 14.3843Z" fill="#60347B"/>
<path d="M5.0901 14.3882H5.09278L5.20948 14.3877C5.46827 14.3862 5.67701 14.1753 5.67579 13.9165C5.67433 13.6584 5.46485 13.4502 5.20704 13.4502C5.20631 13.4502 5.20533 13.4502 5.2046 13.4502L5.0879 13.4507C4.82887 13.4521 4.62012 13.6631 4.62159 13.9219C4.62281 14.1799 4.83253 14.3882 5.0901 14.3882Z" fill="#60347B"/>
<path d="M26.2134 9.94238L26.2139 10.0591C26.2153 10.3171 26.4248 10.5254 26.6826 10.5254H26.6851C26.9438 10.5242 27.1528 10.3132 27.1516 10.0544L27.1509 9.93774C27.1497 9.67969 26.9399 9.47119 26.6821 9.47119C26.6814 9.47119 26.6807 9.47119 26.6799 9.47119C26.4209 9.47266 26.2122 9.68359 26.2134 9.94238V9.94238Z" fill="#60347B"/>
<path d="M26.6868 12.2463H26.6892C26.948 12.2449 27.1567 12.0339 27.1555 11.7751L27.1548 11.6584C27.1536 11.4001 26.9438 11.1919 26.6863 11.1919C26.6853 11.1919 26.6846 11.1919 26.6836 11.1919C26.4248 11.1934 26.2161 11.4043 26.2173 11.6633L26.218 11.7798C26.2192 12.0381 26.429 12.2463 26.6868 12.2463Z" fill="#60347B"/>
<path d="M27.6033 10.3877C27.6025 10.3877 27.6018 10.3877 27.6008 10.3877L27.4841 10.3882C27.2253 10.3896 27.0166 10.6003 27.0176 10.8591C27.019 11.1174 27.2285 11.3259 27.4863 11.3259H27.4885L27.6052 11.3252C27.8643 11.324 28.073 11.113 28.0718 10.8542C28.0708 10.5962 27.8611 10.3877 27.6033 10.3877V10.3877Z" fill="#60347B"/>
<path d="M25.7656 11.3296H25.7681L25.8845 11.3291C26.1435 11.3279 26.3523 11.1169 26.3513 10.8582C26.3498 10.6001 26.1404 10.3916 25.8826 10.3916C25.8818 10.3916 25.8811 10.3916 25.8804 10.3916L25.7637 10.3921C25.5046 10.3933 25.2959 10.6042 25.2969 10.863C25.2981 11.1213 25.5078 11.3296 25.7656 11.3296V11.3296Z" fill="#60347B"/>
<path d="M6.80933 2.43604H6.81177C7.07056 2.43457 7.2793 2.22363 7.27808 1.96484L7.27735 1.84814C7.27613 1.59009 7.06641 1.38184 6.80884 1.38184C6.80787 1.38184 6.80714 1.38184 6.80616 1.38184C6.54737 1.38306 6.33863 1.59399 6.33985 1.85303L6.34058 1.96973C6.3418 2.22778 6.55152 2.43604 6.80933 2.43604Z" fill="#60347B"/>
<path d="M7.28126 3.56885C7.28004 3.31079 7.07032 3.10254 6.81275 3.10254C6.81177 3.10254 6.81104 3.10254 6.81007 3.10254C6.55128 3.10376 6.34253 3.3147 6.34376 3.57373L6.34449 3.69043C6.34571 3.94849 6.55543 4.15674 6.81324 4.15674H6.81568C7.07447 4.15527 7.28321 3.94434 7.28199 3.68555L7.28126 3.56885Z" fill="#60347B"/>
<path d="M7.61304 3.23608H7.61573L7.73243 3.23535C7.99121 3.23413 8.19995 3.02319 8.19873 2.76416C8.19727 2.5061 7.9878 2.29785 7.72999 2.29785C7.72925 2.29785 7.72828 2.29785 7.72754 2.29785L7.61085 2.29858C7.35181 2.2998 7.14307 2.51074 7.14454 2.76978C7.14576 3.02783 7.35548 3.23608 7.61304 3.23608Z" fill="#60347B"/>
<path d="M5.8921 3.23999H5.89454L6.01124 3.2395C6.27027 3.23804 6.47901 3.0271 6.47755 2.76807C6.47633 2.51001 6.26661 2.30176 6.00904 2.30176C6.00806 2.30176 6.00733 2.30176 6.00635 2.30176L5.88965 2.30249C5.63087 2.30371 5.42212 2.51489 5.42335 2.77368C5.42481 3.03174 5.63428 3.23999 5.8921 3.23999Z" fill="#60347B"/>
<path d="M24.9038 12.6348C24.645 12.636 24.4363 12.8469 24.4375 13.106L24.4382 13.2227C24.4395 13.4807 24.6492 13.689 24.907 13.689H24.9094C25.1682 13.6875 25.3769 13.4766 25.3757 13.2178L25.3752 13.1011C25.3738 12.842 25.1609 12.635 24.9038 12.6348V12.6348Z" fill="#60347B"/>
<path d="M24.9107 15.4097H24.9131C25.1721 15.4082 25.3809 15.1973 25.3794 14.9385L25.3789 14.8218C25.3774 14.5637 25.168 14.3555 24.9102 14.3555C24.9092 14.3555 24.9085 14.3555 24.9077 14.3555C24.6487 14.3567 24.4399 14.5676 24.4414 14.8267L24.4419 14.9434C24.4431 15.2014 24.6528 15.4097 24.9107 15.4097Z" fill="#60347B"/>
<path d="M25.7102 14.4895H25.7129L25.8296 14.4888C26.0884 14.4875 26.2971 14.2766 26.2959 14.0176C26.2944 13.7595 26.085 13.5513 25.8272 13.5513C25.8264 13.5513 25.8254 13.5513 25.8247 13.5513L25.708 13.552C25.449 13.5532 25.2402 13.7642 25.2417 14.0232C25.2429 14.2812 25.4526 14.4895 25.7102 14.4895Z" fill="#60347B"/>
<path d="M24.1045 13.5552L23.9878 13.5559C23.7288 13.5571 23.52 13.7683 23.5215 14.0271C23.5227 14.2852 23.7324 14.4934 23.9902 14.4934H23.9927L24.1094 14.4927C24.3682 14.4915 24.5769 14.2805 24.5757 14.0215C24.5745 13.7627 24.3662 13.5547 24.1045 13.5552Z" fill="#60347B"/>
<path d="M24.9229 5.38871C24.9822 5.59404 25.1695 5.72734 25.3731 5.72734C25.4161 5.72734 25.4598 5.72148 25.5032 5.70878L25.982 5.5706C26.2308 5.49882 26.3741 5.23881 26.3023 4.99028C26.2305 4.7415 25.9705 4.59794 25.722 4.66996L25.2432 4.80815C24.9944 4.87992 24.8509 5.13993 24.9229 5.38871Z" fill="#60347B"/>
<path d="M24.8349 4.64184C24.958 4.64184 25.0808 4.59375 25.1728 4.49804L25.5183 4.13891C25.6977 3.95239 25.6921 3.65576 25.5056 3.47607C25.3188 3.29663 25.0222 3.30249 24.8427 3.48901L24.4973 3.84814C24.3176 4.03467 24.3235 4.3313 24.51 4.51098C24.6008 4.59839 24.718 4.64184 24.8349 4.64184Z" fill="#60347B"/>
<path d="M26.0931 6.1281L25.6092 6.00848C25.3583 5.94622 25.1039 6.09978 25.0416 6.351C24.9796 6.60247 25.1329 6.85637 25.3841 6.91863L25.868 7.03826C25.9056 7.04753 25.9437 7.05217 25.9808 7.05217C26.1913 7.05217 26.3827 6.90935 26.4357 6.69573C26.4977 6.44451 26.3443 6.19036 26.0931 6.1281Z" fill="#60347B"/>
<path d="M5.23309 9.80166C5.24114 9.80166 5.24944 9.80166 5.25775 9.80093L5.75555 9.77505C6.01409 9.76138 6.21282 9.54092 6.19915 9.28237C6.18572 9.02383 5.96526 8.8229 5.70648 8.83877L5.20892 8.86489C4.95037 8.87832 4.75164 9.09878 4.76531 9.35757C4.77825 9.60781 4.98528 9.80166 5.23309 9.80166Z" fill="#60347B"/>
<path d="M5.22787 8.29628L5.67171 8.5226C5.74007 8.55727 5.81258 8.57387 5.88411 8.57387C6.05477 8.57387 6.21932 8.48012 6.30233 8.31776C6.41976 8.08705 6.32796 7.80482 6.09749 7.68715L5.6534 7.46083C5.42269 7.3434 5.14046 7.43495 5.02279 7.66566C4.90536 7.89638 4.99715 8.17885 5.22787 8.29628Z" fill="#60347B"/>
<path d="M6.26404 10.879C6.48133 10.7381 6.54309 10.4478 6.40198 10.2305C6.26111 10.0135 5.97059 9.95173 5.75355 10.0928L5.33558 10.3641C5.11854 10.5049 5.05677 10.7955 5.19764 11.0125C5.28748 11.1507 5.43787 11.2261 5.59119 11.2261C5.67859 11.2261 5.76722 11.2015 5.84607 11.1505L6.26404 10.879Z" fill="#60347B"/>
</g>
<defs>
<clipPath id="clip0">
<rect width="32" height="32" fill="white"/>
</clipPath>
</defs>
</svg>
