<svg width="32" height="32" viewBox="0 0 32 32" fill="none" xmlns="http://www.w3.org/2000/svg">
<g clip-path="url(#clip0)">
<path d="M30.8153 29.1894H25.4144V24.2355C25.4144 23.9765 25.2046 23.7667 24.9457 23.7667C24.6868 23.7667 24.4769 23.9765 24.4769 24.2355V29.1894H23.4429C23.4999 29.035 23.5311 28.8684 23.5311 28.6945V20.6515C23.5311 19.8616 22.8886 19.219 22.0987 19.219H9.66763C8.87775 19.219 8.23519 19.8616 8.23519 20.6515V28.6945C8.23519 28.8684 8.26637 29.035 8.32337 29.1894H7.28944V20.7736C7.28944 19.5141 8.1145 18.4144 9.29737 18.0947L14.1242 17.1091C14.1686 17.1574 14.2133 17.2057 14.2587 17.2539C14.7222 17.7475 15.3146 18.0192 15.9248 18.0192H15.9358C16.5478 18.0192 17.1395 17.748 17.6015 17.2561C17.6416 17.2136 17.6811 17.1709 17.7206 17.1282L22.4684 18.095C23.6516 18.4146 24.4769 19.5144 24.4769 20.7741V22.0589C24.4769 22.3178 24.6867 22.5276 24.9456 22.5276C25.2046 22.5276 25.4144 22.3178 25.4144 22.0589V20.7741C25.4144 19.085 24.2964 17.6092 22.6958 17.1854C22.687 17.1831 22.6782 17.181 22.6694 17.1792L17.9602 16.2201C17.9052 15.8478 17.8901 15.4792 17.9134 15.0929C17.9886 15.0412 18.062 14.9867 18.1331 14.9289C20.1977 13.2584 21.2014 11.8085 21.2014 10.4965C21.2014 10.3576 21.1957 10.222 21.1842 10.0878C21.1614 9.85398 21.1448 9.02386 21.1401 7.86717H21.1397V3.88642L23.0549 3.24586C23.2461 3.18198 23.3749 3.00292 23.3749 2.80136C23.3749 2.59979 23.246 2.42073 23.0549 2.35686L16.0799 0.023793C15.9834 -0.00858203 15.8789 -0.00858203 15.7825 0.023793L8.80737 2.35679C8.61619 2.42067 8.48731 2.59973 8.48731 2.80129C8.48731 3.00286 8.61625 3.18192 8.80737 3.24579L10.7222 3.88623V7.86711C10.7176 9.02479 10.701 9.85604 10.6775 10.0956C10.6665 10.2218 10.6609 10.3566 10.6609 10.4963C10.6609 11.8082 11.6641 13.2578 13.7269 14.9267C13.7949 14.982 13.865 15.034 13.9366 15.0838C13.9583 15.4595 13.9415 15.8251 13.8852 16.2009L9.09606 17.1789C9.08725 17.1807 9.0785 17.1827 9.06981 17.185C7.46956 17.6092 6.352 19.0848 6.352 20.7735V29.1892H1.18469C0.531438 29.1894 0 29.7204 0 30.3732C0 31.27 0.73025 31.9995 1.62775 31.9995H30.3722C31.2698 31.9995 32 31.27 32 30.3732C32 29.7204 31.4685 29.1894 30.8153 29.1894ZM16.9191 16.6134C16.6353 16.9155 16.2862 17.0817 15.9333 17.0817C15.9314 17.0817 15.9293 17.0817 15.9274 17.0817C15.5764 17.0817 15.2266 16.915 14.9415 16.6113C14.8919 16.5588 14.8431 16.5063 14.7952 16.4541C14.8467 16.1477 14.8756 15.8484 14.8827 15.5477C15.2181 15.6531 15.5694 15.7084 15.9239 15.7084H15.9379C16.2879 15.7084 16.6345 15.655 16.9655 15.5526C16.971 15.8614 16.9988 16.165 17.0501 16.4728C17.0071 16.5196 16.9633 16.5665 16.9191 16.6134ZM10.4339 2.80136L15.9312 0.962605L21.4284 2.80136L15.9312 4.64004L14.6968 4.22717L16.0813 3.75892C16.3266 3.67598 16.4581 3.40998 16.3752 3.16473C16.2922 2.91942 16.026 2.78786 15.781 2.87086L13.2256 3.73511L10.4339 2.80136ZM12.7576 4.56711V7.40036H11.6597V4.19986L12.7576 4.56711ZM11.5984 10.4964C11.5984 10.3838 11.6027 10.2764 11.6109 10.1823C11.6396 9.88967 11.6519 9.03079 11.6571 8.33786H12.7576V9.35386C12.7576 9.61279 12.9674 9.82261 13.2264 9.82261C13.4853 9.82261 13.6951 9.61279 13.6951 9.35386V8.33786H16.4607C16.7196 8.33786 16.9294 8.12804 16.9294 7.86911C16.9294 7.61017 16.7196 7.40036 16.4607 7.40036H13.6951V4.88067L15.7824 5.57879C15.8306 5.59498 15.8809 5.60304 15.9311 5.60304C15.9814 5.60304 16.0316 5.59498 16.0798 5.57879L20.2022 4.19998V7.40036H18.6041C18.3452 7.40036 18.1354 7.61017 18.1354 7.86911C18.1354 8.12804 18.3452 8.33786 18.6041 8.33786H20.2053C20.2104 9.02986 20.2226 9.88648 20.2507 10.1737C20.2595 10.2757 20.2639 10.3843 20.2639 10.4965C20.2639 11.4795 19.3232 12.7602 17.5426 14.2009C17.0904 14.5686 16.5207 14.7709 15.936 14.7709C15.9327 14.7709 15.9293 14.7709 15.9258 14.7709C15.3421 14.7709 14.7714 14.5682 14.3177 14.1989C12.5387 12.7595 11.5984 11.4792 11.5984 10.4964V10.4964ZM30.3722 31.062H1.62775C1.24713 31.062 0.9375 30.753 0.9375 30.3732C0.9375 30.2374 1.04837 30.1269 1.18469 30.1269H11.2745C11.5334 30.1269 11.7432 29.917 11.7432 29.6581C11.7432 29.3992 11.5334 29.1894 11.2745 29.1894H9.66763C9.39475 29.1894 9.17269 28.9674 9.17269 28.6945V20.6515C9.17269 20.3786 9.39475 20.1565 9.66763 20.1565H22.0987C22.3716 20.1565 22.5936 20.3786 22.5936 20.6515V28.6945C22.5936 28.9674 22.3716 29.1894 22.0987 29.1894H13.4306C13.1717 29.1894 12.9619 29.3992 12.9619 29.6581C12.9619 29.917 13.1717 30.1269 13.4306 30.1269H30.8153C30.9516 30.1269 31.0625 30.2374 31.0625 30.3732C31.0625 30.753 30.7528 31.062 30.3722 31.062V31.062Z" fill="#60347B"/>
<path d="M15.8832 26.2469C16.7515 26.2469 17.4578 25.5409 17.4578 24.6732C17.4578 23.8055 16.7514 23.0996 15.8832 23.0996C15.0149 23.0996 14.3086 23.8055 14.3086 24.6732C14.3086 25.5409 15.015 26.2469 15.8832 26.2469ZM15.8832 24.0371C16.2345 24.0371 16.5203 24.3224 16.5203 24.6732C16.5203 25.024 16.2345 25.3094 15.8832 25.3094C15.5319 25.3094 15.2461 25.024 15.2461 24.6732C15.2461 24.3224 15.5319 24.0371 15.8832 24.0371Z" fill="#60347B"/>
</g>
<defs>
<clipPath id="clip0">
<rect width="32" height="32" fill="white"/>
</clipPath>
</defs>
</svg>
