<svg width="32" height="32" viewBox="0 0 32 32" fill="none" xmlns="http://www.w3.org/2000/svg">
<path d="M22.1465 14.1465L16.293 20H14V19H13.987C14.951 18.2785 15.65 17.2215 15.899 16H16C17.103 16 18 15.103 18 14C18 13.497 17.8075 13.0425 17.5 12.691V11C17.5 7.416 14.584 4.5 11 4.5C7.416 4.5 4.5 7.416 4.5 11V12.691C4.1925 13.0425 4 13.497 4 14C4 15.103 4.897 16 6 16H6.101C6.35 17.2215 7.049 18.2785 8.013 19H8V20H5.5C2.743 20 0.5 22.243 0.5 25V31C0.5 31.2765 0.7235 31.5 1 31.5H21C21.2765 31.5 21.5 31.2765 21.5 31V25C21.5 22.616 19.8215 20.6195 17.585 20.122L22.707 15H31.5V14H22.5C22.367 14 22.24 14.0525 22.1465 14.1465ZM8.2655 21L10.2115 23.335L8.292 24.2945L7.1935 21H8.2655ZM10.91 26.5H11.0905L11.8905 30.5H10.11L10.91 26.5ZM11.191 25.5H10.809L10.271 24.4235L11 24.059L11.729 24.4235L11.191 25.5ZM11.7885 23.335L13.7345 21H14.8065L13.708 24.295L11.7885 23.335ZM16 15V13C16.5515 13 17 13.4485 17 14C17 14.5515 16.5515 15 16 15ZM5 14C5 13.4485 5.4485 13 6 13V15C5.4485 15 5 14.5515 5 14ZM6 12C5.8265 12 5.661 12.029 5.5 12.071V11C5.5 7.9675 7.9675 5.5 11 5.5C14.0325 5.5 16.5 7.9675 16.5 11V12.071C16.339 12.029 16.1735 12 16 12C16 11.7235 15.7765 11.5 15.5 11.5C14.7175 11.5 13.9695 11.126 13.5 10.4995L12.9 9.6995C12.7115 9.4485 12.2885 9.4485 12.1 9.6995L11.5 10.5C11.0305 11.126 10.2825 11.5 9.5 11.5H6.5C6.2235 11.5 6 11.7235 6 12V12ZM7 15V12.5H9.5C10.5955 12.5 11.6425 11.9765 12.3 11.1L12.5 10.833L12.7 11.0995C13.2565 11.8415 14.0915 12.331 15 12.4635V15C15 17.2055 13.2055 19 11 19C8.7945 19 7 17.2055 7 15ZM11 20C11.711 20 12.387 19.8485 13 19.5795V20.319L11 22.719L9 20.319V19.5795C9.613 19.8485 10.289 20 11 20ZM1.5 25C1.5 22.7945 3.2945 21 5.5 21H6.14L7.526 25.158C7.5715 25.295 7.675 25.406 7.8085 25.4615C7.87 25.4875 7.935 25.5 8 25.5C8.0765 25.5 8.1535 25.4825 8.2235 25.4475L9.376 24.871L9.9755 26.0705L9.09 30.5H4.5V27.5H3.5V30.5H1.5V25ZM20.5 25V30.5H18.5V27.5H17.5V30.5H12.91L12.024 26.0705L12.6235 24.871L13.776 25.4475C13.8465 25.4825 13.9235 25.5 14 25.5C14.065 25.5 14.13 25.4875 14.1915 25.462C14.3255 25.4065 14.429 25.2955 14.474 25.1585L15.86 21H16.5C18.7055 21 20.5 22.7945 20.5 25V25Z" fill="#60347B"/>
<path d="M30.5 12V5C30.5 4.7235 30.2765 4.5 30 4.5H28C27.7235 4.5 27.5 4.7235 27.5 5V12H26.5V8C26.5 7.7235 26.2765 7.5 26 7.5H24C23.7235 7.5 23.5 7.7235 23.5 8V12H22.5V9.5C22.5 9.2235 22.2765 9 22 9H20C19.7235 9 19.5 9.2235 19.5 9.5V12H18.5V13H31.5V12H30.5ZM28.5 5.5H29.5V12H28.5V5.5ZM24.5 8.5H25.5V12H24.5V8.5ZM20.5 10H21.5V12H20.5V10Z" fill="#60347B"/>
<path d="M23.2072 3.5H26.0002C26.1332 3.5 26.2602 3.4475 26.3537 3.3535L27.5002 2.207V3.5H28.5002V1C28.5002 0.7235 28.2767 0.5 28.0002 0.5H25.5002V1.5H26.7932L25.7932 2.5H23.0002C22.8672 2.5 22.7402 2.5525 22.6467 2.6465L19.6467 5.6465L20.3537 6.3535L23.2072 3.5Z" fill="#60347B"/>
</svg>
