<?xml version="1.0" encoding="utf-8"?>
<!-- Generator: Adobe Illustrator 22.0.1, SVG Export Plug-In . SVG Version: 6.00 Build 0)  -->
<svg version="1.1" id="Layer_1" xmlns="http://www.w3.org/2000/svg" xmlns:xlink="http://www.w3.org/1999/xlink" x="0px" y="0px"
	 viewBox="0 0 669.7 490.7" style="enable-background:new 0 0 669.7 490.7;" xml:space="preserve">
<style type="text/css">
	.st0{opacity:0.24;fill:#A500FF;enable-background:new    ;}
	.st1{opacity:0.42;fill:#F9F0FF;enable-background:new    ;}
	.st2{fill:none;stroke:#000000;stroke-width:1.43;stroke-miterlimit:10;}
	.st3{fill:#F036FF;}
	.st4{fill:#9345AD;}
	.st5{fill:#FFFFFF;}
	.st6{opacity:0.42;}
	.st7{fill:#A500FF;}
	.st8{opacity:0.42;fill:#A500FF;enable-background:new    ;}
	.st9{fill:#B23BFF;}
	.st10{fill:#BD78FF;}
	.st11{opacity:0.52;fill:#A500FF;enable-background:new    ;}
	.st12{fill:url(#SVGID_1_);}
	.st13{fill:#F5F1F5;}
	.st14{fill:url(#SVGID_2_);}
	.st15{fill:#F3F1F3;}
	.st16{fill:url(#SVGID_3_);}
	.st17{fill:url(#SVGID_4_);}
	.st18{fill:#F2F1F2;}
	.st19{fill:url(#SVGID_5_);}
	.st20{fill:#BAC5F4;}
	.st21{fill:#F8F8FF;}
	.st22{fill:#5F6DF9;}
	.st23{fill:#9A4FFC;}
	.st24{fill:#37CD58;}
	.st25{fill:#D8DAEF;}
	.st26{fill:#D8DAE3;}
	.st27{fill:#949CD3;}
	.st28{fill:#939BC5;}
	.st29{fill:#E9EDFB;}
</style>
<title>Creative process 1</title>
<path class="st0" d="M218.7,23.3c-21.1,9.5-41.3,21.8-56.2,39.3c-20.6,24.3-29.8,56.8-51.5,80.1c-27.7,29.9-73.2,42.1-93.3,77.4
	c-7.7,13.5-10.7,29.1-12,44.5c-5,58.7,17.8,122.9,68.7,153.1c20.2,12,43.4,18.1,63.9,29.7c18.1,10.3,33.9,24.9,53.4,32.4
	c34.4,13.2,73.4,1.6,106.3-14.9c32.9-16.5,63.9-38.1,99.8-46.6c46.3-11,94.5,1.3,142.1,1.8c47.5,0.5,102.4-16.9,118.3-61.5
	c5-14,5.5-29.1,6-43.9c0.9-27.8,1.6-56.5-8.9-82.3c-14.2-35.4-47.8-61-59.2-97.4c-6-19.2-5.6-40.7-16.1-57.9
	c-13.9-22.6-42.7-31.1-69.2-33.3c-42.1-3.6-87.3,3.1-124.5-16.9C332.7-1.6,274.4-1.7,218.7,23.3z"/>
<path class="st1" d="M153.6,439.3c-24.7-9-49.5-19.4-68.6-36.8c-30.2-27.4-42-69.9-36.4-109.2s26.8-75.5,54.2-105.3
	c19.3-20.9,41.8-39.3,59.2-61.7c27.8-35.8,44.4-83.5,86.6-102.8c16.1-7.4,34.2-9.6,52-9.7c49.2-0.2,97.1,15.5,141.7,35.2
	c17.9,7.9,35.9,16.8,49.2,30.6c23.6,24.8,28.3,60.2,39,92c14.2,42,40.2,79.5,75,108.7c16.6,13.9,36.3,27.4,41.5,47.8
	c3.6,14.4-0.8,29.5-6.5,43.2c-6.8,16.3-15.7,32.3-29.3,44.1c-28.6,24.9-71.1,26.8-109.8,27.4l-91.4,1.4
	c-41.2,0.6-80.9,12.8-121.4,11.8C239.5,454.7,200.5,456.4,153.6,439.3z"/>
<path class="st2" d="M334.8,107.5"/>
<g>
	<path class="st3" d="M357.1,75.7c8.7,0,16.2,0.4,23.6,1.9c6.2,1.2,12.4,2.5,18.4,4.6c3.6,1.3,7.3,2.7,10.8,4.3
		c6.4,3,12.7,6.4,18.5,10.5c3.4,2.4,6.7,4.8,9.9,7.4c5.9,4.9,11.4,10.3,16.4,16.2c3.3,3.9,6.5,8,9.4,12.2
		c5.6,8.2,10.4,16.9,14.2,26.1c3.5,8.5,6.2,17.2,8,26.1c1.3,6.4,2.1,12.8,2.4,19.3c0.2,4.5,0.2,9-0.1,13.4
		c-0.8,10.9-3.5,21.3-9,30.8c-3.2,5.6-6.2,11.3-9.2,17c-2.4,4.5-4.9,9-7.6,13.4c-2.6,4.3-5.4,8.6-8.5,12.6
		c-3.5,4.5-7.4,8.6-11.9,12.1c-1.7,1.3-3.5,2.2-5.4,3.2c-6.7,3.6-13.7,4-20.9,2.3c-3.9-0.9-7.2-3.2-10.2-5.8
		c-5-4.4-9.2-9.7-13.7-14.6c-2.8-3-5.7-5.9-9.2-8.2c-2.6-1.7-5.4-3.1-8.1-4.5c-3.4-1.8-6.9-3.2-10.4-4.8c-6-2.8-12.1-5.7-17.9-9
		c-2.7-1.5-5.3-3-7.8-4.8c-4-2.8-7.2-6.5-10-10.5c-4.3-6.1-7.6-12.7-11.2-19.2c-1.8-3.2-3.7-6.4-6.3-9.1c-0.3-0.3-0.6-0.6-0.9-0.8
		c-2.9-2.2-5.9-4.3-9.2-5.9c-3.9-1.9-7.7-3.7-11.7-5.3c-3.8-1.5-7.4-3.3-10.9-5.3c-4-2.3-7.5-5.1-10.3-8.8
		c-2.5-3.2-4.2-6.8-5.2-10.7c-1.6-5.9-2.4-11.9-2.1-18.1c0.3-8,1.8-15.8,4.5-23.3c3.1-8.7,7.3-16.8,12.6-24.4
		c3.4-4.9,7.1-9.4,11.2-13.7c5.5-5.7,11.7-10.5,18.6-14.4c3.3-1.9,6.8-3.4,10.3-4.9c5.2-2.3,10.6-3.5,16.1-4.8
		C342.2,76.2,350.3,75.8,357.1,75.7z M347.7,208.2c0.1,0.2,0.1,0.2,0.1,0.3c0.1,0.4,0.1,0.8,0.2,1.2c0.6,5,2.3,9.6,5.7,13.5
		c3.4,3.9,7.4,6.5,12.5,7.4c1.5,0.2,2.6,0.9,3.6,1.8c3.5,3.5,6.6,7.2,9,11.6c3.1,5.6,5,11.4,5.7,17.8c0.2,1.8,0.2,3.6,0.7,5.3
		c1.8,6.3,8.7,7,12.3,3.7c1.5-1.4,2.7-3,3.7-4.8c0.4-0.7,0.7-1.4,1.1-2c0.7-1.1,0.7-1.1,1.7-0.3c1.4,1,2.7,2.2,4.2,3
		c5.4,2.9,11.1,4.4,17.2,3.5c6.2-0.9,10.8-4.2,13.9-9.6c2.1-3.8,2.9-7.8,2.4-12.1c-0.1-0.9-0.1-1.5,1-1.9c4.6-1.4,7.2-4.7,8.6-9.1
		c0.3-0.9,0.6-1.1,1.5-1c2.3,0.2,4.5,0.1,6.8-0.5c5.7-1.6,9.7-5.2,12.3-10.3c5.1-9.7,4.4-19.3-1.3-28.6c-1.2-2-2.8-3.7-4.6-5.2
		c-0.6-0.5-0.5-0.9,0-1.3c0.2-0.2,0.3-0.3,0.5-0.5c4.2-4.2,6.3-9.3,6.4-15.1c0.2-10.2-4.7-17.8-13.2-23.1c-4.7-2.9-10-4.2-15.6-4.1
		c-0.4,0-0.8,0.2-1.2-0.3c0.2-0.5,0.5-1,0.7-1.6c1.8-4.1,2.4-8.5,1.9-13c-0.8-7-4-13-8.8-18c-3.9-4.2-8.7-7.2-13.9-9.6
		c-4.3-2-8.9-3.1-13.6-3.9c-6.8-1.1-13.3-0.3-19.6,2.4c-3.8,1.6-6.9,3.9-9.7,6.9c-0.5,0.6-0.9,1-1.8,0.7c-1-0.2-0.9-0.9-1-1.6
		c-0.4-6-3.4-10.6-7.9-14.3c-3.7-3-7.8-5.2-12.5-6.5c-3.2-0.9-6.4-1.6-9.7-1.4c-4.6,0.2-9.1,1.1-13.2,3.5c-2.5,1.5-4.9,3.3-6.7,5.6
		c-3.5,4.6-5.2,9.8-4.8,15.6c0,0.4,0.2,0.9-0.2,1.3c-0.7,0-1.2-0.4-1.7-0.6c-5-2-10-3-15.4-1.6c-5.8,1.6-10.2,4.7-13.4,9.7
		c-5.1,7.8-4,18.5,1.6,25.5c1,1.2,1,1.3-0.2,2.4c-1.8,1.6-3.2,3.5-4.4,5.6c-3.2,6-3.8,12.3-1.4,18.7c2,5.3,5.5,9.4,10.5,12.3
		c3.7,2.2,7.6,3,11.8,2.1c0.4-0.1,0.8-0.4,1.2,0c-1.1,10.1,3,17.7,11.8,22.3C331,214.2,339.7,214.4,347.7,208.2z"/>
	<path class="st4" d="M173.6,273.4c-1.8-1.6-2.9-3.7-3.5-6c-0.8-3.2,0.2-5.8,2.6-7.8c1.8-1.5,3.3-3,4.8-4.8c1.7-2.1,2.8-4.4,3.2-7.1
		c0.2-1.4-0.2-2.5-1.4-3.4c-4-2.8-7.8-5.8-10.6-10c-2.1-3.1-3.3-6.5-3.5-10.2c-0.2-4.2,1.2-7.9,4-11c1.9-2.1,4-3.9,6.3-5.5
		c3.1-2.1,6.1-4.2,9.2-6.2c4.8-3.1,9.5-6.3,13.9-10c6.1-5.1,10.7-11.3,13.7-18.7c1.9-4.6,3.4-9.4,5.1-14.1c1.8-4.9,3.8-9.7,6.2-14.3
		c4.1-7.8,9-15.2,14.3-22.2c2.9-3.9,5.8-7.9,8.9-11.7c2-2.6,4.3-5,6.7-7.2c2.1-2,4.2-3.9,6.3-5.8c3.5-3,7.3-5.8,11-8.6
		c3-2.3,6.2-4.4,9.4-6.5c4.8-3.1,9.7-6,14.9-8.6c3.6-1.8,7.4-3.3,11.2-4.8c5-2.1,10.3-3.3,15.6-4.7c3.8-1,7.7-1.6,11.6-2
		c5-0.6,10.1-0.9,15.2-0.8c5.1,0.1,10.2,0,15.2,0.1c4.8,0.1,9.5,0.4,14.3,1c3,0.3,6,0.7,9,1.2c2.2,0.4,4.4,0.9,6.6,1.4
		c3.7,0.7,7.4,1.5,10.9,2.7c5.6,1.8,11.2,3.5,16.5,5.9c2.4,1.1,4.9,2.1,7.3,3.3c5.8,2.9,11.5,6.1,16.9,9.7c4.2,2.9,8.4,6,12.2,9.3
		c2.3,2,4.5,4.1,6.7,6.2c2.5,2.3,4.7,4.7,7,7.2c3.3,3.6,6.4,7.3,9.1,11.2c1.5,2.1,3,4.2,4.4,6.3c1.5,2.3,3,4.8,4.4,7.2
		c2.6,4.4,4.8,8.9,6.9,13.6c1.2,2.7,2.3,5.4,3.3,8.1c2,5.5,3.8,11.1,5.1,16.8c1.4,6,2.5,12.1,3.2,18.3c0.7,6.4,1.2,12.7,0.9,19.1
		c-0.1,4.5-0.4,8.9-0.9,13.4c-0.6,5.2-1.4,10.3-2.5,15.3c-2.1,9.5-5.1,18.8-8.9,27.7c-2.6,5.9-5.5,11.6-8.8,17.2
		c-3.5,6-7.5,11.6-11.9,17c-1.9,2.4-3.9,4.7-6,6.9c-2.6,2.7-5.2,5.4-8,7.9c-2,1.9-4.2,3.7-6.2,5.6c-3.6,3.5-7.2,7-10.7,10.6
		c-2.4,2.4-4.7,4.9-7,7.4c-2.1,2.4-4.3,4.8-6.3,7.3c-1.7,2-3.4,4-5,6.1c-2.9,3.6-5.2,7.5-7.3,11.5c-3.1,5.8-5.3,12-6.9,18.4
		c-1,4-1.7,8.1-2.2,12.3c-0.5,4.9-0.5,9.8-0.2,14.7c0.4,6.5,1.5,12.9,3.5,19.1c1,2.9,2,5.9,3.2,8.7c0.5,1.1-0.1,2.5-1.1,3
		c-0.9,0.4-2,0-2.6-1.2c-1.6-3.2-2.7-6.5-3.7-9.9c-1.6-5.2-2.7-10.5-3.2-15.9c-0.5-5.3-0.6-10.7-0.2-16.1c0.4-6.1,1.4-12.1,3-17.9
		c1.2-4.4,2.7-8.6,4.5-12.8c1.8-4.1,3.9-7.9,6.3-11.7c1.7-2.8,3.8-5.4,5.9-7.9c3.8-4.6,7.7-9.1,11.8-13.4c2.6-2.8,5.1-5.6,7.9-8.3
		c4.1-3.9,8.2-7.8,12.4-11.6c3.7-3.3,7.1-6.9,10.5-10.5c3.5-3.8,6.7-7.9,9.8-12.1c2.4-3.4,4.7-6.9,6.8-10.5c1.5-2.7,3-5.4,4.4-8.2
		c1.2-2.3,2.2-4.7,3.3-7.1c1.8-3.9,3.3-7.9,4.7-12c2.5-7.4,4.4-14.9,5.6-22.5c0.7-4.6,1.3-9.2,1.6-13.8c0.4-5.6,0.4-11.1,0.2-16.7
		c-0.1-4.1-0.6-8.2-1.2-12.3c-0.6-4.1-1.3-8.2-2.2-12.3c-0.8-3.7-1.8-7.3-2.9-10.9c-2.9-9.4-6.8-18.4-11.6-26.9
		c-2.2-3.9-4.6-7.7-7.1-11.4c-3.9-5.7-8.3-10.9-12.9-16c-2.6-2.8-5.4-5.4-8.2-7.9c-4.4-4-9-7.6-13.8-11c-4-2.8-8.2-5.3-12.5-7.7
		c-4.2-2.3-8.6-4.1-12.9-6.2c-2.9-1.4-6.2-2.2-9.2-3.4c-6.2-2.3-12.6-3.6-19-5.1c-4.6-1-9.1-1.6-13.8-2.1c-3.6-0.4-7.1-0.5-10.7-0.8
		c-6.9-0.5-13.7-0.3-20.6-0.2c-4.2,0-8.3,0.5-12.5,0.9c-3.3,0.4-6.5,0.7-9.7,1.5c-5,1.2-10.1,2.4-14.9,4.3
		c-4.5,1.8-8.9,3.7-13.2,5.9c-7.3,3.8-14.1,8.3-20.8,13c-3.9,2.8-7.7,5.8-11.4,8.9c-5,4.2-9.7,8.7-13.7,13.8
		c-4.3,5.4-8.5,10.9-12.4,16.6c-3,4.4-6,8.9-8.6,13.6c-3.5,6.3-6.2,12.9-8.4,19.7c-1.5,4.4-3,8.8-5,13c-3.1,6.7-7.5,12.4-13.2,17.2
		c-4.1,3.4-8.4,6.5-12.8,9.4c-4.6,3.1-9.2,6.1-13.5,9.4c-1.5,1.1-2.8,2.4-3.9,3.9c-2.8,3.7-2.7,7.8-1,11.9c1.3,3.1,3.4,5.7,6,7.9
		c1.8,1.5,3.7,3,5.7,4.3c1.7,1,2.3,2.6,2.5,4.5c0.5,5.1-1.6,9.2-4.8,12.9c-1.5,1.7-3,3.4-4.9,4.7c-1.2,0.9-1.5,2.2-0.9,3.7
		c0.9,2.4,2.5,4.2,5.2,4.7c0.8,0.1,1.5,0.5,1.7,1.4c0.3,0.9-0.1,1.7-0.6,2.3c-0.4,0.4-0.9,0.5-1.4,0.7c-1.5,0.4-2.8,1.2-4,2.2
		c-2.3,2.1-2.8,6.3-0.6,9.1c1,1.3,2,2.6,2.8,3.9c2.6,4.1,3.2,8.4,1.5,13c-1.3,3.4-2.6,6.8-3.8,10.2c-1.4,4.1-2.6,8.3-2.7,12.7
		c0,4.5,1.3,8.6,3.8,12.3c2.8,4.2,6.6,7.5,11,10.1c5.9,3.5,12.5,5.4,19.1,7c3.9,1,8,1.6,11.9,2.7c5.1,1.4,10.2,2.4,15.1,4.4
		c3.8,1.5,7.5,3.1,11.1,5.1c5.5,3.2,10.6,6.9,14.8,11.7c3.2,3.7,6,7.7,8.3,12.1c3,5.6,5.2,11.6,6.8,17.7c1.5,5.5,2.5,11,3.1,16.7
		c0.7,6,0.6,11.9,0.6,17.9c0,0.9-0.2,1.8-0.2,2.7c0.1,0.9-0.8,1.6-1.8,1.7c-0.8,0.1-1.8-0.6-2-1.5c-0.1-0.4-0.1-0.8-0.1-1.3
		c0-2,0-4.1,0-6.1c-0.1-8.9-1.1-17.7-3.2-26.4c-1.4-5.9-3.4-11.6-6-17c-2.3-4.6-5-8.9-8.4-12.8c-3.2-3.7-6.8-6.8-10.9-9.4
		c-2.7-1.7-5.5-3.1-8.3-4.5c-4.7-2.3-9.8-3.7-14.8-5.2c-6.4-1.9-12.9-2.8-19.3-4.6c-4.7-1.3-9.4-2.6-13.8-4.8
		c-3.8-1.8-7.3-3.9-10.5-6.8c-2.9-2.6-5.3-5.5-7.1-8.9c-2.5-4.7-3.6-9.6-3.1-15c0.5-5.8,2.5-11.1,4.4-16.5c0.7-2.1,1.6-4.1,2.3-6.2
		c1.3-3.4,0.3-6.4-1.7-9.3c-1.2-1.7-2.7-3.2-3.5-5.2c-1.6-4.3-1.3-8.3,1.7-11.9c0.3-0.4,0.7-0.8,1-1.3
		C172.9,274.1,173.4,274,173.6,273.4z"/>
	<circle class="st5" cx="533.6" cy="84" r="21.9"/>
	<polygon class="st5" points="512.6,110.3 513.7,92.7 541.1,104.6 530.3,117.5 	"/>
	<path class="st5" d="M512.2,113.6l15.5,6.7l0,0l-0.5,1.3c-1,2.3-3.7,3.4-6.1,2.4l-7-3c-2.3-1-3.4-3.7-2.4-6.1L512.2,113.6
		L512.2,113.6z"/>
	<g class="st6">
		<path class="st7" d="M516.6,112.4c-0.1-3.8,0.6-7.6,2-11.2c1.4-3.7,4.2-6.7,7.7-8.3c1-0.5,2.1-0.6,3.2-0.3c1.2,0.6,2,1.8,2.1,3.2
			c0.7-0.1,1.5,0,2.1,0.3c1.7,0.9,2.2,3.1,1.9,4.8c-0.3,1.6-1,3.2-1.9,4.6c-2.2,3.9-4.9,7.5-7.9,10.8l-0.7-0.7
			c3-3.2,5.6-6.8,7.7-10.6c0.9-1.3,1.5-2.8,1.8-4.4c0.2-1.4-0.1-3.1-1.3-3.8c-0.5-0.3-1.1-0.3-1.6-0.2c0,0.2,0,0.3,0,0.5
			c-0.2,1.9-0.8,3.8-1.9,5.4c-0.5,0.8-1.2,1.5-2.1,1.8c-0.6,0.2-1.2,0.1-1.8-0.2c-0.4-0.2-0.7-0.6-0.9-1.1c-0.1-0.5,0-1,0.1-1.4
			c0.7-2.1,2.1-4,4-5.2c0.4-0.3,0.9-0.5,1.4-0.7c0-1-0.5-2-1.4-2.5c-0.8-0.2-1.7-0.1-2.4,0.3c-3.3,1.6-5.9,4.4-7.2,7.8
			c-1.3,3.5-2,7.1-1.9,10.8L516.6,112.4z M530.6,97c-0.3,0.1-0.6,0.3-0.9,0.5c-1.7,1.1-3,2.7-3.6,4.6c-0.1,0.3-0.2,0.6-0.1,0.9
			c0.1,0.2,0.2,0.4,0.4,0.5c0.3,0.2,0.7,0.2,1,0.1c0.7-0.3,1.2-0.8,1.5-1.4C529.9,100.6,530.5,98.9,530.6,97
			C530.7,97.1,530.6,97,530.6,97L530.6,97z"/>
	</g>
	<path class="st5" d="M554.2,184.6l68.4,20.6c3,0.9,4.6,4,3.7,7l-13.5,44.7c-0.9,3-4,4.6-7,3.7L537.4,240c-3-0.9-4.6-4-3.7-7
		l13.5-44.7C548.1,185.3,551.2,183.7,554.2,184.6z"/>
	
		<rect x="545.9" y="200.1" transform="matrix(0.2888 -0.9574 0.9574 0.2888 194.1954 678.0923)" class="st8" width="15.2" height="16.5"/>
	
		<rect x="564.9" y="205.8" transform="matrix(0.2888 -0.9574 0.9574 0.2888 202.232 700.3864)" class="st8" width="15.2" height="16.5"/>
	
		<rect x="540.6" y="217.7" transform="matrix(0.2888 -0.9574 0.9574 0.2888 173.5844 685.5223)" class="st8" width="15.2" height="16.5"/>
	
		<rect x="559.6" y="223.4" transform="matrix(0.2888 -0.9574 0.9574 0.2888 181.621 707.8163)" class="st8" width="15.2" height="16.5"/>
	
		<rect x="583.2" y="211.4" transform="matrix(0.2888 -0.9574 0.9574 0.2888 209.9652 721.8389)" class="st8" width="15.2" height="16.5"/>
	
		<rect x="602.2" y="217.1" transform="matrix(0.2888 -0.9574 0.9574 0.2888 217.9977 744.1217)" class="st8" width="15.2" height="16.5"/>
	
		<rect x="577.9" y="228.9" transform="matrix(0.2888 -0.9574 0.9574 0.2888 189.3542 729.2688)" class="st8" width="15.2" height="16.5"/>
	
		<rect x="596.9" y="234.7" transform="matrix(0.2888 -0.9574 0.9574 0.2888 197.3867 751.5516)" class="st8" width="15.2" height="16.5"/>
</g>
<path class="st9" d="M446,217.4c1.2-2.1,2.2-4.3,2.8-6.6l5-1l0.1-5.5l0.1-5.5l-4.9-1c-0.6-2.3-1.5-4.6-2.7-6.6l2.8-4.2l-3.8-3.9
	l-3.8-3.9l-4.3,2.8c-2.1-1.2-4.3-2.2-6.6-2.8l-1-5l-5.5-0.1l-5.5-0.1l-1,4.9c-2.3,0.6-4.6,1.5-6.6,2.7l-4.2-2.8l-3.9,3.8l-3.9,3.8
	l2.8,4.3c-1.2,2.1-2.2,4.3-2.8,6.6l-5,1l-0.1,5.5l-0.1,5.5l4.9,1c0.6,2.3,1.5,4.6,2.7,6.6l-2.8,4.2l3.8,3.9l3.8,3.9l4.3-2.8
	c2.1,1.2,4.3,2.2,6.6,2.8l1,5l5.5,0.1l5.5,0.1l1-4.9c2.3-0.6,4.6-1.5,6.6-2.7l4.2,2.8l3.9-3.8l3.9-3.8L446,217.4z M414.3,213.5
	c-5.2-5.3-5.1-13.8,0.2-19c5.3-5.2,13.8-5.1,19,0.2c5.2,5.3,5.1,13.8-0.2,19c0,0,0,0,0,0C428,218.9,419.5,218.8,414.3,213.5
	C414.3,213.5,414.3,213.5,414.3,213.5L414.3,213.5z"/>
<path class="st7" d="M353.6,170.4c0.8-1.4,1.5-2.9,1.9-4.4l3.3-0.6l0-3.7l0-3.7l-3.3-0.7c-0.4-1.6-1-3-1.8-4.4l1.9-2.8l-2.6-2.6
	l-2.6-2.6l-2.8,1.8c-1.4-0.8-2.8-1.5-4.4-1.9l-0.6-3.3l-3.7,0l-3.7,0l-0.7,3.3c-1.6,0.4-3,1-4.4,1.8l-2.8-1.9l-2.6,2.6l-2.6,2.6
	l1.8,2.8c-0.8,1.4-1.5,2.9-1.9,4.4l-3.3,0.6l0,3.7l0,3.7l3.3,0.7c0.4,1.6,1,3,1.8,4.4l-1.9,2.8l2.6,2.6l2.6,2.6l2.8-1.8
	c1.4,0.8,2.8,1.5,4.4,1.9l0.6,3.3l3.7,0l3.7,0l0.7-3.3c1.6-0.4,3-1,4.4-1.8l2.8,1.9l2.6-2.6l2.6-2.6L353.6,170.4z M332.4,167.8
	c-3.5-3.5-3.4-9.2,0.1-12.7c3.5-3.5,9.2-3.4,12.7,0.1c3.5,3.5,3.4,9.2-0.1,12.7c0,0,0,0,0,0C341.6,171.4,335.9,171.3,332.4,167.8
	C332.4,167.8,332.4,167.8,332.4,167.8L332.4,167.8z"/>
<path class="st10" d="M418.7,164.6c1.5-2.4,2.6-5,3.3-7.8l5.8-1.1l0.1-6.4l0.1-6.4l-5.8-1.2c-0.7-2.7-1.7-5.4-3.1-7.8l3.3-4.9
	l-4.5-4.6l-4.5-4.6l-5,3.2c-2.4-1.5-5-2.6-7.8-3.3l-1.1-5.8l-6.5-0.1l-6.5-0.1l-1.2,5.8c-2.7,0.7-5.4,1.7-7.8,3.1l-4.9-3.3l-4.6,4.5
	l-4.6,4.5l3.2,5c-1.5,2.4-2.6,5-3.3,7.8l-5.8,1.1l-0.1,6.4l-0.1,6.4l5.8,1.2c0.7,2.7,1.7,5.4,3.1,7.8l-3.3,4.9l4.5,4.6l4.5,4.6
	l5-3.2c2.4,1.5,5,2.6,7.8,3.3l1.1,5.8l6.5,0.1l6.5,0.1l1.2-5.8c2.7-0.7,5.4-1.7,7.8-3.1l4.9,3.3l4.6-4.5l4.6-4.5L418.7,164.6z
	 M381.4,160c-6.1-6.2-6-16.3,0.2-22.4c6.2-6.1,16.3-6,22.4,0.2c6.1,6.2,6,16.3-0.2,22.4c0,0,0,0,0,0
	C397.5,166.3,387.5,166.2,381.4,160C381.4,160,381.4,160,381.4,160L381.4,160z"/>
<path class="st11" d="M91,24.5h108.5c2.6,0,4.7,1.9,4.7,4.2v66.7c0,2.3-2.1,4.2-4.7,4.2H91c-2.6,0-4.7-1.9-4.7-4.2V28.7
	C86.3,26.4,88.4,24.5,91,24.5z"/>
<polygon class="st5" points="90.2,89 89.4,88.1 114.3,70.4 137.1,76.8 161.6,55.7 180.9,58.2 197.8,40.7 198.8,41.4 181.4,59.5 
	162.1,57 137.5,78.1 114.6,71.7 "/>
<rect x="45.6" y="456.6" class="st7" width="115.2" height="22.8"/>
<linearGradient id="SVGID_1_" gradientUnits="userSpaceOnUse" x1="131.7901" y1="30.1748" x2="130.0401" y2="-53.6551" gradientTransform="matrix(1 0 0 -1 -28.46 489.8)">
	<stop  offset="0" style="stop-color:#000000;stop-opacity:0"/>
	<stop  offset="0.99" style="stop-color:#000000"/>
</linearGradient>
<rect x="45.6" y="456.6" class="st12" width="115.2" height="22.8"/>
<rect x="45.8" y="460.2" class="st5" width="41.4" height="14.9"/>
<rect x="40.8" y="428.2" class="st7" width="133.3" height="28.4"/>
<rect x="40.8" y="428.2" class="st13" width="133.3" height="28.4"/>
<rect x="102.2" y="432" class="st5" width="71.7" height="20.9"/>
<rect x="46" y="407.7" class="st7" width="113.9" height="20.6"/>
<linearGradient id="SVGID_2_" gradientUnits="userSpaceOnUse" x1="141.0801" y1="71.3374" x2="-43.4699" y2="79.7773" gradientTransform="matrix(1 0 0 -1 -28.46 489.8)">
	<stop  offset="0" style="stop-color:#000000;stop-opacity:0"/>
	<stop  offset="0.99" style="stop-color:#000000"/>
</linearGradient>
<rect x="46" y="407.7" class="st14" width="113.9" height="20.6"/>
<rect x="91.2" y="409.9" class="st5" width="68.7" height="16.4"/>
<rect x="60.8" y="392.2" class="st7" width="91.3" height="15.5"/>
<rect x="60.8" y="392.2" class="st15" width="91.3" height="15.5"/>
<rect x="110.1" y="393.1" class="st5" width="42" height="13.5"/>
<rect x="46.4" y="377.9" class="st7" width="114.8" height="14.3"/>
<linearGradient id="SVGID_3_" gradientUnits="userSpaceOnUse" x1="131.9288" y1="120.7446" x2="134.4388" y2="4.5946" gradientTransform="matrix(1 0 0 -1 -28.46 489.79)">
	<stop  offset="0" style="stop-color:#000000;stop-opacity:0"/>
	<stop  offset="0.99" style="stop-color:#000000"/>
</linearGradient>
<rect x="46.4" y="377.9" class="st16" width="114.8" height="14.3"/>
<rect x="119.1" y="380.6" class="st5" width="42" height="8.1"/>
<rect x="56" y="360.1" class="st7" width="89.5" height="17.7"/>
<linearGradient id="SVGID_4_" gradientUnits="userSpaceOnUse" x1="129.1637" y1="117.5147" x2="129.7437" y2="159.7147" gradientTransform="matrix(1 0 0 -1 -28.46 489.8)">
	<stop  offset="0" style="stop-color:#000000;stop-opacity:0"/>
	<stop  offset="0.99" style="stop-color:#000000"/>
</linearGradient>
<rect x="56" y="360.1" class="st17" width="89.5" height="17.7"/>
<rect x="91.7" y="360.1" class="st18" width="53.7" height="17.7"/>
<rect x="56.2" y="363.2" class="st5" width="32.2" height="11.6"/>
<rect x="52.3" y="342.4" class="st7" width="103.6" height="17.7"/>
<rect x="100" y="344.3" class="st5" width="52.8" height="14.3"/>
<rect x="56.4" y="326.3" class="st7" width="88.4" height="16"/>
<rect x="56.4" y="326.3" class="st18" width="88.4" height="16"/>
<rect x="91.9" y="327.6" class="st5" width="52.8" height="13.6"/>
<rect x="67.8" y="316.1" class="st7" width="70.9" height="10.3"/>
<linearGradient id="SVGID_5_" gradientUnits="userSpaceOnUse" x1="131.9694" y1="158.1746" x2="130.8094" y2="212.0246" gradientTransform="matrix(1 0 0 -1 -28.46 489.8)">
	<stop  offset="0" style="stop-color:#000000;stop-opacity:0"/>
	<stop  offset="0.99" style="stop-color:#000000"/>
</linearGradient>
<rect x="67.8" y="316.1" class="st19" width="70.9" height="10.3"/>
<rect x="106.1" y="315.9" class="st5" width="32.6" height="10.5"/>
<rect x="56.7" y="304.8" class="st7" width="89.1" height="11.1"/>
<rect x="113.1" y="307" class="st5" width="34.2" height="6.3"/>
<path class="st20" d="M454.1,447.9h170.5c0,0,6.4-0.3,6.4-7.8v-14.6H447.4v17.8c0.9,2.8,3.6,4.7,6.6,4.5"/>
<path class="st20" d="M447.4,314.7l-0.1,116.4l183.7-1.7V311.4c0,0,1.1-6.7-6-6.7H454.3c0,0-7.7,0-6.9,10.2"/>
<polygon class="st20" points="524.6,479.2 524.6,446.8 551.5,447.9 551.5,476.4 "/>
<polygon class="st20" points="482,475.9 593.6,476 593.6,481.5 482,481.5 "/>
<path class="st5" d="M537.5,433.5c3,0,5.4,2.4,5.4,5.4s-2.4,5.4-5.4,5.4c-3,0-5.4-2.4-5.4-5.4C532.1,435.9,534.5,433.5,537.5,433.5
	L537.5,433.5"/>
<rect x="453" y="310.3" class="st21" width="172.4" height="113"/>
<path class="st22" d="M461.6,316.1c1.5,0,2.7,1.2,2.7,2.7c0,1.5-1.2,2.7-2.7,2.7c-1.5,0-2.7-1.2-2.7-2.7
	C458.9,317.3,460.1,316.1,461.6,316.1L461.6,316.1"/>
<path class="st23" d="M470.8,316.1c1.5,0,2.7,1.2,2.7,2.7c0,1.5-1.2,2.7-2.7,2.7c-1.5,0-2.7-1.2-2.7-2.7
	C468.1,317.3,469.3,316.1,470.8,316.1L470.8,316.1"/>
<path class="st24" d="M480.4,316.1c1.5,0,2.7,1.2,2.7,2.7c0,1.5-1.2,2.7-2.7,2.7c-1.5,0-2.7-1.2-2.7-2.7
	C477.7,317.3,478.9,316.1,480.4,316.1L480.4,316.1"/>
<path class="st25" d="M597.3,369.2c-0.1,1.6-1.5,2.8-3,2.7c0,0,0,0,0,0H482.1c-1.7,0-3.4-1.2-3.4-2.7v-24.9c0-1.5,1.6-2.7,3.4-2.7
	h112.2c1.6-0.1,2.9,1.1,3,2.7c0,0,0,0,0,0l0,0V369.2z"/>
<path class="st26" d="M515.6,390.4c0,1.5-1.2,2.7-2.7,2.7c0,0,0,0,0,0h-30.8c-1.7,0-3.4-1.2-3.4-2.7v-13.6c0-1.5,1.7-2.7,3.4-2.7
	h30.6c1.5-0.1,2.8,1,2.9,2.5c0,0,0,0,0,0c0,0,0,0.1,0,0.2L515.6,390.4z"/>
<path class="st27" d="M555.9,390.4c0,1.5-1.2,2.7-2.7,2.7c0,0,0,0,0,0h-30.9c-1.7,0-3.4-1.2-3.4-2.7v-13.6c0-1.5,1.7-2.7,3.4-2.7
	H553c1.5-0.1,2.8,1,2.9,2.5c0,0.1,0,0.1,0,0.2L555.9,390.4z"/>
<path class="st28" d="M597.3,390.4c-0.1,1.6-1.5,2.8-3.1,2.7h-30.6c-1.6,0.1-3.1-1.1-3.2-2.7v-13.6c0.2-1.6,1.6-2.8,3.2-2.7h30.6
	c1.6-0.1,3,1.1,3.1,2.7c0,0,0,0,0,0l0,0V390.4z"/>
<path class="st29" d="M555.9,398.1c-0.2,0.5-0.7,0.9-1.2,1c-0.1,0-0.1,0-0.2-0.4h-33.8c-0.7,0.4-1.7,0.1-1.7-0.6v-0.4
	c0-0.6,1-1.1,1.7-1.2h33.8c0.5,0.1,0.9,0.5,1,1.1c0,0.1,0,0.1,0.3,0.2V398.1z"/>
<path class="st29" d="M555.9,402.5c-0.2,0.6-0.7,1-1.2,1.1c0,0-0.1,0-0.2-0.5h-33.8c-0.7,0.5-1.7,0-1.7-0.6V402c0-0.6,1-1,1.7-1.1
	h33.8c0.6,0.2,1.1,0.6,1.4,1.1V402.5z"/>
<path class="st29" d="M555.9,407c-0.2,0.6-0.7,1.1-1.4,1.2c0-0.2,0-0.4,0-0.5h-33.8c-0.5,0.3-1.2,0.2-1.5-0.3
	c-0.1-0.1-0.1-0.2-0.2-0.4v-0.4c0-0.6,1-0.9,1.7-1.1h33.8c0.6,0.2,1.1,0.6,1.4,1.1L555.9,407z"/>
<path class="st29" d="M555.9,411.4c-0.3,0.7-0.8,1.3-1.4,1.9h-33.8c-0.7-0.6-1.7-1.3-1.7-1.9v-0.4c0-0.6,1-1.3,1.7-1.1h33.8
	c0.5-0.1,0.9,0.2,1,0.6c0,0.1,0,0.2,0,0.3c0,0,0,0,0.3,0.1V411.4z"/>
<path class="st29" d="M537.2,415.8c0,0.5-0.4,0.8-1,0.8h-15.6c-0.6,0-1.6-0.3-1.6-0.8v-0.4c0-0.5,0.9-1,1.6-1h15.6c0.6,0,1,0.5,1,1
	c0,0,0,0,0,0L537.2,415.8z"/>
<path class="st29" d="M597.3,398.1c-0.6,0.6-0.5,1-1.2,0.6h-33.9c-0.6,0.5-1.1,0.1-1.1-0.5c0,0,0,0,0.4-0.1v-0.4
	c-0.3-0.6,0.1-1.1,0.7-1.2h33.9c0.7,0.2,0.6,0.6,1.2,1.2V398.1z"/>
<path class="st29" d="M597.3,402.5c-0.6,0.6-0.5,1.1-1.2,0.6h-33.9c-0.6,0.5-1.1,0-0.7-0.6V402c-0.4-0.6,0.1-1,0.7-1.1h33.9
	c0.7,0.2,0.6,0.6,1.2,1.1V402.5z"/>
<path class="st29" d="M597.3,407c-0.6,0.6-0.5,1.2-1.2,0.7h-33.9c-0.6,0.5-1.1,0-0.7-0.7v-0.4c-0.4-0.6,0.1-0.9,0.7-1.1h33.9
	c0.7,0.3,0.6,0.5,1.2,1.1V407z"/>
<path class="st29" d="M597.3,411.4c-0.6,0.6-0.5,1.3-1.2,1.9h-33.9c-0.7-0.6-1.1-1.2-0.7-1.9v-0.4c-0.2-0.3-0.2-0.7,0.1-0.9
	c0.2-0.2,0.5-0.2,0.7-0.1h33.9c0.7-0.2,0.6,0.4,1.2,1.1V411.4z"/>
<path class="st29" d="M578.7,415.8c0,0.5,0,0.8-0.6,0.8h-15.6c-0.6,0-1-0.3-1-0.8v-0.4c0-0.6,0.5-1,1-1l0,0h15.6
	c0.6,0,0.6,0.5,0.6,1L578.7,415.8z"/>
<path class="st29" d="M514.5,398.1c0.4,0.6,0.2,1-0.5,0.6h-33.9c-0.4,0.3-1,0.2-1.3-0.2c-0.1-0.1-0.2-0.3-0.2-0.4v-0.4
	c0.2-0.6,0.8-1.1,1.5-1.2H514c0.7,0.2,0.9,0.6,0.5,1.2V398.1z"/>
<path class="st29" d="M514.5,402.5c0.4,0.6,0.2,1.1-0.5,0.6h-33.9c-0.7,0.5-1.2,0-1.5-0.6V402c0.1-0.6,0.8-1,1.5-1.1H514
	c0.7,0.2,0.9,0.6,0.5,1.1V402.5z"/>
<path class="st29" d="M514.5,407c0.4,0.6,0.2,1.2-0.5,0.7h-33.9c-0.7,0.5-1.2,0-1.5-0.7v-0.4c0.1-0.6,0.8-0.9,1.5-1.1H514
	c0.7,0.3,0.9,0.5,0.5,1.1V407z"/>
<path class="st29" d="M504.4,409.9h9.6c0.7-0.2,0.9,0.4,0.5,1.1v0.4c0.4,0.6,0.2,1.3-0.5,1.9h-33.9c-0.7-0.5-1.2-1.1-1.5-1.9v-0.4
	c0.1-0.7,0.7-1.2,1.4-1.1c0,0,0,0,0,0H504.4"/>
<path class="st29" d="M497.7,415.8c0,0.5-0.3,0.8-1,0.8h-16.8c-0.7,0-1.3-0.3-1.3-0.8v-0.4c0.1-0.6,0.7-1,1.3-1h16.8
	c0.5,0,1,0.4,1,0.9c0,0,0,0,0,0c0,0,0,0,0,0.1V415.8z"/>
<ellipse class="st5" cx="352.9" cy="223.7" rx="39.8" ry="38.5"/>
<path class="st7" d="M344,248.4c-1.4,0-2.8-0.6-3.8-1.5L322.7,230c-2-2.1-1.9-5.4,0.2-7.4c2.1-1.9,5.3-1.9,7.4,0l13.4,12.9
	l27.3-30.3c1.9-2.2,5.3-2.5,7.6-0.7c2.3,1.8,2.6,5.1,0.7,7.3c-0.1,0.1-0.1,0.1-0.2,0.2L348,246.7c-1,1.1-2.4,1.7-3.9,1.8
	C344.1,248.4,344,248.4,344,248.4z"/>
</svg>
