<svg width="840" height="238" viewBox="0 0 840 238" fill="none" xmlns="http://www.w3.org/2000/svg">
<path d="M291.619 64.0599C444.423 -14.3236 839 31.0002 839 31.0002V151H79C79 151 138.815 142.443 291.619 64.0599Z" fill="#FF0099"/>
<line x1="57.9998" y1="152.018" x2="838.999" y2="152.018" stroke="#CCD0D4"/>
<line x1="75.5" y1="237" x2="75.5" y2="7.00049" stroke="#CCD0D4"/>
<line x1="247.5" y1="237.021" x2="247.5" y2="37.9803" stroke="#CCD0D4"/>
<line x1="415.5" y1="237" x2="415.5" y2="7.00049" stroke="#CCD0D4"/>
<path d="M162.956 176H160.98V168.385L158.622 169.117V167.51L162.744 166.034H162.956V176ZM142.711 188.536H140.143L139.654 190H138.097L140.743 182.891H142.101L144.762 190H143.204L142.711 188.536ZM140.538 187.349H142.315L141.422 184.688L140.538 187.349ZM146.891 187.496V190H145.426V182.891H148.199C148.733 182.891 149.202 182.989 149.605 183.184C150.012 183.379 150.325 183.658 150.543 184.019C150.761 184.377 150.87 184.786 150.87 185.245C150.87 185.941 150.631 186.491 150.152 186.895C149.677 187.295 149.018 187.496 148.175 187.496H146.891ZM146.891 186.309H148.199C148.587 186.309 148.881 186.218 149.083 186.036C149.288 185.853 149.391 185.593 149.391 185.254C149.391 184.906 149.288 184.625 149.083 184.41C148.878 184.195 148.595 184.084 148.233 184.078H146.891V186.309ZM154.513 187.398H153.346V190H151.881V182.891H154.522C155.362 182.891 156.01 183.078 156.466 183.453C156.922 183.827 157.149 184.356 157.149 185.04C157.149 185.525 157.044 185.93 156.832 186.255C156.624 186.578 156.306 186.835 155.88 187.027L157.418 189.932V190H155.846L154.513 187.398ZM153.346 186.211H154.527C154.895 186.211 155.18 186.119 155.382 185.933C155.584 185.744 155.685 185.486 155.685 185.157C155.685 184.821 155.589 184.558 155.396 184.366C155.208 184.174 154.916 184.078 154.522 184.078H153.346V186.211ZM162.545 186.919H159.732V188.824H163.033V190H158.268V182.891H163.023V184.078H159.732V185.772H162.545V186.919ZM169.674 190H168.209L165.357 185.323V190H163.893V182.891H165.357L168.214 187.579V182.891H169.674V190ZM170.953 190V182.891H173.141C173.766 182.891 174.324 183.033 174.815 183.316C175.31 183.596 175.696 183.996 175.973 184.517C176.249 185.035 176.388 185.624 176.388 186.285V186.612C176.388 187.273 176.251 187.86 175.978 188.375C175.707 188.889 175.325 189.288 174.83 189.571C174.335 189.854 173.777 189.997 173.155 190H170.953ZM172.418 184.078V188.824H173.126C173.699 188.824 174.137 188.637 174.439 188.262C174.742 187.888 174.897 187.352 174.903 186.656V186.28C174.903 185.557 174.754 185.01 174.454 184.639C174.155 184.265 173.717 184.078 173.141 184.078H172.418ZM181.734 186.919H178.922V188.824H182.223V190H177.457V182.891H182.213V184.078H178.922V185.772H181.734V186.919ZM116.222 201.632C116.166 202.397 115.883 203 115.372 203.439C114.864 203.878 114.194 204.098 113.36 204.098C112.449 204.098 111.731 203.792 111.207 203.18C110.686 202.565 110.426 201.722 110.426 200.651V200.216C110.426 199.533 110.546 198.931 110.787 198.41C111.028 197.889 111.371 197.49 111.817 197.213C112.267 196.933 112.787 196.793 113.38 196.793C114.2 196.793 114.861 197.013 115.362 197.453C115.864 197.892 116.153 198.509 116.231 199.303H114.767C114.731 198.844 114.602 198.512 114.381 198.307C114.163 198.099 113.829 197.995 113.38 197.995C112.892 197.995 112.525 198.17 112.281 198.522C112.04 198.87 111.917 199.412 111.91 200.148V200.685C111.91 201.453 112.026 202.015 112.257 202.37C112.491 202.724 112.859 202.902 113.36 202.902C113.813 202.902 114.15 202.799 114.371 202.594C114.596 202.386 114.724 202.065 114.757 201.632H116.222ZM123.023 200.607C123.023 201.307 122.9 201.92 122.652 202.448C122.405 202.975 122.05 203.382 121.588 203.668C121.129 203.955 120.602 204.098 120.006 204.098C119.417 204.098 118.891 203.957 118.429 203.673C117.966 203.39 117.608 202.986 117.354 202.462C117.101 201.935 116.972 201.33 116.969 200.646V200.294C116.969 199.595 117.094 198.979 117.345 198.449C117.599 197.915 117.955 197.506 118.414 197.223C118.876 196.937 119.404 196.793 119.996 196.793C120.589 196.793 121.114 196.937 121.573 197.223C122.035 197.506 122.392 197.915 122.643 198.449C122.896 198.979 123.023 199.593 123.023 200.29V200.607ZM121.539 200.285C121.539 199.539 121.406 198.973 121.139 198.585C120.872 198.198 120.491 198.004 119.996 198.004C119.505 198.004 119.125 198.196 118.858 198.581C118.591 198.961 118.456 199.521 118.453 200.26V200.607C118.453 201.333 118.587 201.896 118.854 202.296C119.12 202.697 119.505 202.897 120.006 202.897C120.497 202.897 120.875 202.705 121.139 202.321C121.402 201.933 121.536 201.37 121.539 200.631V200.285ZM129.869 204H128.404L125.553 199.323V204H124.088V196.891H125.553L128.409 201.579V196.891H129.869V204ZM134.835 202.135C134.835 201.859 134.737 201.647 134.542 201.5C134.347 201.351 133.995 201.194 133.487 201.032C132.979 200.866 132.577 200.703 132.281 200.543C131.474 200.107 131.07 199.52 131.07 198.781C131.07 198.397 131.178 198.055 131.393 197.755C131.611 197.453 131.922 197.217 132.325 197.047C132.732 196.878 133.188 196.793 133.692 196.793C134.2 196.793 134.653 196.886 135.05 197.072C135.447 197.254 135.755 197.513 135.973 197.848C136.194 198.183 136.305 198.564 136.305 198.991H134.84C134.84 198.665 134.737 198.413 134.532 198.234C134.327 198.052 134.039 197.96 133.668 197.96C133.31 197.96 133.032 198.037 132.833 198.19C132.634 198.34 132.535 198.538 132.535 198.786C132.535 199.017 132.651 199.21 132.882 199.367C133.116 199.523 133.46 199.669 133.912 199.806C134.745 200.057 135.353 200.368 135.733 200.739C136.114 201.11 136.305 201.572 136.305 202.125C136.305 202.741 136.072 203.224 135.606 203.576C135.141 203.924 134.514 204.098 133.727 204.098C133.18 204.098 132.682 203.999 132.232 203.8C131.783 203.598 131.44 203.323 131.202 202.975C130.968 202.627 130.851 202.223 130.851 201.764H132.32C132.32 202.549 132.789 202.941 133.727 202.941C134.075 202.941 134.347 202.871 134.542 202.731C134.737 202.588 134.835 202.389 134.835 202.135ZM142.882 201.632C142.826 202.397 142.543 203 142.032 203.439C141.524 203.878 140.854 204.098 140.021 204.098C139.109 204.098 138.391 203.792 137.867 203.18C137.346 202.565 137.086 201.722 137.086 200.651V200.216C137.086 199.533 137.206 198.931 137.447 198.41C137.688 197.889 138.032 197.49 138.478 197.213C138.927 196.933 139.448 196.793 140.04 196.793C140.86 196.793 141.521 197.013 142.022 197.453C142.524 197.892 142.813 198.509 142.892 199.303H141.427C141.391 198.844 141.262 198.512 141.041 198.307C140.823 198.099 140.489 197.995 140.04 197.995C139.552 197.995 139.186 198.17 138.941 198.522C138.701 198.87 138.577 199.412 138.57 200.148V200.685C138.57 201.453 138.686 202.015 138.917 202.37C139.151 202.724 139.519 202.902 140.021 202.902C140.473 202.902 140.81 202.799 141.031 202.594C141.256 202.386 141.384 202.065 141.417 201.632H142.882ZM145.401 204H143.937V196.891H145.401V204ZM151.041 200.919H148.229V202.824H151.529V204H146.764V196.891H151.52V198.078H148.229V199.772H151.041V200.919ZM158.17 204H156.705L153.854 199.323V204H152.389V196.891H153.854L156.71 201.579V196.891H158.17V204ZM164.654 198.078H162.477V204H161.012V198.078H158.863V196.891H164.654V198.078ZM169.771 200.919H166.959V202.824H170.26V204H165.494V196.891H170.25V198.078H166.959V199.772H169.771V200.919ZM173.033 196.891L174.859 202.047L176.676 196.891H178.6V204H177.13V202.057L177.276 198.703L175.357 204H174.352L172.438 198.708L172.584 202.057V204H171.119V196.891H173.033ZM184.156 200.919H181.344V202.824H184.645V204H179.879V196.891H184.635V198.078H181.344V199.772H184.156V200.919ZM191.285 204H189.82L186.969 199.323V204H185.504V196.891H186.969L189.825 201.579V196.891H191.285V204ZM197.77 198.078H195.592V204H194.127V198.078H191.979V196.891H197.77V198.078ZM202.887 200.919H200.074V202.824H203.375V204H198.609V196.891H203.365V198.078H200.074V199.772H202.887V200.919ZM212.564 200.607C212.564 201.307 212.441 201.92 212.193 202.448C211.946 202.975 211.591 203.382 211.129 203.668C210.67 203.955 210.143 204.098 209.547 204.098C208.958 204.098 208.432 203.957 207.97 203.673C207.507 203.39 207.149 202.986 206.896 202.462C206.642 201.935 206.513 201.33 206.51 200.646V200.294C206.51 199.595 206.635 198.979 206.886 198.449C207.14 197.915 207.496 197.506 207.955 197.223C208.417 196.937 208.945 196.793 209.537 196.793C210.13 196.793 210.655 196.937 211.114 197.223C211.576 197.506 211.933 197.915 212.184 198.449C212.438 198.979 212.564 199.593 212.564 200.29V200.607ZM211.08 200.285C211.08 199.539 210.947 198.973 210.68 198.585C210.413 198.198 210.032 198.004 209.537 198.004C209.046 198.004 208.666 198.196 208.399 198.581C208.132 198.961 207.997 199.521 207.994 200.26V200.607C207.994 201.333 208.128 201.896 208.395 202.296C208.661 202.697 209.046 202.897 209.547 202.897C210.038 202.897 210.416 202.705 210.68 202.321C210.943 201.933 211.077 201.37 211.08 200.631V200.285ZM111.905 218H110.44V210.891H111.905V218ZM119.049 218H117.584L114.732 213.323V218H113.268V210.891H114.732L117.589 215.579V210.891H119.049V218ZM125.909 215.632C125.854 216.397 125.571 217 125.06 217.439C124.552 217.878 123.881 218.098 123.048 218.098C122.136 218.098 121.419 217.792 120.895 217.18C120.374 216.565 120.113 215.722 120.113 214.651V214.216C120.113 213.533 120.234 212.931 120.475 212.41C120.715 211.889 121.059 211.49 121.505 211.213C121.954 210.933 122.475 210.793 123.067 210.793C123.888 210.793 124.549 211.013 125.05 211.453C125.551 211.892 125.841 212.509 125.919 213.303H124.454C124.418 212.844 124.29 212.512 124.068 212.307C123.85 212.099 123.517 211.995 123.067 211.995C122.579 211.995 122.213 212.17 121.969 212.522C121.728 212.87 121.604 213.412 121.598 214.148V214.685C121.598 215.453 121.713 216.015 121.944 216.37C122.179 216.724 122.547 216.902 123.048 216.902C123.5 216.902 123.837 216.799 124.059 216.594C124.283 216.386 124.412 216.065 124.444 215.632H125.909ZM132.711 214.607C132.711 215.307 132.587 215.92 132.34 216.448C132.092 216.975 131.738 217.382 131.275 217.668C130.816 217.955 130.289 218.098 129.693 218.098C129.104 218.098 128.578 217.957 128.116 217.673C127.654 217.39 127.296 216.986 127.042 216.462C126.788 215.935 126.66 215.33 126.656 214.646V214.294C126.656 213.595 126.782 212.979 127.032 212.449C127.286 211.915 127.643 211.506 128.102 211.223C128.564 210.937 129.091 210.793 129.684 210.793C130.276 210.793 130.802 210.937 131.261 211.223C131.723 211.506 132.079 211.915 132.33 212.449C132.584 212.979 132.711 213.593 132.711 214.29V214.607ZM131.227 214.285C131.227 213.539 131.093 212.973 130.826 212.585C130.559 212.198 130.178 212.004 129.684 212.004C129.192 212.004 128.813 212.196 128.546 212.581C128.279 212.961 128.144 213.521 128.141 214.26V214.607C128.141 215.333 128.274 215.896 128.541 216.296C128.808 216.697 129.192 216.897 129.693 216.897C130.185 216.897 130.562 216.705 130.826 216.321C131.09 215.933 131.223 215.37 131.227 214.631V214.285ZM139.557 218H138.092L135.24 213.323V218H133.775V210.891H135.24L138.097 215.579V210.891H139.557V218ZM144.522 216.135C144.522 215.859 144.425 215.647 144.229 215.5C144.034 215.351 143.683 215.194 143.175 215.032C142.667 214.866 142.265 214.703 141.969 214.543C141.161 214.107 140.758 213.52 140.758 212.781C140.758 212.397 140.865 212.055 141.08 211.755C141.298 211.453 141.609 211.217 142.013 211.047C142.42 210.878 142.875 210.793 143.38 210.793C143.888 210.793 144.34 210.886 144.737 211.072C145.134 211.254 145.442 211.513 145.66 211.848C145.882 212.183 145.992 212.564 145.992 212.991H144.527C144.527 212.665 144.425 212.413 144.22 212.234C144.015 212.052 143.727 211.96 143.355 211.96C142.997 211.96 142.719 212.037 142.521 212.19C142.322 212.34 142.223 212.538 142.223 212.786C142.223 213.017 142.338 213.21 142.569 213.367C142.804 213.523 143.147 213.669 143.6 213.806C144.433 214.057 145.04 214.368 145.421 214.739C145.802 215.11 145.992 215.572 145.992 216.125C145.992 216.741 145.759 217.224 145.294 217.576C144.828 217.924 144.202 218.098 143.414 218.098C142.867 218.098 142.369 217.999 141.92 217.8C141.471 217.598 141.127 217.323 140.89 216.975C140.655 216.627 140.538 216.223 140.538 215.764H142.008C142.008 216.549 142.477 216.941 143.414 216.941C143.762 216.941 144.034 216.871 144.229 216.731C144.425 216.588 144.522 216.389 144.522 216.135ZM152.569 215.632C152.514 216.397 152.231 217 151.72 217.439C151.212 217.878 150.541 218.098 149.708 218.098C148.797 218.098 148.079 217.792 147.555 217.18C147.034 216.565 146.773 215.722 146.773 214.651V214.216C146.773 213.533 146.894 212.931 147.135 212.41C147.376 211.889 147.719 211.49 148.165 211.213C148.614 210.933 149.135 210.793 149.728 210.793C150.548 210.793 151.209 211.013 151.71 211.453C152.211 211.892 152.501 212.509 152.579 213.303H151.114C151.078 212.844 150.95 212.512 150.729 212.307C150.51 212.099 150.177 211.995 149.728 211.995C149.239 211.995 148.873 212.17 148.629 212.522C148.388 212.87 148.264 213.412 148.258 214.148V214.685C148.258 215.453 148.373 216.015 148.604 216.37C148.839 216.724 149.207 216.902 149.708 216.902C150.16 216.902 150.497 216.799 150.719 216.594C150.943 216.386 151.072 216.065 151.104 215.632H152.569ZM155.089 218H153.624V210.891H155.089V218ZM160.729 214.919H157.916V216.824H161.217V218H156.451V210.891H161.207V212.078H157.916V213.772H160.729V214.919ZM167.857 218H166.393L163.541 213.323V218H162.076V210.891H163.541L166.397 215.579V210.891H167.857V218ZM174.342 212.078H172.164V218H170.699V212.078H168.551V210.891H174.342V212.078ZM179.459 214.919H176.646V216.824H179.947V218H175.182V210.891H179.938V212.078H176.646V213.772H179.459V214.919ZM182.721 210.891L184.547 216.047L186.363 210.891H188.287V218H186.817V216.057L186.964 212.703L185.045 218H184.039L182.125 212.708L182.271 216.057V218H180.807V210.891H182.721ZM193.844 214.919H191.031V216.824H194.332V218H189.566V210.891H194.322V212.078H191.031V213.772H193.844V214.919ZM200.973 218H199.508L196.656 213.323V218H195.191V210.891H196.656L199.513 215.579V210.891H200.973V218ZM207.457 212.078H205.279V218H203.814V212.078H201.666V210.891H207.457V212.078ZM212.574 214.919H209.762V216.824H213.062V218H208.297V210.891H213.053V212.078H209.762V213.772H212.574V214.919Z" fill="#60347B"/>
<path d="M334.979 176H328.157V174.647L331.377 171.215C331.819 170.732 332.145 170.311 332.354 169.951C332.569 169.591 332.676 169.249 332.676 168.925C332.676 168.483 332.564 168.137 332.341 167.886C332.118 167.631 331.799 167.503 331.384 167.503C330.937 167.503 330.584 167.658 330.324 167.968C330.069 168.274 329.941 168.677 329.941 169.178H327.959C327.959 168.572 328.103 168.018 328.39 167.517C328.681 167.016 329.091 166.624 329.62 166.341C330.149 166.054 330.748 165.911 331.418 165.911C332.443 165.911 333.239 166.157 333.804 166.649C334.373 167.141 334.658 167.836 334.658 168.734C334.658 169.226 334.531 169.727 334.275 170.238C334.02 170.748 333.583 171.343 332.963 172.022L330.7 174.408H334.979V176ZM315.04 188.536H312.472L311.983 190H310.426L313.072 182.891H314.43L317.091 190H315.533L315.04 188.536ZM312.867 187.349H314.645L313.751 184.688L312.867 187.349ZM321.441 188.135C321.441 187.859 321.344 187.647 321.148 187.5C320.953 187.351 320.602 187.194 320.094 187.032C319.586 186.866 319.184 186.703 318.888 186.543C318.08 186.107 317.677 185.52 317.677 184.781C317.677 184.397 317.784 184.055 317.999 183.755C318.217 183.453 318.528 183.217 318.932 183.047C319.339 182.878 319.794 182.793 320.299 182.793C320.807 182.793 321.259 182.886 321.656 183.072C322.053 183.254 322.361 183.513 322.579 183.848C322.8 184.183 322.911 184.564 322.911 184.991H321.446C321.446 184.665 321.344 184.413 321.139 184.234C320.934 184.052 320.646 183.96 320.274 183.96C319.916 183.96 319.638 184.037 319.439 184.19C319.241 184.34 319.142 184.538 319.142 184.786C319.142 185.017 319.257 185.21 319.488 185.367C319.723 185.523 320.066 185.669 320.519 185.806C321.352 186.057 321.959 186.368 322.34 186.739C322.721 187.11 322.911 187.572 322.911 188.125C322.911 188.741 322.678 189.224 322.213 189.576C321.747 189.924 321.121 190.098 320.333 190.098C319.786 190.098 319.288 189.999 318.839 189.8C318.39 189.598 318.046 189.323 317.809 188.975C317.574 188.627 317.457 188.223 317.457 187.764H318.927C318.927 188.549 319.396 188.941 320.333 188.941C320.681 188.941 320.953 188.871 321.148 188.731C321.344 188.588 321.441 188.389 321.441 188.135ZM325.465 190H324V182.891H325.465V190ZM328.741 182.891L330.567 188.047L332.384 182.891H334.308V190H332.838V188.057L332.984 184.703L331.065 190H330.06L328.146 184.708L328.292 188.057V190H326.827V182.891H328.741ZM337.145 190H335.68V182.891H337.145V190ZM339.972 188.824H343.082V190H338.507V182.891H339.972V188.824ZM348.038 188.536H345.47L344.981 190H343.424L346.07 182.891H347.428L350.089 190H348.531L348.038 188.536ZM345.865 187.349H347.643L346.749 184.688L345.865 187.349ZM286.222 201.632C286.166 202.397 285.883 203 285.372 203.439C284.864 203.878 284.194 204.098 283.36 204.098C282.449 204.098 281.731 203.792 281.207 203.18C280.686 202.565 280.426 201.722 280.426 200.651V200.216C280.426 199.533 280.546 198.931 280.787 198.41C281.028 197.889 281.371 197.49 281.817 197.213C282.267 196.933 282.787 196.793 283.38 196.793C284.2 196.793 284.861 197.013 285.362 197.453C285.864 197.892 286.153 198.509 286.231 199.303H284.767C284.731 198.844 284.602 198.512 284.381 198.307C284.163 198.099 283.829 197.995 283.38 197.995C282.892 197.995 282.525 198.17 282.281 198.522C282.04 198.87 281.917 199.412 281.91 200.148V200.685C281.91 201.453 282.026 202.015 282.257 202.37C282.491 202.724 282.859 202.902 283.36 202.902C283.813 202.902 284.15 202.799 284.371 202.594C284.596 202.386 284.724 202.065 284.757 201.632H286.222ZM293.023 200.607C293.023 201.307 292.9 201.92 292.652 202.448C292.405 202.975 292.05 203.382 291.588 203.668C291.129 203.955 290.602 204.098 290.006 204.098C289.417 204.098 288.891 203.957 288.429 203.673C287.966 203.39 287.608 202.986 287.354 202.462C287.101 201.935 286.972 201.33 286.969 200.646V200.294C286.969 199.595 287.094 198.979 287.345 198.449C287.599 197.915 287.955 197.506 288.414 197.223C288.876 196.937 289.404 196.793 289.996 196.793C290.589 196.793 291.114 196.937 291.573 197.223C292.035 197.506 292.392 197.915 292.643 198.449C292.896 198.979 293.023 199.593 293.023 200.29V200.607ZM291.539 200.285C291.539 199.539 291.406 198.973 291.139 198.585C290.872 198.198 290.491 198.004 289.996 198.004C289.505 198.004 289.125 198.196 288.858 198.581C288.591 198.961 288.456 199.521 288.453 200.26V200.607C288.453 201.333 288.587 201.896 288.854 202.296C289.12 202.697 289.505 202.897 290.006 202.897C290.497 202.897 290.875 202.705 291.139 202.321C291.402 201.933 291.536 201.37 291.539 200.631V200.285ZM299.869 204H298.404L295.553 199.323V204H294.088V196.891H295.553L298.409 201.579V196.891H299.869V204ZM304.835 202.135C304.835 201.859 304.737 201.647 304.542 201.5C304.347 201.351 303.995 201.194 303.487 201.032C302.979 200.866 302.577 200.703 302.281 200.543C301.474 200.107 301.07 199.52 301.07 198.781C301.07 198.397 301.178 198.055 301.393 197.755C301.611 197.453 301.922 197.217 302.325 197.047C302.732 196.878 303.188 196.793 303.692 196.793C304.2 196.793 304.653 196.886 305.05 197.072C305.447 197.254 305.755 197.513 305.973 197.848C306.194 198.183 306.305 198.564 306.305 198.991H304.84C304.84 198.665 304.737 198.413 304.532 198.234C304.327 198.052 304.039 197.96 303.668 197.96C303.31 197.96 303.032 198.037 302.833 198.19C302.634 198.34 302.535 198.538 302.535 198.786C302.535 199.017 302.651 199.21 302.882 199.367C303.116 199.523 303.46 199.669 303.912 199.806C304.745 200.057 305.353 200.368 305.733 200.739C306.114 201.11 306.305 201.572 306.305 202.125C306.305 202.741 306.072 203.224 305.606 203.576C305.141 203.924 304.514 204.098 303.727 204.098C303.18 204.098 302.682 203.999 302.232 203.8C301.783 203.598 301.44 203.323 301.202 202.975C300.968 202.627 300.851 202.223 300.851 201.764H302.32C302.32 202.549 302.789 202.941 303.727 202.941C304.075 202.941 304.347 202.871 304.542 202.731C304.737 202.588 304.835 202.389 304.835 202.135ZM312.882 201.632C312.826 202.397 312.543 203 312.032 203.439C311.524 203.878 310.854 204.098 310.021 204.098C309.109 204.098 308.391 203.792 307.867 203.18C307.346 202.565 307.086 201.722 307.086 200.651V200.216C307.086 199.533 307.206 198.931 307.447 198.41C307.688 197.889 308.032 197.49 308.478 197.213C308.927 196.933 309.448 196.793 310.04 196.793C310.86 196.793 311.521 197.013 312.022 197.453C312.524 197.892 312.813 198.509 312.892 199.303H311.427C311.391 198.844 311.262 198.512 311.041 198.307C310.823 198.099 310.489 197.995 310.04 197.995C309.552 197.995 309.186 198.17 308.941 198.522C308.701 198.87 308.577 199.412 308.57 200.148V200.685C308.57 201.453 308.686 202.015 308.917 202.37C309.151 202.724 309.519 202.902 310.021 202.902C310.473 202.902 310.81 202.799 311.031 202.594C311.256 202.386 311.384 202.065 311.417 201.632H312.882ZM315.401 204H313.937V196.891H315.401V204ZM321.041 200.919H318.229V202.824H321.529V204H316.764V196.891H321.52V198.078H318.229V199.772H321.041V200.919ZM328.17 204H326.705L323.854 199.323V204H322.389V196.891H323.854L326.71 201.579V196.891H328.17V204ZM334.654 198.078H332.477V204H331.012V198.078H328.863V196.891H334.654V198.078ZM339.771 200.919H336.959V202.824H340.26V204H335.494V196.891H340.25V198.078H336.959V199.772H339.771V200.919ZM343.033 196.891L344.859 202.047L346.676 196.891H348.6V204H347.13V202.057L347.276 198.703L345.357 204H344.352L342.438 198.708L342.584 202.057V204H341.119V196.891H343.033ZM354.156 200.919H351.344V202.824H354.645V204H349.879V196.891H354.635V198.078H351.344V199.772H354.156V200.919ZM361.285 204H359.82L356.969 199.323V204H355.504V196.891H356.969L359.825 201.579V196.891H361.285V204ZM367.77 198.078H365.592V204H364.127V198.078H361.979V196.891H367.77V198.078ZM372.887 200.919H370.074V202.824H373.375V204H368.609V196.891H373.365V198.078H370.074V199.772H372.887V200.919ZM382.564 200.607C382.564 201.307 382.441 201.92 382.193 202.448C381.946 202.975 381.591 203.382 381.129 203.668C380.67 203.955 380.143 204.098 379.547 204.098C378.958 204.098 378.432 203.957 377.97 203.673C377.507 203.39 377.149 202.986 376.896 202.462C376.642 201.935 376.513 201.33 376.51 200.646V200.294C376.51 199.595 376.635 198.979 376.886 198.449C377.14 197.915 377.496 197.506 377.955 197.223C378.417 196.937 378.945 196.793 379.537 196.793C380.13 196.793 380.655 196.937 381.114 197.223C381.576 197.506 381.933 197.915 382.184 198.449C382.438 198.979 382.564 199.593 382.564 200.29V200.607ZM381.08 200.285C381.08 199.539 380.947 198.973 380.68 198.585C380.413 198.198 380.032 198.004 379.537 198.004C379.046 198.004 378.666 198.196 378.399 198.581C378.132 198.961 377.997 199.521 377.994 200.26V200.607C377.994 201.333 378.128 201.896 378.395 202.296C378.661 202.697 379.046 202.897 379.547 202.897C380.038 202.897 380.416 202.705 380.68 202.321C380.943 201.933 381.077 201.37 381.08 200.631V200.285ZM281.905 218H280.44V210.891H281.905V218ZM289.049 218H287.584L284.732 213.323V218H283.268V210.891H284.732L287.589 215.579V210.891H289.049V218ZM295.909 215.632C295.854 216.397 295.571 217 295.06 217.439C294.552 217.878 293.881 218.098 293.048 218.098C292.136 218.098 291.419 217.792 290.895 217.18C290.374 216.565 290.113 215.722 290.113 214.651V214.216C290.113 213.533 290.234 212.931 290.475 212.41C290.715 211.889 291.059 211.49 291.505 211.213C291.954 210.933 292.475 210.793 293.067 210.793C293.888 210.793 294.549 211.013 295.05 211.453C295.551 211.892 295.841 212.509 295.919 213.303H294.454C294.418 212.844 294.29 212.512 294.068 212.307C293.85 212.099 293.517 211.995 293.067 211.995C292.579 211.995 292.213 212.17 291.969 212.522C291.728 212.87 291.604 213.412 291.598 214.148V214.685C291.598 215.453 291.713 216.015 291.944 216.37C292.179 216.724 292.547 216.902 293.048 216.902C293.5 216.902 293.837 216.799 294.059 216.594C294.283 216.386 294.412 216.065 294.444 215.632H295.909ZM302.711 214.607C302.711 215.307 302.587 215.92 302.34 216.448C302.092 216.975 301.738 217.382 301.275 217.668C300.816 217.955 300.289 218.098 299.693 218.098C299.104 218.098 298.578 217.957 298.116 217.673C297.654 217.39 297.296 216.986 297.042 216.462C296.788 215.935 296.66 215.33 296.656 214.646V214.294C296.656 213.595 296.782 212.979 297.032 212.449C297.286 211.915 297.643 211.506 298.102 211.223C298.564 210.937 299.091 210.793 299.684 210.793C300.276 210.793 300.802 210.937 301.261 211.223C301.723 211.506 302.079 211.915 302.33 212.449C302.584 212.979 302.711 213.593 302.711 214.29V214.607ZM301.227 214.285C301.227 213.539 301.093 212.973 300.826 212.585C300.559 212.198 300.178 212.004 299.684 212.004C299.192 212.004 298.813 212.196 298.546 212.581C298.279 212.961 298.144 213.521 298.141 214.26V214.607C298.141 215.333 298.274 215.896 298.541 216.296C298.808 216.697 299.192 216.897 299.693 216.897C300.185 216.897 300.562 216.705 300.826 216.321C301.09 215.933 301.223 215.37 301.227 214.631V214.285ZM309.557 218H308.092L305.24 213.323V218H303.775V210.891H305.24L308.097 215.579V210.891H309.557V218ZM314.522 216.135C314.522 215.859 314.425 215.647 314.229 215.5C314.034 215.351 313.683 215.194 313.175 215.032C312.667 214.866 312.265 214.703 311.969 214.543C311.161 214.107 310.758 213.52 310.758 212.781C310.758 212.397 310.865 212.055 311.08 211.755C311.298 211.453 311.609 211.217 312.013 211.047C312.42 210.878 312.875 210.793 313.38 210.793C313.888 210.793 314.34 210.886 314.737 211.072C315.134 211.254 315.442 211.513 315.66 211.848C315.882 212.183 315.992 212.564 315.992 212.991H314.527C314.527 212.665 314.425 212.413 314.22 212.234C314.015 212.052 313.727 211.96 313.355 211.96C312.997 211.96 312.719 212.037 312.521 212.19C312.322 212.34 312.223 212.538 312.223 212.786C312.223 213.017 312.338 213.21 312.569 213.367C312.804 213.523 313.147 213.669 313.6 213.806C314.433 214.057 315.04 214.368 315.421 214.739C315.802 215.11 315.992 215.572 315.992 216.125C315.992 216.741 315.759 217.224 315.294 217.576C314.828 217.924 314.202 218.098 313.414 218.098C312.867 218.098 312.369 217.999 311.92 217.8C311.471 217.598 311.127 217.323 310.89 216.975C310.655 216.627 310.538 216.223 310.538 215.764H312.008C312.008 216.549 312.477 216.941 313.414 216.941C313.762 216.941 314.034 216.871 314.229 216.731C314.425 216.588 314.522 216.389 314.522 216.135ZM322.569 215.632C322.514 216.397 322.231 217 321.72 217.439C321.212 217.878 320.541 218.098 319.708 218.098C318.797 218.098 318.079 217.792 317.555 217.18C317.034 216.565 316.773 215.722 316.773 214.651V214.216C316.773 213.533 316.894 212.931 317.135 212.41C317.376 211.889 317.719 211.49 318.165 211.213C318.614 210.933 319.135 210.793 319.728 210.793C320.548 210.793 321.209 211.013 321.71 211.453C322.211 211.892 322.501 212.509 322.579 213.303H321.114C321.078 212.844 320.95 212.512 320.729 212.307C320.51 212.099 320.177 211.995 319.728 211.995C319.239 211.995 318.873 212.17 318.629 212.522C318.388 212.87 318.264 213.412 318.258 214.148V214.685C318.258 215.453 318.373 216.015 318.604 216.37C318.839 216.724 319.207 216.902 319.708 216.902C320.16 216.902 320.497 216.799 320.719 216.594C320.943 216.386 321.072 216.065 321.104 215.632H322.569ZM325.089 218H323.624V210.891H325.089V218ZM330.729 214.919H327.916V216.824H331.217V218H326.451V210.891H331.207V212.078H327.916V213.772H330.729V214.919ZM337.857 218H336.393L333.541 213.323V218H332.076V210.891H333.541L336.397 215.579V210.891H337.857V218ZM344.342 212.078H342.164V218H340.699V212.078H338.551V210.891H344.342V212.078ZM349.459 214.919H346.646V216.824H349.947V218H345.182V210.891H349.938V212.078H346.646V213.772H349.459V214.919ZM352.721 210.891L354.547 216.047L356.363 210.891H358.287V218H356.817V216.057L356.964 212.703L355.045 218H354.039L352.125 212.708L352.271 216.057V218H350.807V210.891H352.721ZM363.844 214.919H361.031V216.824H364.332V218H359.566V210.891H364.322V212.078H361.031V213.772H363.844V214.919ZM370.973 218H369.508L366.656 213.323V218H365.191V210.891H366.656L369.513 215.579V210.891H370.973V218ZM377.457 212.078H375.279V218H373.814V212.078H371.666V210.891H377.457V212.078ZM382.574 214.919H379.762V216.824H383.062V218H378.297V210.891H383.053V212.078H379.762V213.772H382.574V214.919Z" fill="#60347B"/>
<path d="M617.924 170.149H618.977C619.478 170.149 619.849 170.024 620.091 169.773C620.332 169.522 620.453 169.19 620.453 168.775C620.453 168.374 620.332 168.062 620.091 167.838C619.854 167.615 619.526 167.503 619.106 167.503C618.728 167.503 618.411 167.608 618.156 167.818C617.901 168.023 617.773 168.292 617.773 168.625H615.798C615.798 168.105 615.937 167.64 616.215 167.23C616.497 166.815 616.889 166.492 617.391 166.259C617.896 166.027 618.452 165.911 619.059 165.911C620.111 165.911 620.936 166.164 621.533 166.669C622.13 167.171 622.429 167.863 622.429 168.748C622.429 169.203 622.29 169.623 622.012 170.005C621.734 170.388 621.369 170.682 620.918 170.887C621.479 171.088 621.896 171.389 622.169 171.79C622.447 172.191 622.586 172.665 622.586 173.211C622.586 174.096 622.262 174.804 621.615 175.337C620.973 175.871 620.12 176.137 619.059 176.137C618.065 176.137 617.252 175.875 616.618 175.351C615.989 174.827 615.675 174.134 615.675 173.273H617.65C617.65 173.647 617.789 173.952 618.067 174.189C618.35 174.426 618.696 174.544 619.106 174.544C619.576 174.544 619.943 174.421 620.207 174.175C620.476 173.925 620.61 173.594 620.61 173.184C620.61 172.191 620.063 171.694 618.97 171.694H617.924V170.149ZM557.426 188.536H554.857L554.369 190H552.812L555.458 182.891H556.815L559.477 190H557.919L557.426 188.536ZM555.253 187.349H557.03L556.137 184.688L555.253 187.349ZM561.605 187.496V190H560.141V182.891H562.914C563.448 182.891 563.917 182.989 564.32 183.184C564.727 183.379 565.04 183.658 565.258 184.019C565.476 184.377 565.585 184.786 565.585 185.245C565.585 185.941 565.346 186.491 564.867 186.895C564.392 187.295 563.733 187.496 562.89 187.496H561.605ZM561.605 186.309H562.914C563.301 186.309 563.596 186.218 563.798 186.036C564.003 185.853 564.105 185.593 564.105 185.254C564.105 184.906 564.003 184.625 563.798 184.41C563.593 184.195 563.31 184.084 562.948 184.078H561.605V186.309ZM568.061 188.824H571.171V190H566.596V182.891H568.061V188.824ZM573.573 190H572.108V182.891H573.573V190ZM580.517 187.632C580.461 188.397 580.178 189 579.667 189.439C579.159 189.878 578.489 190.098 577.655 190.098C576.744 190.098 576.026 189.792 575.502 189.18C574.981 188.565 574.721 187.722 574.721 186.651V186.216C574.721 185.533 574.841 184.931 575.082 184.41C575.323 183.889 575.666 183.49 576.112 183.213C576.562 182.933 577.082 182.793 577.675 182.793C578.495 182.793 579.156 183.013 579.657 183.453C580.159 183.892 580.448 184.509 580.526 185.303H579.062C579.026 184.844 578.897 184.512 578.676 184.307C578.458 184.099 578.124 183.995 577.675 183.995C577.187 183.995 576.82 184.17 576.576 184.522C576.335 184.87 576.212 185.412 576.205 186.148V186.685C576.205 187.453 576.321 188.015 576.552 188.37C576.786 188.724 577.154 188.902 577.655 188.902C578.108 188.902 578.445 188.799 578.666 188.594C578.891 188.386 579.019 188.065 579.052 187.632H580.517ZM585.492 188.536H582.924L582.436 190H580.878L583.524 182.891H584.882L587.543 190H585.985L585.492 188.536ZM583.319 187.349H585.097L584.203 184.688L583.319 187.349ZM594.711 188.536H592.143L591.654 190H590.097L592.743 182.891H594.101L596.762 190H595.204L594.711 188.536ZM592.538 187.349H594.315L593.422 184.688L592.538 187.349ZM602.719 182.891V187.574C602.719 188.352 602.475 188.967 601.986 189.419C601.501 189.872 600.837 190.098 599.994 190.098C599.164 190.098 598.505 189.878 598.017 189.439C597.528 189 597.279 188.396 597.27 187.627V182.891H598.734V187.583C598.734 188.049 598.845 188.389 599.066 188.604C599.291 188.816 599.6 188.921 599.994 188.921C600.818 188.921 601.236 188.488 601.249 187.623V182.891H602.719ZM609.271 184.078H607.094V190H605.629V184.078H603.48V182.891H609.271V184.078ZM615.814 186.607C615.814 187.307 615.691 187.92 615.443 188.448C615.196 188.975 614.841 189.382 614.379 189.668C613.92 189.955 613.393 190.098 612.797 190.098C612.208 190.098 611.682 189.957 611.22 189.673C610.757 189.39 610.399 188.986 610.146 188.462C609.892 187.935 609.763 187.33 609.76 186.646V186.294C609.76 185.595 609.885 184.979 610.136 184.449C610.39 183.915 610.746 183.506 611.205 183.223C611.667 182.937 612.195 182.793 612.787 182.793C613.38 182.793 613.905 182.937 614.364 183.223C614.826 183.506 615.183 183.915 615.434 184.449C615.688 184.979 615.814 185.593 615.814 186.29V186.607ZM614.33 186.285C614.33 185.539 614.197 184.973 613.93 184.585C613.663 184.198 613.282 184.004 612.787 184.004C612.296 184.004 611.916 184.196 611.649 184.581C611.382 184.961 611.247 185.521 611.244 186.26V186.607C611.244 187.333 611.378 187.896 611.645 188.296C611.911 188.697 612.296 188.897 612.797 188.897C613.288 188.897 613.666 188.705 613.93 188.321C614.193 187.933 614.327 187.37 614.33 186.631V186.285ZM618.793 182.891L620.619 188.047L622.436 182.891H624.359V190H622.89V188.057L623.036 184.703L621.117 190H620.111L618.197 184.708L618.344 188.057V190H616.879V182.891H618.793ZM629.74 188.536H627.172L626.684 190H625.126L627.772 182.891H629.13L631.791 190H630.233L629.74 188.536ZM627.567 187.349H629.345L628.451 184.688L627.567 187.349ZM637.221 184.078H635.043V190H633.578V184.078H631.43V182.891H637.221V184.078ZM639.618 190H638.153V182.891H639.618V190ZM646.562 187.632C646.506 188.397 646.223 189 645.712 189.439C645.204 189.878 644.534 190.098 643.7 190.098C642.789 190.098 642.071 189.792 641.547 189.18C641.026 188.565 640.766 187.722 640.766 186.651V186.216C640.766 185.533 640.886 184.931 641.127 184.41C641.368 183.889 641.711 183.49 642.157 183.213C642.606 182.933 643.127 182.793 643.72 182.793C644.54 182.793 645.201 183.013 645.702 183.453C646.203 183.892 646.493 184.509 646.571 185.303H645.106C645.071 184.844 644.942 184.512 644.721 184.307C644.503 184.099 644.169 183.995 643.72 183.995C643.231 183.995 642.865 184.17 642.621 184.522C642.38 184.87 642.257 185.412 642.25 186.148V186.685C642.25 187.453 642.366 188.015 642.597 188.37C642.831 188.724 643.199 188.902 643.7 188.902C644.153 188.902 644.49 188.799 644.711 188.594C644.936 188.386 645.064 188.065 645.097 187.632H646.562ZM651.537 188.536H648.969L648.48 190H646.923L649.569 182.891H650.927L653.588 190H652.03L651.537 188.536ZM649.364 187.349H651.142L650.248 184.688L649.364 187.349ZM656.166 182.891L657.992 188.047L659.809 182.891H661.732V190H660.263V188.057L660.409 184.703L658.49 190H657.484L655.57 184.708L655.717 188.057V190H654.252V182.891H656.166ZM667.289 186.919H664.477V188.824H667.777V190H663.012V182.891H667.768V184.078H664.477V185.772H667.289V186.919ZM674.418 190H672.953L670.102 185.323V190H668.637V182.891H670.102L672.958 187.579V182.891H674.418V190ZM680.902 184.078H678.725V190H677.26V184.078H675.111V182.891H680.902V184.078ZM686.02 186.919H683.207V188.824H686.508V190H681.742V182.891H686.498V184.078H683.207V185.772H686.02V186.919ZM589.281 202.824H592.392V204H587.816V196.891H589.281V202.824ZM598.764 200.607C598.764 201.307 598.64 201.92 598.393 202.448C598.145 202.975 597.79 203.382 597.328 203.668C596.869 203.955 596.342 204.098 595.746 204.098C595.157 204.098 594.631 203.957 594.169 203.673C593.707 203.39 593.349 202.986 593.095 202.462C592.841 201.935 592.712 201.33 592.709 200.646V200.294C592.709 199.595 592.834 198.979 593.085 198.449C593.339 197.915 593.695 197.506 594.154 197.223C594.617 196.937 595.144 196.793 595.736 196.793C596.329 196.793 596.854 196.937 597.313 197.223C597.776 197.506 598.132 197.915 598.383 198.449C598.637 198.979 598.764 199.593 598.764 200.29V200.607ZM597.279 200.285C597.279 199.539 597.146 198.973 596.879 198.585C596.612 198.198 596.231 198.004 595.736 198.004C595.245 198.004 594.866 198.196 594.599 198.581C594.332 198.961 594.197 199.521 594.193 200.26V200.607C594.193 201.333 594.327 201.896 594.594 202.296C594.861 202.697 595.245 202.897 595.746 202.897C596.238 202.897 596.615 202.705 596.879 202.321C597.143 201.933 597.276 201.37 597.279 200.631V200.285ZM606.332 202.536H603.764L603.275 204H601.718L604.364 196.891H605.722L608.383 204H606.825L606.332 202.536ZM604.159 201.349H605.937L605.043 198.688L604.159 201.349ZM612.733 202.135C612.733 201.859 612.636 201.647 612.44 201.5C612.245 201.351 611.894 201.194 611.386 201.032C610.878 200.866 610.476 200.703 610.18 200.543C609.372 200.107 608.969 199.52 608.969 198.781C608.969 198.397 609.076 198.055 609.291 197.755C609.509 197.453 609.82 197.217 610.224 197.047C610.631 196.878 611.086 196.793 611.591 196.793C612.099 196.793 612.551 196.886 612.948 197.072C613.345 197.254 613.653 197.513 613.871 197.848C614.092 198.183 614.203 198.564 614.203 198.991H612.738C612.738 198.665 612.636 198.413 612.431 198.234C612.226 198.052 611.938 197.96 611.566 197.96C611.208 197.96 610.93 198.037 610.731 198.19C610.533 198.34 610.434 198.538 610.434 198.786C610.434 199.017 610.549 199.21 610.78 199.367C611.015 199.523 611.358 199.669 611.811 199.806C612.644 200.057 613.251 200.368 613.632 200.739C614.013 201.11 614.203 201.572 614.203 202.125C614.203 202.741 613.97 203.224 613.505 203.576C613.039 203.924 612.413 204.098 611.625 204.098C611.078 204.098 610.58 203.999 610.131 203.8C609.682 203.598 609.338 203.323 609.101 202.975C608.866 202.627 608.749 202.223 608.749 201.764H610.219C610.219 202.549 610.688 202.941 611.625 202.941C611.973 202.941 612.245 202.871 612.44 202.731C612.636 202.588 612.733 202.389 612.733 202.135ZM616.757 204H615.292V196.891H616.757V204ZM620.033 196.891L621.859 202.047L623.676 196.891H625.6V204H624.13V202.057L624.276 198.703L622.357 204H621.352L619.438 198.708L619.584 202.057V204H618.119V196.891H620.033ZM628.437 204H626.972V196.891H628.437V204ZM631.264 202.824H634.374V204H629.799V196.891H631.264V202.824ZM639.33 202.536H636.762L636.273 204H634.716L637.362 196.891H638.72L641.381 204H639.823L639.33 202.536ZM637.157 201.349H638.935L638.041 198.688L637.157 201.349ZM642.045 204V196.891H644.232C644.857 196.891 645.416 197.033 645.907 197.316C646.402 197.596 646.788 197.996 647.064 198.517C647.341 199.035 647.479 199.624 647.479 200.285V200.612C647.479 201.273 647.343 201.86 647.069 202.375C646.799 202.889 646.417 203.288 645.922 203.571C645.427 203.854 644.869 203.997 644.247 204H642.045ZM643.51 198.078V202.824H644.218C644.791 202.824 645.229 202.637 645.531 202.262C645.834 201.888 645.989 201.352 645.995 200.656V200.28C645.995 199.557 645.845 199.01 645.546 198.639C645.246 198.265 644.809 198.078 644.232 198.078H643.51ZM654.389 200.607C654.389 201.307 654.265 201.92 654.018 202.448C653.77 202.975 653.415 203.382 652.953 203.668C652.494 203.955 651.967 204.098 651.371 204.098C650.782 204.098 650.256 203.957 649.794 203.673C649.332 203.39 648.974 202.986 648.72 202.462C648.466 201.935 648.337 201.33 648.334 200.646V200.294C648.334 199.595 648.459 198.979 648.71 198.449C648.964 197.915 649.32 197.506 649.779 197.223C650.242 196.937 650.769 196.793 651.361 196.793C651.954 196.793 652.479 196.937 652.938 197.223C653.401 197.506 653.757 197.915 654.008 198.449C654.262 198.979 654.389 199.593 654.389 200.29V200.607ZM652.904 200.285C652.904 199.539 652.771 198.973 652.504 198.585C652.237 198.198 651.856 198.004 651.361 198.004C650.87 198.004 650.491 198.196 650.224 198.581C649.957 198.961 649.822 199.521 649.818 200.26V200.607C649.818 201.333 649.952 201.896 650.219 202.296C650.486 202.697 650.87 202.897 651.371 202.897C651.863 202.897 652.24 202.705 652.504 202.321C652.768 201.933 652.901 201.37 652.904 200.631V200.285Z" fill="#60347B"/>
<path d="M179.688 19.9497H176.093L175.409 22.0005H173.229L176.934 12.0474H178.834L182.56 22.0005H180.379L179.688 19.9497ZM176.646 18.2886H179.135L177.884 14.563L176.646 18.2886ZM188.65 19.3892C188.65 19.0018 188.514 18.7056 188.24 18.5005C187.967 18.2909 187.475 18.0721 186.764 17.8442C186.053 17.6118 185.49 17.384 185.075 17.1606C183.945 16.55 183.38 15.7274 183.38 14.6929C183.38 14.1551 183.53 13.6766 183.831 13.2573C184.136 12.8335 184.572 12.5031 185.137 12.2661C185.706 12.0291 186.344 11.9106 187.051 11.9106C187.762 11.9106 188.395 12.0405 188.951 12.3003C189.507 12.5555 189.938 12.9178 190.243 13.3872C190.553 13.8566 190.708 14.3898 190.708 14.9868H188.657C188.657 14.5311 188.514 14.1779 188.227 13.9272C187.939 13.672 187.536 13.5444 187.017 13.5444C186.515 13.5444 186.126 13.6515 185.848 13.8657C185.57 14.0754 185.431 14.3534 185.431 14.6997C185.431 15.0233 185.592 15.2944 185.916 15.5132C186.244 15.7319 186.725 15.937 187.358 16.1284C188.525 16.4793 189.375 16.9146 189.908 17.4341C190.441 17.9536 190.708 18.6007 190.708 19.3755C190.708 20.2368 190.382 20.9136 189.73 21.4058C189.079 21.8934 188.201 22.1372 187.099 22.1372C186.333 22.1372 185.636 21.9982 185.007 21.7202C184.378 21.4377 183.897 21.0526 183.564 20.5649C183.236 20.0773 183.072 19.5122 183.072 18.8696H185.13C185.13 19.9679 185.786 20.5171 187.099 20.5171C187.586 20.5171 187.967 20.4191 188.24 20.2231C188.514 20.0226 188.65 19.7446 188.65 19.3892ZM194.283 22.0005H192.232V12.0474H194.283V22.0005ZM198.87 12.0474L201.427 19.2661L203.97 12.0474H206.663V22.0005H204.605V19.2798L204.811 14.5835L202.124 22.0005H200.716L198.036 14.5903L198.241 19.2798V22.0005H196.19V12.0474H198.87ZM210.635 22.0005H208.584V12.0474H210.635V22.0005ZM214.593 20.353H218.947V22.0005H212.542V12.0474H214.593V20.353ZM225.886 19.9497H222.29L221.606 22.0005H219.426L223.131 12.0474H225.031L228.757 22.0005H226.576L225.886 19.9497ZM222.844 18.2886H225.332L224.081 14.563L222.844 18.2886ZM237.35 18.6851C237.272 19.756 236.876 20.5991 236.16 21.2144C235.449 21.8296 234.51 22.1372 233.344 22.1372C232.068 22.1372 231.063 21.7088 230.329 20.8521C229.6 19.9907 229.235 18.8104 229.235 17.311V16.7026C229.235 15.7456 229.404 14.9025 229.741 14.1733C230.078 13.4442 230.559 12.8859 231.184 12.4985C231.812 12.1066 232.542 11.9106 233.371 11.9106C234.52 11.9106 235.445 12.2183 236.146 12.8335C236.848 13.4487 237.254 14.3123 237.363 15.4243H235.312C235.262 14.7817 235.082 14.3169 234.772 14.0298C234.467 13.7381 234 13.5923 233.371 13.5923C232.688 13.5923 232.175 13.8384 231.833 14.3306C231.496 14.8182 231.323 15.577 231.313 16.6069V17.3589C231.313 18.4344 231.475 19.2205 231.799 19.7173C232.127 20.214 232.642 20.4624 233.344 20.4624C233.977 20.4624 234.449 20.3188 234.759 20.0317C235.073 19.7401 235.253 19.2912 235.299 18.6851H237.35ZM240.877 22.0005H238.826V12.0474H240.877V22.0005ZM250.96 17.2495C250.96 18.2293 250.787 19.0884 250.44 19.8267C250.094 20.5649 249.597 21.1346 248.95 21.5356C248.308 21.9367 247.569 22.1372 246.735 22.1372C245.91 22.1372 245.174 21.939 244.527 21.5425C243.88 21.146 243.379 20.5809 243.023 19.8472C242.668 19.1089 242.488 18.2612 242.483 17.3042V16.812C242.483 15.8322 242.659 14.9709 243.01 14.228C243.365 13.4806 243.864 12.9087 244.507 12.5122C245.154 12.1112 245.892 11.9106 246.722 11.9106C247.551 11.9106 248.287 12.1112 248.93 12.5122C249.577 12.9087 250.076 13.4806 250.427 14.228C250.782 14.9709 250.96 15.8299 250.96 16.8052V17.2495ZM248.882 16.7983C248.882 15.7547 248.695 14.9618 248.321 14.4194C247.948 13.8771 247.414 13.606 246.722 13.606C246.034 13.606 245.503 13.8748 245.129 14.4126C244.755 14.9458 244.566 15.7297 244.562 16.7642V17.2495C244.562 18.2658 244.748 19.0542 245.122 19.6147C245.496 20.1753 246.034 20.4556 246.735 20.4556C247.424 20.4556 247.952 20.1867 248.321 19.6489C248.69 19.1066 248.877 18.3182 248.882 17.2837V16.7983ZM260.544 22.0005H258.493L254.501 15.4517V22.0005H252.45V12.0474H254.501L258.5 18.6099V12.0474H260.544V22.0005ZM273.915 22.0005H271.864L267.872 15.4517V22.0005H265.821V12.0474H267.872L271.871 18.6099V12.0474H273.915V22.0005ZM283.882 17.2495C283.882 18.2293 283.709 19.0884 283.362 19.8267C283.016 20.5649 282.519 21.1346 281.872 21.5356C281.229 21.9367 280.491 22.1372 279.657 22.1372C278.832 22.1372 278.096 21.939 277.449 21.5425C276.802 21.146 276.301 20.5809 275.945 19.8472C275.59 19.1089 275.41 18.2612 275.405 17.3042V16.812C275.405 15.8322 275.581 14.9709 275.932 14.228C276.287 13.4806 276.786 12.9087 277.429 12.5122C278.076 12.1112 278.814 11.9106 279.644 11.9106C280.473 11.9106 281.209 12.1112 281.852 12.5122C282.499 12.9087 282.998 13.4806 283.349 14.228C283.704 14.9709 283.882 15.8299 283.882 16.8052V17.2495ZM281.804 16.7983C281.804 15.7547 281.617 14.9618 281.243 14.4194C280.869 13.8771 280.336 13.606 279.644 13.606C278.955 13.606 278.424 13.8748 278.051 14.4126C277.677 14.9458 277.488 15.7297 277.483 16.7642V17.2495C277.483 18.2658 277.67 19.0542 278.044 19.6147C278.418 20.1753 278.955 20.4556 279.657 20.4556C280.345 20.4556 280.874 20.1867 281.243 19.6489C281.612 19.1066 281.799 18.3182 281.804 17.2837V16.7983ZM289.057 18.3569H287.423V22.0005H285.372V12.0474H289.07C290.246 12.0474 291.153 12.3094 291.791 12.8335C292.429 13.3576 292.748 14.0981 292.748 15.0552C292.748 15.7342 292.6 16.3016 292.304 16.7573C292.012 17.2085 291.568 17.5685 290.971 17.8374L293.124 21.9048V22.0005H290.923L289.057 18.3569ZM287.423 16.6958H289.077C289.592 16.6958 289.991 16.5659 290.273 16.3062C290.556 16.0418 290.697 15.6795 290.697 15.2192C290.697 14.7498 290.563 14.3807 290.294 14.1118C290.03 13.8429 289.622 13.7085 289.07 13.7085H287.423V16.6958ZM296.993 12.0474L299.55 19.2661L302.093 12.0474H304.786V22.0005H302.729V19.2798L302.934 14.5835L300.247 22.0005H298.839L296.159 14.5903L296.364 19.2798V22.0005H294.313V12.0474H296.993ZM312.319 19.9497H308.724L308.04 22.0005H305.859L309.564 12.0474H311.465L315.19 22.0005H313.01L312.319 19.9497ZM309.277 18.2886H311.766L310.515 14.563L309.277 18.2886ZM318.171 20.353H322.525V22.0005H316.12V12.0474H318.171V20.353Z" fill="#60347B"/>
<path d="M10.293 136.735C11.1953 136.84 11.8926 137.174 12.3848 137.737C12.873 138.295 13.1172 139.04 13.1172 139.969C13.1172 140.977 12.7559 141.786 12.0332 142.395C11.3105 143 10.3438 143.303 9.13281 143.303H8.3125C7.51953 143.303 6.82227 143.163 6.2207 142.881C5.61914 142.596 5.1582 142.194 4.83789 141.674C4.51367 141.155 4.35156 140.553 4.35156 139.87C4.35156 138.963 4.60547 138.237 5.11328 137.69C5.61719 137.143 6.31641 136.825 7.21094 136.735L7.21094 137.866C6.53125 137.963 6.03906 138.176 5.73438 138.504C5.42969 138.829 5.27734 139.284 5.27734 139.87C5.27734 140.588 5.54297 141.153 6.07422 141.563C6.60547 141.969 7.36133 142.172 8.3418 142.172H9.16797C10.0938 142.172 10.8301 141.979 11.377 141.592C11.9238 141.206 12.1973 140.665 12.1973 139.969C12.1973 139.344 12.0566 138.866 11.7754 138.534C11.4902 138.198 10.9961 137.975 10.293 137.866V136.735ZM13 133.987V135.112H4.46875V133.987H13ZM10.293 125.649C11.1953 125.754 11.8926 126.088 12.3848 126.651C12.873 127.209 13.1172 127.954 13.1172 128.883C13.1172 129.891 12.7559 130.7 12.0332 131.309C11.3105 131.915 10.3438 132.217 9.13281 132.217H8.3125C7.51953 132.217 6.82227 132.077 6.2207 131.795C5.61914 131.51 5.1582 131.108 4.83789 130.588C4.51367 130.069 4.35156 129.467 4.35156 128.784C4.35156 127.877 4.60547 127.151 5.11328 126.604C5.61719 126.057 6.31641 125.739 7.21094 125.649V126.78C6.53125 126.877 6.03906 127.09 5.73438 127.418C5.42969 127.743 5.27734 128.198 5.27734 128.784C5.27734 129.502 5.54297 130.067 6.07422 130.477C6.60547 130.883 7.36133 131.086 8.3418 131.086H9.16797C10.0938 131.086 10.8301 130.893 11.377 130.506C11.9238 130.12 12.1973 129.579 12.1973 128.883C12.1973 128.258 12.0566 127.78 11.7754 127.448C11.4902 127.112 10.9961 126.889 10.293 126.78V125.649ZM12.0801 122.977V118.934H13V124.108H4.46875V122.977H12.0801ZM9.00977 111.475C9.8457 111.475 10.5762 111.616 11.2012 111.897C11.8223 112.178 12.2969 112.577 12.625 113.092C12.9531 113.608 13.1172 114.209 13.1172 114.897C13.1172 115.569 12.9531 116.165 12.625 116.684C12.293 117.204 11.8223 117.608 11.2129 117.897C10.5996 118.182 9.89063 118.329 9.08594 118.336H8.4707C7.65039 118.336 6.92578 118.194 6.29688 117.909C5.66797 117.624 5.1875 117.221 4.85547 116.702C4.51953 116.178 4.35156 115.581 4.35156 114.909C4.35156 114.225 4.51758 113.624 4.84961 113.104C5.17773 112.581 5.65625 112.178 6.28516 111.897C6.91016 111.616 7.63867 111.475 8.4707 111.475H9.00977ZM8.45898 112.594C7.44727 112.594 6.67188 112.797 6.13281 113.204C5.58984 113.61 5.31836 114.178 5.31836 114.909C5.31836 115.62 5.58984 116.18 6.13281 116.59C6.67188 116.997 7.42188 117.206 8.38281 117.217H9.00977C9.99023 117.217 10.7617 117.012 11.3242 116.602C11.8828 116.188 12.1621 115.62 12.1621 114.897C12.1621 114.17 11.8984 113.608 11.3711 113.209C10.8398 112.811 10.0801 112.606 9.0918 112.594H8.45898ZM13 106.811H4.46875V104.403C4.46875 103.661 4.63281 103.004 4.96094 102.434C5.28906 101.864 5.75586 101.424 6.36133 101.116C6.9668 100.803 7.66211 100.645 8.44727 100.641H8.99219C9.79688 100.641 10.502 100.797 11.1074 101.11C11.7129 101.418 12.1777 101.862 12.502 102.44C12.8262 103.014 12.9922 103.684 13 104.45V106.811ZM5.39453 105.686H12.0801V104.502C12.0801 103.635 11.8105 102.961 11.2715 102.481C10.7324 101.997 9.96484 101.754 8.96875 101.754H8.4707C7.50195 101.754 6.75 101.983 6.21484 102.44C5.67578 102.893 5.40234 103.538 5.39453 104.374V105.686ZM9.05664 94.1138V97.811H12.0801V93.5161H13V98.936H4.46875V93.5747H5.39453V97.811H8.13672V94.1138H9.05664ZM10.293 82.8638C11.1953 82.9692 11.8926 83.3032 12.3848 83.8657C12.873 84.4243 13.1172 85.1685 13.1172 86.0981C13.1172 87.106 12.7559 87.9146 12.0332 88.5239C11.3105 89.1294 10.3438 89.4321 9.13281 89.4321H8.3125C7.51953 89.4321 6.82227 89.2915 6.2207 89.0103C5.61914 88.7251 5.1582 88.3228 4.83789 87.8032C4.51367 87.2837 4.35156 86.6821 4.35156 85.9985C4.35156 85.0923 4.60547 84.3657 5.11328 83.8188C5.61719 83.272 6.31641 82.9536 7.21094 82.8638V83.9946C6.53125 84.0923 6.03906 84.3052 5.73438 84.6333C5.42969 84.9575 5.27734 85.4126 5.27734 85.9985C5.27734 86.7173 5.54297 87.2817 6.07422 87.6919C6.60547 88.0981 7.36133 88.3013 8.3418 88.3013H9.16797C10.0938 88.3013 10.8301 88.1079 11.377 87.7212C11.9238 87.3345 12.1973 86.7935 12.1973 86.0981C12.1973 85.4731 12.0566 84.9946 11.7754 84.6626C11.4902 84.3267 10.9961 84.104 10.293 83.9946V82.8638ZM9.05664 76.5005V80.1978H12.0801V75.9028H13V81.3228H4.46875L4.46875 75.9614H5.39453L5.39453 80.1978H8.13672V76.5005H9.05664ZM9.54883 71.3735L9.54883 73.3774H13V74.5083H4.46875V71.6841C4.46875 70.7231 4.6875 69.9849 5.125 69.4692C5.5625 68.9497 6.19922 68.6899 7.03516 68.6899C7.56641 68.6899 8.0293 68.8345 8.42383 69.1235C8.81836 69.4087 9.11328 69.8071 9.30859 70.3188L12.9297 68.3149H13V69.522L9.54883 71.3735ZM8.62891 73.3774V71.6489C8.62891 71.0903 8.48438 70.647 8.19531 70.3188C7.90625 69.9868 7.51953 69.8208 7.03516 69.8208C6.50781 69.8208 6.10352 69.979 5.82227 70.2954C5.54102 70.6079 5.39844 71.061 5.39453 71.6548V73.3774H8.62891ZM9.05664 62.2856V65.9829H12.0801V61.688H13V67.1079H4.46875L4.46875 61.7466H5.39453L5.39453 65.9829H8.13672V62.2856H9.05664ZM13 60.2876H4.46875V57.4985C4.46875 56.5728 4.66016 55.8774 5.04297 55.4126C5.42578 54.9438 5.99219 54.7095 6.74219 54.7095C7.14063 54.7095 7.49414 54.8228 7.80273 55.0493C8.10742 55.2759 8.34375 55.5845 8.51172 55.9751C8.64063 55.5142 8.88672 55.1509 9.25 54.8853C9.60938 54.6157 10.0391 54.481 10.5391 54.481C11.3047 54.481 11.9063 54.729 12.3438 55.2251C12.7813 55.7212 13 56.4224 13 57.3286V60.2876ZM9.00977 59.1626H12.0801V57.3052C12.0801 56.7817 11.9453 56.3696 11.6758 56.0688C11.4023 55.7642 11.0273 55.6118 10.5508 55.6118C9.52344 55.6118 9.00977 56.1704 9.00977 57.2876V59.1626ZM8.10742 59.1626V57.4634C8.10742 56.9712 7.98438 56.5786 7.73828 56.2856C7.49219 55.9888 7.1582 55.8403 6.73633 55.8403C6.26758 55.8403 5.92773 55.9771 5.7168 56.2505C5.50195 56.5239 5.39453 56.9399 5.39453 57.4985V59.1626H8.10742ZM9.54883 49.6821V51.686H13V52.8169H4.46875V49.9927C4.46875 49.0317 4.6875 48.2935 5.125 47.7778C5.5625 47.2583 6.19922 46.9985 7.03516 46.9985C7.56641 46.9985 8.0293 47.1431 8.42383 47.4321C8.81836 47.7173 9.11328 48.1157 9.30859 48.6274L12.9297 46.6235H13V47.8306L9.54883 49.6821ZM8.62891 51.686V49.9575C8.62891 49.3989 8.48438 48.9556 8.19531 48.6274C7.90625 48.2954 7.51953 48.1294 7.03516 48.1294C6.50781 48.1294 6.10352 48.2876 5.82227 48.604C5.54102 48.9165 5.39844 49.3696 5.39453 49.9634V51.686H8.62891ZM9.00977 38.854C9.8457 38.854 10.5762 38.9946 11.2012 39.2759C11.8223 39.5571 12.2969 39.9556 12.625 40.4712C12.9531 40.9868 13.1172 41.5884 13.1172 42.2759C13.1172 42.9478 12.9531 43.5435 12.625 44.063C12.293 44.5825 11.8223 44.9868 11.2129 45.2759C10.5996 45.561 9.89063 45.7075 9.08594 45.7153H8.4707C7.65039 45.7153 6.92578 45.5728 6.29688 45.2876C5.66797 45.0024 5.1875 44.6001 4.85547 44.0806C4.51953 43.5571 4.35156 42.9595 4.35156 42.2876C4.35156 41.604 4.51758 41.0024 4.84961 40.4829C5.17773 39.9595 5.65625 39.5571 6.28516 39.2759C6.91016 38.9946 7.63867 38.854 8.4707 38.854H9.00977ZM8.45898 39.9731C7.44727 39.9731 6.67188 40.1763 6.13281 40.5825C5.58984 40.9888 5.31836 41.5571 5.31836 42.2876C5.31836 42.9985 5.58984 43.5591 6.13281 43.9692C6.67188 44.3755 7.42188 44.5845 8.38281 44.5962H9.00977C9.99023 44.5962 10.7617 44.3911 11.3242 43.981C11.8828 43.5669 12.1621 42.9985 12.1621 42.2759C12.1621 41.5493 11.8984 40.9868 11.3711 40.5884C10.8398 40.1899 10.0801 39.9849 9.0918 39.9731H8.45898ZM27.293 136.735C28.1953 136.84 28.8926 137.174 29.3848 137.737C29.873 138.295 30.1172 139.04 30.1172 139.969C30.1172 140.977 29.7559 141.786 29.0332 142.395C28.3105 143 27.3438 143.303 26.1328 143.303H25.3125C24.5195 143.303 23.8223 143.163 23.2207 142.881C22.6191 142.596 22.1582 142.194 21.8379 141.674C21.5137 141.155 21.3516 140.553 21.3516 139.87C21.3516 138.963 21.6055 138.237 22.1133 137.69C22.6172 137.143 23.3164 136.825 24.2109 136.735V137.866C23.5312 137.963 23.0391 138.176 22.7344 138.504C22.4297 138.829 22.2773 139.284 22.2773 139.87C22.2773 140.588 22.543 141.153 23.0742 141.563C23.6055 141.969 24.3613 142.172 25.3418 142.172H26.168C27.0938 142.172 27.8301 141.979 28.377 141.592C28.9238 141.206 29.1973 140.665 29.1973 139.969C29.1973 139.344 29.0566 138.866 28.7754 138.534C28.4902 138.198 27.9961 137.975 27.293 137.866V136.735ZM26.0098 128.631C26.8457 128.631 27.5762 128.772 28.2012 129.053C28.8223 129.334 29.2969 129.733 29.625 130.249C29.9531 130.764 30.1172 131.366 30.1172 132.053C30.1172 132.725 29.9531 133.321 29.625 133.84C29.293 134.36 28.8223 134.764 28.2129 135.053C27.5996 135.338 26.8906 135.485 26.0859 135.493H25.4707C24.6504 135.493 23.9258 135.35 23.2969 135.065C22.668 134.78 22.1875 134.377 21.8555 133.858C21.5195 133.334 21.3516 132.737 21.3516 132.065C21.3516 131.381 21.5176 130.78 21.8496 130.26C22.1777 129.737 22.6562 129.334 23.2852 129.053C23.9102 128.772 24.6387 128.631 25.4707 128.631H26.0098ZM25.459 129.75C24.4473 129.75 23.6719 129.954 23.1328 130.36C22.5898 130.766 22.3184 131.334 22.3184 132.065C22.3184 132.776 22.5898 133.336 23.1328 133.747C23.6719 134.153 24.4219 134.362 25.3828 134.374H26.0098C26.9902 134.374 27.7617 134.168 28.3242 133.758C28.8828 133.344 29.1621 132.776 29.1621 132.053C29.1621 131.327 28.8984 130.764 28.3711 130.366C27.8398 129.967 27.0801 129.762 26.0918 129.75H25.459ZM30 120.387V121.518L23.4258 125.813H30V126.944H21.4688V125.813L28.0723 121.506H21.4688V120.387H30ZM26.2324 113.684L26.2324 117.264H30V118.389H21.4688L21.4688 113.104H22.3945L22.3945 117.264H25.3125L25.3125 113.684H26.2324ZM26.0098 105.194C26.8457 105.194 27.5762 105.334 28.2012 105.616C28.8223 105.897 29.2969 106.295 29.625 106.811C29.9531 107.327 30.1172 107.928 30.1172 108.616C30.1172 109.288 29.9531 109.883 29.625 110.403C29.293 110.922 28.8223 111.327 28.2129 111.616C27.5996 111.901 26.8906 112.047 26.0859 112.055H25.4707C24.6504 112.055 23.9258 111.913 23.2969 111.627C22.668 111.342 22.1875 110.94 21.8555 110.42C21.5195 109.897 21.3516 109.299 21.3516 108.627C21.3516 107.944 21.5176 107.342 21.8496 106.823C22.1777 106.299 22.6563 105.897 23.2852 105.616C23.9102 105.334 24.6387 105.194 25.4707 105.194H26.0098ZM25.459 106.313C24.4473 106.313 23.6719 106.516 23.1328 106.922C22.5898 107.329 22.3184 107.897 22.3184 108.627C22.3184 109.338 22.5898 109.899 23.1328 110.309C23.6719 110.715 24.4219 110.924 25.3828 110.936H26.0098C26.9902 110.936 27.7617 110.731 28.3242 110.321C28.8828 109.907 29.1621 109.338 29.1621 108.616C29.1621 107.889 28.8984 107.327 28.3711 106.928C27.8398 106.53 27.0801 106.325 26.0918 106.313H25.459ZM26.5488 100.377V102.381H30V103.512H21.4688V100.688C21.4688 99.7271 21.6875 98.9888 22.125 98.4731C22.5625 97.9536 23.1992 97.6938 24.0352 97.6938C24.5664 97.6938 25.0293 97.8384 25.4238 98.1274C25.8184 98.4126 26.1133 98.811 26.3086 99.3228L29.9297 97.3188H30V98.5259L26.5488 100.377ZM25.6289 102.381V100.653C25.6289 100.094 25.4844 99.6509 25.1953 99.3228C24.9063 98.9907 24.5195 98.8247 24.0352 98.8247C23.5078 98.8247 23.1035 98.9829 22.8223 99.2993C22.541 99.6118 22.3984 100.065 22.3945 100.659V102.381H25.6289ZM22.3945 90.686V93.4282H30V94.5474H22.3945V97.2837H21.4688V90.686H22.3945ZM27.7734 85.1782V88.7524L30 89.5552V90.7153L21.4688 87.4575V86.4731L30 83.2095V84.3638L27.7734 85.1782ZM26.8477 88.4126V85.5122L22.8574 86.9653L26.8477 88.4126ZM30 82.061H21.4688V79.272C21.4688 78.3462 21.6602 77.6509 22.043 77.186C22.4258 76.7173 22.9922 76.4829 23.7422 76.4829C24.1406 76.4829 24.4941 76.5962 24.8027 76.8228C25.1074 77.0493 25.3438 77.3579 25.5117 77.7485C25.6406 77.2876 25.8867 76.9243 26.25 76.6587C26.6094 76.3892 27.0391 76.2544 27.5391 76.2544C28.3047 76.2544 28.9063 76.5024 29.3438 76.9985C29.7813 77.4946 30 78.1958 30 79.1021V82.061ZM26.0098 80.936H29.0801V79.0786C29.0801 78.5552 28.9453 78.1431 28.6758 77.8423C28.4023 77.5376 28.0273 77.3853 27.5508 77.3853C26.5234 77.3853 26.0098 77.9438 26.0098 79.061V80.936ZM25.1074 80.936V79.2368C25.1074 78.7446 24.9844 78.3521 24.7383 78.0591C24.4922 77.7622 24.1582 77.6138 23.7363 77.6138C23.2676 77.6138 22.9277 77.7505 22.7168 78.0239C22.502 78.2974 22.3945 78.7134 22.3945 79.272V80.936H25.1074ZM29.0801 73.4536V69.4106H30V74.5845H21.4688V73.4536H29.0801ZM26.0566 63.3052V67.0024H29.0801V62.7075H30V68.1274H21.4688V62.7661H22.3945V67.0024H25.1367V63.3052H26.0566Z" fill="#60347B"/>
<path d="M62.832 39.8052L63.3242 35.4692H68.1055V36.8813H64.7129L64.502 38.7153C64.9043 38.5005 65.332 38.3931 65.7852 38.3931C66.5977 38.3931 67.2344 38.645 67.6953 39.1489C68.1562 39.6528 68.3867 40.3579 68.3867 41.2642C68.3867 41.8149 68.2695 42.3091 68.0352 42.7466C67.8047 43.1802 67.4727 43.5181 67.0391 43.7603C66.6055 43.9985 66.0938 44.1177 65.5039 44.1177C64.9883 44.1177 64.5098 44.0142 64.0684 43.8071C63.627 43.5962 63.2773 43.3013 63.0195 42.9224C62.7656 42.5435 62.6309 42.1118 62.6152 41.6274H64.291C64.3262 41.9829 64.4492 42.2603 64.6602 42.4595C64.875 42.6548 65.1543 42.7524 65.498 42.7524C65.8809 42.7524 66.1758 42.6157 66.3828 42.3423C66.5898 42.0649 66.6934 41.6743 66.6934 41.1704C66.6934 40.686 66.5742 40.3149 66.3359 40.0571C66.0977 39.7993 65.7598 39.6704 65.3223 39.6704C64.9199 39.6704 64.5938 39.7759 64.3438 39.9868L64.1797 40.1392L62.832 39.8052ZM67.5898 65.7896H68.5566V67.1548H67.5898V69.0005H65.8965V67.1548H62.3984L62.3223 66.0884L65.8789 60.4692H67.5898V65.7896ZM64.0098 65.7896H65.8965V62.7778L65.7852 62.9712L64.0098 65.7896ZM64.3027 88.9849H65.2051C65.6348 88.9849 65.9531 88.8774 66.1602 88.6626C66.3672 88.4478 66.4707 88.1626 66.4707 87.8071C66.4707 87.4634 66.3672 87.1958 66.1602 87.0044C65.957 86.813 65.6758 86.7173 65.3164 86.7173C64.9922 86.7173 64.7207 86.8071 64.502 86.9868C64.2832 87.1626 64.1738 87.3931 64.1738 87.6782H62.4805C62.4805 87.2329 62.5996 86.8345 62.8379 86.4829C63.0801 86.1274 63.416 85.8501 63.8457 85.6509C64.2793 85.4517 64.7559 85.3521 65.2754 85.3521C66.1777 85.3521 66.8848 85.5688 67.3965 86.0024C67.9082 86.4321 68.1641 87.0259 68.1641 87.7837C68.1641 88.1743 68.0449 88.5337 67.8066 88.8618C67.5684 89.1899 67.2559 89.4419 66.8691 89.6177C67.3496 89.7896 67.707 90.0474 67.9414 90.3911C68.1797 90.7349 68.2988 91.1411 68.2988 91.6099C68.2988 92.3677 68.0215 92.9751 67.4668 93.4321C66.916 93.8892 66.1855 94.1177 65.2754 94.1177C64.4238 94.1177 63.7266 93.8931 63.1836 93.4438C62.6445 92.9946 62.375 92.4009 62.375 91.6626H64.0684C64.0684 91.9829 64.1875 92.2446 64.4258 92.4478C64.668 92.6509 64.9648 92.7524 65.3164 92.7524C65.7188 92.7524 66.0332 92.647 66.2598 92.436C66.4902 92.2212 66.6055 91.938 66.6055 91.5864C66.6055 90.7349 66.1367 90.3091 65.1992 90.3091H64.3027V88.9849ZM68.4277 119H62.5801V117.84L65.3398 114.899C65.7188 114.485 65.998 114.124 66.1777 113.815C66.3613 113.506 66.4531 113.213 66.4531 112.936C66.4531 112.557 66.3574 112.26 66.166 112.045C65.9746 111.827 65.7012 111.717 65.3457 111.717C64.9629 111.717 64.6602 111.85 64.4375 112.116C64.2188 112.377 64.1094 112.723 64.1094 113.153H62.4102C62.4102 112.633 62.5332 112.159 62.7793 111.729C63.0293 111.299 63.3809 110.963 63.834 110.721C64.2871 110.475 64.8008 110.352 65.375 110.352C66.2539 110.352 66.9355 110.563 67.4199 110.985C67.9082 111.407 68.1523 112.002 68.1523 112.772C68.1523 113.194 68.043 113.624 67.8242 114.061C67.6055 114.499 67.2305 115.008 66.6992 115.59L64.7598 117.635H68.4277V119ZM66.6934 144H65V137.473L62.9785 138.1V136.723L66.5117 135.458H66.6934V144Z" fill="#60347B"/>
<path d="M582.6 75.6851C582.522 76.756 582.126 77.5991 581.41 78.2144C580.699 78.8296 579.76 79.1372 578.594 79.1372C577.318 79.1372 576.313 78.7088 575.579 77.8521C574.85 76.9907 574.485 75.8104 574.485 74.311V73.7026C574.485 72.7456 574.654 71.9025 574.991 71.1733C575.328 70.4442 575.809 69.8859 576.434 69.4985C577.062 69.1066 577.792 68.9106 578.621 68.9106C579.77 68.9106 580.695 69.2183 581.396 69.8335C582.098 70.4487 582.504 71.3123 582.613 72.4243H580.562C580.512 71.7817 580.332 71.3169 580.022 71.0298C579.717 70.7381 579.25 70.5923 578.621 70.5923C577.938 70.5923 577.425 70.8384 577.083 71.3306C576.746 71.8182 576.573 72.577 576.563 73.6069V74.3589C576.563 75.4344 576.725 76.2205 577.049 76.7173C577.377 77.214 577.892 77.4624 578.594 77.4624C579.227 77.4624 579.699 77.3188 580.009 77.0317C580.323 76.7401 580.503 76.2912 580.549 75.6851H582.6ZM589.935 74.687H585.997V77.353H590.618V79.0005H583.946V69.0474H590.604V70.7085H585.997V73.0806H589.935V74.687ZM595.506 75.3569H593.872V79.0005H591.821V69.0474H595.52C596.695 69.0474 597.602 69.3094 598.24 69.8335C598.878 70.3576 599.197 71.0981 599.197 72.0552C599.197 72.7342 599.049 73.3016 598.753 73.7573C598.461 74.2085 598.017 74.5685 597.42 74.8374L599.573 78.9048V79.0005H597.372L595.506 75.3569ZM593.872 73.6958H595.526C596.041 73.6958 596.44 73.5659 596.723 73.3062C597.005 73.0418 597.146 72.6795 597.146 72.2192C597.146 71.7498 597.012 71.3807 596.743 71.1118C596.479 70.8429 596.071 70.7085 595.52 70.7085H593.872V73.6958ZM606.751 74.687H602.813V77.353H607.435V79.0005H600.763V69.0474H607.421V70.7085H602.813V73.0806H606.751V74.687ZM608.638 79.0005V69.0474H612.124C613.332 69.0474 614.248 69.2798 614.872 69.7446C615.496 70.2049 615.809 70.8817 615.809 71.7749C615.809 72.2625 615.683 72.6932 615.433 73.0669C615.182 73.436 614.833 73.7072 614.387 73.8804C614.897 74.008 615.298 74.2655 615.59 74.6528C615.886 75.0402 616.034 75.5142 616.034 76.0747C616.034 77.0317 615.729 77.7563 615.118 78.2485C614.507 78.7407 613.637 78.9914 612.507 79.0005H608.638ZM610.688 74.6665V77.353H612.445C612.928 77.353 613.304 77.2391 613.573 77.0112C613.847 76.7788 613.983 76.4598 613.983 76.0542C613.983 75.1427 613.512 74.6802 612.568 74.6665H610.688ZM610.688 73.2173H612.206C613.241 73.1991 613.758 72.7866 613.758 71.98C613.758 71.5288 613.626 71.2052 613.361 71.0093C613.102 70.8088 612.689 70.7085 612.124 70.7085H610.688V73.2173ZM621.264 75.3569H619.63V79.0005H617.579V69.0474H621.277C622.453 69.0474 623.36 69.3094 623.998 69.8335C624.636 70.3576 624.955 71.0981 624.955 72.0552C624.955 72.7342 624.807 73.3016 624.511 73.7573C624.219 74.2085 623.775 74.5685 623.178 74.8374L625.331 78.9048V79.0005H623.13L621.264 75.3569ZM619.63 73.6958H621.284C621.799 73.6958 622.198 73.5659 622.48 73.3062C622.763 73.0418 622.904 72.6795 622.904 72.2192C622.904 71.7498 622.77 71.3807 622.501 71.1118C622.237 70.8429 621.829 70.7085 621.277 70.7085H619.63V73.6958ZM634.696 74.2495C634.696 75.2293 634.523 76.0884 634.177 76.8267C633.83 77.5649 633.334 78.1346 632.687 78.5356C632.044 78.9367 631.306 79.1372 630.472 79.1372C629.647 79.1372 628.911 78.939 628.264 78.5425C627.617 78.146 627.115 77.5809 626.76 76.8472C626.404 76.1089 626.224 75.2612 626.22 74.3042V73.812C626.22 72.8322 626.395 71.9709 626.746 71.228C627.102 70.4806 627.601 69.9087 628.243 69.5122C628.89 69.1112 629.629 68.9106 630.458 68.9106C631.287 68.9106 632.023 69.1112 632.666 69.5122C633.313 69.9087 633.812 70.4806 634.163 71.228C634.519 71.9709 634.696 72.8299 634.696 73.8052V74.2495ZM632.618 73.7983C632.618 72.7547 632.431 71.9618 632.058 71.4194C631.684 70.8771 631.151 70.606 630.458 70.606C629.77 70.606 629.239 70.8748 628.865 71.4126C628.492 71.9458 628.302 72.7297 628.298 73.7642V74.2495C628.298 75.2658 628.485 76.0542 628.858 76.6147C629.232 77.1753 629.77 77.4556 630.472 77.4556C631.16 77.4556 631.688 77.1867 632.058 76.6489C632.427 76.1066 632.614 75.3182 632.618 74.2837V73.7983ZM647.486 75.6851C647.409 76.756 647.012 77.5991 646.297 78.2144C645.586 78.8296 644.647 79.1372 643.48 79.1372C642.204 79.1372 641.2 78.7088 640.466 77.8521C639.737 76.9907 639.372 75.8104 639.372 74.311V73.7026C639.372 72.7456 639.541 71.9025 639.878 71.1733C640.215 70.4442 640.696 69.8859 641.32 69.4985C641.949 69.1066 642.678 68.9106 643.508 68.9106C644.656 68.9106 645.581 69.2183 646.283 69.8335C646.985 70.4487 647.391 71.3123 647.5 72.4243H645.449C645.399 71.7817 645.219 71.3169 644.909 71.0298C644.604 70.7381 644.137 70.5923 643.508 70.5923C642.824 70.5923 642.312 70.8384 641.97 71.3306C641.632 71.8182 641.459 72.577 641.45 73.6069V74.3589C641.45 75.4344 641.612 76.2205 641.936 76.7173C642.264 77.214 642.779 77.4624 643.48 77.4624C644.114 77.4624 644.586 77.3188 644.896 77.0317C645.21 76.7401 645.39 76.2912 645.436 75.6851H647.486ZM657.009 74.2495C657.009 75.2293 656.836 76.0884 656.489 76.8267C656.143 77.5649 655.646 78.1346 654.999 78.5356C654.356 78.9367 653.618 79.1372 652.784 79.1372C651.959 79.1372 651.223 78.939 650.576 78.5425C649.929 78.146 649.428 77.5809 649.072 76.8472C648.717 76.1089 648.537 75.2612 648.532 74.3042V73.812C648.532 72.8322 648.708 71.9709 649.059 71.228C649.414 70.4806 649.913 69.9087 650.556 69.5122C651.203 69.1112 651.941 68.9106 652.771 68.9106C653.6 68.9106 654.336 69.1112 654.979 69.5122C655.626 69.9087 656.125 70.4806 656.476 71.228C656.831 71.9709 657.009 72.8299 657.009 73.8052V74.2495ZM654.931 73.7983C654.931 72.7547 654.744 71.9618 654.37 71.4194C653.996 70.8771 653.463 70.606 652.771 70.606C652.082 70.606 651.551 70.8748 651.178 71.4126C650.804 71.9458 650.615 72.7297 650.61 73.7642V74.2495C650.61 75.2658 650.797 76.0542 651.171 76.6147C651.545 77.1753 652.082 77.4556 652.784 77.4556C653.472 77.4556 654.001 77.1867 654.37 76.6489C654.739 76.1066 654.926 75.3182 654.931 74.2837V73.7983ZM666.593 79.0005H664.542L660.55 72.4517V79.0005H658.499V69.0474H660.55L664.549 75.6099V69.0474H666.593V79.0005ZM674.372 74.9331H670.435V79.0005H668.384V69.0474H674.864V70.7085H670.435V73.2788H674.372V74.9331ZM684.229 74.2495C684.229 75.2293 684.056 76.0884 683.71 76.8267C683.364 77.5649 682.867 78.1346 682.22 78.5356C681.577 78.9367 680.839 79.1372 680.005 79.1372C679.18 79.1372 678.444 78.939 677.797 78.5425C677.15 78.146 676.648 77.5809 676.293 76.8472C675.938 76.1089 675.757 75.2612 675.753 74.3042V73.812C675.753 72.8322 675.928 71.9709 676.279 71.228C676.635 70.4806 677.134 69.9087 677.776 69.5122C678.424 69.1112 679.162 68.9106 679.991 68.9106C680.821 68.9106 681.557 69.1112 682.199 69.5122C682.846 69.9087 683.345 70.4806 683.696 71.228C684.052 71.9709 684.229 72.8299 684.229 73.8052V74.2495ZM682.151 73.7983C682.151 72.7547 681.965 71.9618 681.591 71.4194C681.217 70.8771 680.684 70.606 679.991 70.606C679.303 70.606 678.772 70.8748 678.398 71.4126C678.025 71.9458 677.836 72.7297 677.831 73.7642V74.2495C677.831 75.2658 678.018 76.0542 678.392 76.6147C678.765 77.1753 679.303 77.4556 680.005 77.4556C680.693 77.4556 681.222 77.1867 681.591 76.6489C681.96 76.1066 682.147 75.3182 682.151 74.2837V73.7983ZM689.404 75.3569H687.771V79.0005H685.72V69.0474H689.418C690.594 69.0474 691.501 69.3094 692.139 69.8335C692.777 70.3576 693.096 71.0981 693.096 72.0552C693.096 72.7342 692.948 73.3016 692.651 73.7573C692.36 74.2085 691.915 74.5685 691.318 74.8374L693.472 78.9048V79.0005H691.271L689.404 75.3569ZM687.771 73.6958H689.425C689.94 73.6958 690.339 73.5659 690.621 73.3062C690.904 73.0418 691.045 72.6795 691.045 72.2192C691.045 71.7498 690.91 71.3807 690.642 71.1118C690.377 70.8429 689.969 70.7085 689.418 70.7085H687.771V73.6958ZM701.812 70.7085H698.763V79.0005H696.712V70.7085H693.704V69.0474H701.812V70.7085ZM707.786 76.9497H704.19L703.507 79.0005H701.326L705.031 69.0474H706.932L710.657 79.0005H708.477L707.786 76.9497ZM704.744 75.2886H707.232L705.981 71.563L704.744 75.2886ZM711.587 79.0005V69.0474H715.073C716.281 69.0474 717.197 69.2798 717.821 69.7446C718.446 70.2049 718.758 70.8817 718.758 71.7749C718.758 72.2625 718.632 72.6932 718.382 73.0669C718.131 73.436 717.783 73.7072 717.336 73.8804C717.846 74.008 718.247 74.2655 718.539 74.6528C718.835 75.0402 718.983 75.5142 718.983 76.0747C718.983 77.0317 718.678 77.7563 718.067 78.2485C717.457 78.7407 716.586 78.9914 715.456 79.0005H711.587ZM713.638 74.6665V77.353H715.395C715.878 77.353 716.254 77.2391 716.522 77.0112C716.796 76.7788 716.933 76.4598 716.933 76.0542C716.933 75.1427 716.461 74.6802 715.518 74.6665H713.638ZM713.638 73.2173H715.155C716.19 73.1991 716.707 72.7866 716.707 71.98C716.707 71.5288 716.575 71.2052 716.311 71.0093C716.051 70.8088 715.638 70.7085 715.073 70.7085H713.638V73.2173ZM722.579 77.353H726.934V79.0005H720.528V69.0474H722.579V77.353ZM734.104 74.687H730.167V77.353H734.788V79.0005H728.116V69.0474H734.774V70.7085H730.167V73.0806H734.104V74.687Z" fill="white"/>
<path d="M79.7786 151.077C81.3561 -70.4432 386.411 104.59 839 147" stroke="#60347B" stroke-width="2"/>
<path d="M120.234 74.6286L117.708 75.0936L117.493 76.6226L115.961 76.9046L117.277 69.4336L118.612 69.1878L122.516 75.6979L120.984 75.9799L120.234 74.6286ZM117.882 73.855L119.63 73.5332L118.27 71.0779L117.882 73.855ZM124.397 74.1551L127.456 73.592L127.669 74.7493L123.169 75.5776L121.882 68.5858L123.323 68.3206L124.397 74.1551ZM131.701 67.9846L129.559 68.3789L130.632 74.2038L129.191 74.469L128.119 68.6441L126.006 69.0331L125.791 67.8661L131.486 66.8176L131.701 67.9846ZM136.705 71.5962L134.179 72.0612L133.964 73.5903L132.433 73.8723L133.748 66.4013L135.083 66.1555L138.987 72.6655L137.456 72.9476L136.705 71.5962ZM134.354 70.8227L136.102 70.5009L134.741 68.0455L134.354 70.8227ZM147.15 68.7549C147.234 69.5173 147.064 70.1608 146.641 70.6855C146.221 71.2097 145.602 71.5472 144.782 71.6981C143.886 71.8631 143.124 71.6921 142.498 71.1851C141.875 70.6744 141.466 69.8924 141.272 68.8391L141.193 68.4117C141.069 67.7394 141.079 67.1253 141.221 66.5695C141.364 66.0137 141.63 65.5593 142.018 65.2064C142.409 64.8498 142.896 64.6178 143.479 64.5106C144.286 64.362 144.975 64.4585 145.548 64.7999C146.12 65.1413 146.517 65.6956 146.738 66.4626L145.297 66.7278C145.179 66.2829 144.992 65.9796 144.737 65.818C144.485 65.6526 144.138 65.6106 143.696 65.6919C143.216 65.7803 142.888 66.0195 142.711 66.4094C142.537 66.7956 142.514 67.351 142.641 68.0757L142.738 68.604C142.877 69.3595 143.092 69.8908 143.384 70.1979C143.679 70.5044 144.072 70.6123 144.566 70.5215C145.011 70.4396 145.323 70.2778 145.504 70.036C145.687 69.7905 145.755 69.4518 145.709 69.0202L147.15 68.7549ZM152.207 68.7425L149.681 69.2075L149.466 70.7365L147.934 71.0185L149.249 63.5475L150.584 63.3017L154.489 69.8118L152.957 70.0938L152.207 68.7425ZM149.855 67.969L151.603 67.6472L150.242 65.1918L149.855 67.969ZM157.259 66.6555L156.111 66.8668L156.582 69.4263L155.142 69.6916L153.855 62.6997L156.453 62.2214C157.279 62.0693 157.949 62.1361 158.465 62.4218C158.981 62.7074 159.301 63.1864 159.425 63.8587C159.513 64.3357 159.482 64.7535 159.333 65.1119C159.187 65.4666 158.921 65.7769 158.536 66.043L160.575 68.6218L160.587 68.689L159.041 68.9737L157.259 66.6555ZM155.896 65.6999L157.059 65.486C157.42 65.4194 157.684 65.2766 157.848 65.0575C158.013 64.8353 158.065 64.5625 158.006 64.2392C157.945 63.9094 157.803 63.6675 157.579 63.5134C157.359 63.3587 157.055 63.317 156.667 63.3883L155.51 63.6014L155.896 65.6999ZM166.792 66.6332C166.59 66.9915 166.268 67.3006 165.826 67.5607C165.384 67.8177 164.874 67.9991 164.298 68.1052C163.693 68.2166 163.137 68.1832 162.631 68.005C162.128 67.8229 161.705 67.5036 161.362 67.047C161.023 66.5897 160.788 66.0223 160.657 65.3448L160.569 64.8694C160.441 64.1715 160.447 63.5465 160.587 62.9945C160.729 62.4386 160.997 61.9856 161.389 61.6353C161.784 61.2813 162.279 61.0495 162.874 60.9398C163.704 60.7872 164.388 60.8663 164.929 61.1773C165.469 61.485 165.852 62.0087 166.077 62.7483L164.675 63.0064C164.537 62.618 164.341 62.3513 164.086 62.2063C163.834 62.0607 163.516 62.0233 163.132 62.094C162.642 62.1842 162.303 62.4369 162.114 62.8522C161.926 63.2675 161.897 63.8388 162.028 64.5662L162.11 65.0128C162.245 65.7459 162.486 66.2741 162.834 66.5974C163.181 66.9207 163.624 67.0328 164.162 66.9338C164.703 66.8342 165.067 66.6479 165.255 66.375L165.033 65.1696L163.722 65.411L163.527 64.3497L166.279 63.8432L166.792 66.6332ZM171.809 65.1337L169.283 65.5987L169.068 67.1278L167.536 67.4098L168.852 59.9388L170.187 59.693L174.091 66.2031L172.559 66.4851L171.809 65.1337ZM169.457 64.3602L171.205 64.0384L169.844 61.5831L169.457 64.3602ZM182.253 62.2924C182.337 63.0548 182.168 63.6983 181.745 64.223C181.325 64.7472 180.705 65.0847 179.886 65.2356C178.989 65.4006 178.228 65.2296 177.602 64.7226C176.978 64.2119 176.569 63.4299 176.375 62.3766L176.297 61.9492C176.173 61.2769 176.182 60.6628 176.325 60.107C176.468 59.5512 176.733 59.0968 177.122 58.744C177.513 58.3873 178 58.1553 178.582 58.0481C179.389 57.8995 180.079 57.996 180.651 58.3374C181.224 58.6789 181.62 59.2331 181.841 60.0001L180.4 60.2653C180.282 59.8204 180.096 59.5171 179.841 59.3555C179.588 59.1901 179.241 59.1481 178.8 59.2294C178.319 59.3178 177.991 59.557 177.815 59.9469C177.641 60.3331 177.617 60.8885 177.744 61.6132L177.841 62.1415C177.98 62.897 178.196 63.4283 178.487 63.7354C178.782 64.0419 179.176 64.1498 179.669 64.0591C180.114 63.9771 180.427 63.8153 180.607 63.5735C180.79 63.328 180.859 62.9893 180.813 62.5577L182.253 62.2924ZM187.277 60.6427L184.511 61.152L184.856 63.0248L188.102 62.4272L188.315 63.5845L183.628 64.4473L182.341 57.4554L187.018 56.5944L187.233 57.7613L183.996 58.3571L184.303 60.0235L187.069 59.5142L187.277 60.6427ZM191.277 60.3928L190.129 60.6041L190.601 63.1636L189.16 63.4289L187.873 56.437L190.471 55.9587C191.297 55.8067 191.968 55.8734 192.484 56.1591C193 56.4447 193.319 56.9237 193.443 57.596C193.531 58.073 193.5 58.4908 193.351 58.8492C193.205 59.2039 192.939 59.5142 192.554 59.7803L194.593 62.3591L194.606 62.4263L193.059 62.711L191.277 60.3928ZM189.915 59.4372L191.077 59.2233C191.438 59.1567 191.702 59.0139 191.867 58.7948C192.031 58.5726 192.083 58.2998 192.024 57.9765C191.963 57.6467 191.821 57.4048 191.597 57.2507C191.377 57.096 191.073 57.0543 190.686 57.1256L189.528 57.3387L189.915 59.4372ZM199.09 58.4679L196.324 58.9772L196.669 60.85L199.915 60.2524L200.128 61.4097L195.441 62.2725L194.154 55.2806L198.831 54.4196L199.046 55.5865L195.809 56.1823L196.116 57.8487L198.882 57.3394L199.09 58.4679ZM200.973 61.2541L199.686 54.2622L202.135 53.8113C202.983 53.6551 203.657 53.6999 204.156 53.9457C204.654 54.1883 204.961 54.6234 205.076 55.2509C205.139 55.5934 205.107 55.9122 204.979 56.2071C204.851 56.4988 204.641 56.7344 204.35 56.9138C204.725 56.9374 205.04 57.0664 205.295 57.3008C205.553 57.5346 205.718 57.8484 205.791 58.2422C205.914 58.9145 205.794 59.463 205.428 59.8878C205.063 60.3125 204.484 60.6011 203.691 60.7537L200.973 61.2541ZM201.853 57.9443L202.201 59.8315L203.435 59.6043C203.774 59.5419 204.024 59.4132 204.183 59.2184C204.345 59.0197 204.4 58.778 204.347 58.493C204.23 57.8527 203.838 57.5888 203.174 57.7012L201.853 57.9443ZM201.666 56.9263L202.732 56.73C203.456 56.5834 203.766 56.2268 203.662 55.6601C203.604 55.3432 203.469 55.133 203.258 55.0295C203.05 54.9222 202.747 54.9052 202.35 54.9782L201.341 55.1639L201.666 56.9263ZM209.371 57.0617L208.224 57.273L208.695 59.8325L207.254 60.0977L205.967 53.1058L208.565 52.6276C209.391 52.4755 210.062 52.5423 210.578 52.828C211.094 53.1136 211.414 53.5926 211.538 54.2649C211.625 54.7419 211.595 55.1596 211.446 55.5181C211.299 55.8727 211.033 56.1831 210.649 56.4492L212.688 59.028L212.7 59.0952L211.154 59.3799L209.371 57.0617ZM208.009 56.1061L209.171 55.8921C209.533 55.8255 209.796 55.6827 209.961 55.4637C210.125 55.2415 210.178 54.9687 210.118 54.6453C210.057 54.3156 209.915 54.0737 209.692 53.9196C209.471 53.7649 209.167 53.7232 208.78 53.7945L207.623 54.0075L208.009 56.1061ZM217.218 56.774L214.692 57.2391L214.477 58.7681L212.945 59.0501L214.26 51.5791L215.595 51.3333L219.5 57.8434L217.968 58.1254L217.218 56.774ZM214.866 56.0005L216.614 55.6787L215.253 53.2234L214.866 56.0005ZM221.38 56.3006L224.439 55.7375L224.652 56.8948L220.153 57.7231L218.866 50.7313L220.306 50.466L221.38 56.3006Z" fill="#60347B"/>
<path d="M457.656 98.0256L456.51 97.8005L456.008 100.354L454.571 100.072L455.942 93.0957L458.534 93.6052C459.359 93.7672 459.958 94.0759 460.333 94.5311C460.708 94.9863 460.829 95.5493 460.698 96.2201C460.604 96.696 460.422 97.0732 460.152 97.3518C459.885 97.6278 459.524 97.819 459.069 97.9252L460.017 101.073L460.004 101.14L458.461 100.836L457.656 98.0256ZM456.739 96.6362L457.899 96.8641C458.26 96.9351 458.557 96.899 458.791 96.7559C459.025 96.6095 459.174 96.3751 459.238 96.0525C459.302 95.7235 459.259 95.4462 459.108 95.2208C458.959 94.9959 458.692 94.8455 458.306 94.7695L457.151 94.5425L456.739 96.6362ZM465.629 99.1054L462.87 98.5629L462.502 100.431L465.741 101.068L465.514 102.223L460.838 101.304L462.209 94.3277L466.876 95.245L466.647 96.4093L463.418 95.7745L463.091 97.437L465.851 97.9795L465.629 99.1054ZM466.357 102.389L467.729 95.4127L469.875 95.8346C470.488 95.9552 471.009 96.2018 471.436 96.5745C471.868 96.9447 472.169 97.4119 472.34 97.9764C472.512 98.5376 472.534 99.1424 472.406 99.7908L472.343 100.112C472.216 100.76 471.968 101.31 471.601 101.762C471.237 102.215 470.784 102.532 470.244 102.715C469.704 102.897 469.129 102.93 468.518 102.813L466.357 102.389ZM468.937 96.8595L468.022 101.516L468.716 101.653C469.278 101.764 469.744 101.664 470.113 101.355C470.483 101.046 470.738 100.551 470.878 99.8686L470.951 99.4997C471.09 98.7906 471.049 98.2251 470.827 97.8032C470.605 97.3781 470.211 97.11 469.646 96.9989L468.937 96.8595ZM479.39 97.7052L478.487 102.3C478.337 103.063 477.979 103.62 477.412 103.97C476.849 104.32 476.154 104.414 475.327 104.251C474.512 104.091 473.908 103.748 473.513 103.223C473.119 102.698 472.991 102.057 473.13 101.301L474.043 96.6541L475.481 96.9366L474.575 101.541C474.486 101.998 474.529 102.353 474.704 102.606C474.884 102.857 475.167 103.021 475.554 103.097C476.362 103.256 476.856 102.911 477.035 102.064L477.948 97.4217L479.39 97.7052ZM485.13 103.666C484.929 104.406 484.535 104.942 483.948 105.274C483.365 105.608 482.665 105.694 481.847 105.533C480.953 105.357 480.308 104.919 479.911 104.217C479.519 103.513 479.426 102.635 479.633 101.585L479.717 101.158C479.848 100.487 480.083 99.9198 480.42 99.4552C480.756 98.9906 481.17 98.6656 481.661 98.4801C482.156 98.292 482.694 98.2552 483.275 98.3694C484.08 98.5277 484.686 98.8707 485.093 99.3986C485.501 99.9265 485.666 100.588 485.589 101.382L484.152 101.1C484.205 100.642 484.143 100.292 483.966 100.048C483.792 99.8013 483.484 99.6347 483.044 99.5481C482.565 99.4539 482.171 99.5557 481.864 99.8536C481.56 100.149 481.335 100.657 481.186 101.377L481.083 101.904C480.934 102.658 480.94 103.232 481.098 103.624C481.259 104.018 481.586 104.263 482.078 104.359C482.522 104.447 482.872 104.411 483.129 104.252C483.39 104.091 483.578 103.802 483.693 103.383L485.13 103.666ZM491.551 104.928C491.349 105.668 490.955 106.204 490.368 106.537C489.785 106.87 489.085 106.956 488.267 106.795C487.373 106.619 486.728 106.181 486.331 105.479C485.939 104.775 485.846 103.898 486.053 102.847L486.137 102.42C486.268 101.75 486.503 101.182 486.84 100.717C487.176 100.253 487.59 99.9276 488.081 99.7422C488.576 99.5541 489.114 99.5173 489.695 99.6315C490.5 99.7898 491.106 100.133 491.514 100.661C491.921 101.189 492.086 101.85 492.009 102.644L490.572 102.362C490.625 101.904 490.563 101.554 490.386 101.31C490.212 101.063 489.905 100.897 489.464 100.81C488.985 100.716 488.591 100.818 488.284 101.116C487.981 101.411 487.755 101.919 487.606 102.64L487.503 103.167C487.355 103.92 487.36 104.494 487.518 104.886C487.679 105.28 488.006 105.525 488.498 105.621C488.942 105.709 489.292 105.673 489.549 105.515C489.81 105.353 489.998 105.064 490.113 104.645L491.551 104.928ZM493.566 107.737L492.129 107.455L493.5 100.479L494.937 100.762L493.566 107.737ZM501.287 105.797C501.152 106.484 500.913 107.062 500.568 107.531C500.224 108.001 499.797 108.332 499.288 108.524C498.783 108.716 498.238 108.755 497.653 108.64C497.075 108.527 496.586 108.286 496.188 107.919C495.789 107.552 495.515 107.087 495.367 106.524C495.22 105.958 495.21 105.339 495.339 104.667L495.407 104.322C495.542 103.636 495.783 103.056 496.132 102.584C496.484 102.109 496.912 101.777 497.417 101.587C497.926 101.396 498.471 101.357 499.053 101.471C499.634 101.585 500.122 101.827 500.517 102.197C500.916 102.564 501.187 103.033 501.33 103.606C501.477 104.175 501.483 104.802 501.349 105.485L501.287 105.797ZM499.893 105.194C500.037 104.463 500.015 103.881 499.828 103.45C499.641 103.018 499.304 102.755 498.819 102.659C498.337 102.564 497.927 102.68 497.591 103.005C497.256 103.327 497.016 103.851 496.87 104.575L496.803 104.915C496.663 105.628 496.685 106.206 496.87 106.65C497.055 107.095 497.393 107.365 497.885 107.462C498.367 107.557 498.775 107.441 499.107 107.115C499.441 106.786 499.68 106.259 499.826 105.534L499.893 105.194ZM507.35 110.447L505.913 110.165L504.017 105.025L503.115 109.615L501.677 109.332L503.049 102.356L504.486 102.639L506.385 107.789L507.289 103.19L508.721 103.471L507.35 110.447ZM511.049 111.174L512.42 104.198L514.566 104.62C515.18 104.741 515.7 104.988 516.128 105.36C516.559 105.73 516.861 106.198 517.032 106.762C517.203 107.323 517.225 107.928 517.098 108.577L517.035 108.898C516.907 109.546 516.66 110.096 516.292 110.548C515.928 111.001 515.476 111.318 514.936 111.5C514.396 111.683 513.82 111.716 513.21 111.599L511.049 111.174ZM513.629 105.645L512.713 110.302L513.408 110.439C513.97 110.549 514.436 110.45 514.805 110.141C515.174 109.832 515.429 109.337 515.57 108.654L515.642 108.285C515.782 107.576 515.74 107.011 515.518 106.589C515.296 106.164 514.903 105.896 514.338 105.785L513.629 105.645ZM522.222 110.231L519.462 109.688L519.095 111.557L522.334 112.193L522.107 113.348L517.43 112.429L518.802 105.453L523.468 106.37L523.239 107.535L520.01 106.9L519.683 108.562L522.443 109.105L522.222 110.231ZM531.326 112.747C531.124 113.487 530.73 114.023 530.144 114.356C529.561 114.689 528.861 114.775 528.043 114.615C527.149 114.439 526.504 114 526.107 113.299C525.715 112.594 525.622 111.717 525.829 110.666L525.912 110.24C526.044 109.569 526.279 109.001 526.615 108.537C526.952 108.072 527.366 107.747 527.857 107.562C528.352 107.373 528.89 107.337 529.471 107.451C530.276 107.609 530.882 107.952 531.289 108.48C531.696 109.008 531.862 109.669 531.785 110.464L530.348 110.181C530.401 109.724 530.339 109.373 530.162 109.129C529.988 108.883 529.68 108.716 529.24 108.63C528.76 108.535 528.367 108.637 528.06 108.935C527.756 109.23 527.53 109.738 527.382 110.459L527.279 110.986C527.13 111.74 527.135 112.313 527.294 112.706C527.455 113.099 527.782 113.344 528.274 113.441C528.718 113.528 529.068 113.492 529.325 113.334C529.586 113.173 529.774 112.883 529.889 112.464L531.326 112.747ZM536.034 114.593L533.514 114.098L532.752 115.441L531.224 115.14L535.192 108.675L536.524 108.937L537.764 116.426L536.236 116.126L536.034 114.593ZM534.131 113.01L535.875 113.353L535.512 110.569L534.131 113.01ZM541.5 114.508L540.355 114.283L539.853 116.837L538.416 116.554L539.787 109.578L542.379 110.088C543.203 110.25 543.802 110.558 544.177 111.014C544.552 111.469 544.674 112.032 544.542 112.703C544.449 113.179 544.267 113.556 543.996 113.834C543.73 114.11 543.369 114.302 542.913 114.408L543.862 117.555L543.849 117.622L542.306 117.319L541.5 114.508ZM540.584 113.119L541.743 113.347C542.104 113.418 542.402 113.382 542.635 113.238C542.87 113.092 543.019 112.858 543.082 112.535C543.147 112.206 543.103 111.929 542.952 111.703C542.804 111.479 542.536 111.328 542.15 111.252L540.995 111.025L540.584 113.119ZM550.375 117.99C550.055 118.249 549.642 118.418 549.136 118.497C548.63 118.574 548.089 118.555 547.514 118.442C546.911 118.324 546.406 118.088 546.001 117.737C545.599 117.383 545.323 116.93 545.173 116.38C545.025 115.83 545.015 115.216 545.142 114.537L545.235 114.063C545.372 113.367 545.607 112.788 545.94 112.326C546.277 111.861 546.692 111.538 547.185 111.356C547.683 111.172 548.229 111.138 548.823 111.255C549.65 111.418 550.258 111.743 550.646 112.231C551.035 112.715 551.199 113.343 551.137 114.114L549.738 113.839C549.753 113.427 549.668 113.107 549.484 112.878C549.303 112.65 549.021 112.498 548.638 112.423C548.149 112.327 547.741 112.437 547.413 112.755C547.085 113.072 546.849 113.592 546.703 114.317L546.615 114.762C546.472 115.494 546.502 116.074 546.706 116.502C546.911 116.93 547.281 117.197 547.818 117.303C548.358 117.409 548.765 117.37 549.04 117.185L549.277 115.982L547.969 115.725L548.177 114.666L550.922 115.206L550.375 117.99ZM555.592 118.438L553.071 117.942L552.31 119.286L550.781 118.985L554.75 112.52L556.081 112.782L557.321 120.271L555.793 119.97L555.592 118.438ZM553.688 116.854L555.432 117.197L555.069 114.414L553.688 116.854ZM566.349 119.632C566.148 120.372 565.753 120.908 565.167 121.241C564.584 121.574 563.884 121.66 563.066 121.5C562.172 121.324 561.527 120.885 561.13 120.184C560.738 119.479 560.645 118.602 560.852 117.551L560.935 117.125C561.067 116.454 561.302 115.886 561.638 115.422C561.975 114.957 562.389 114.632 562.88 114.447C563.375 114.259 563.913 114.222 564.494 114.336C565.299 114.494 565.905 114.837 566.312 115.365C566.719 115.893 566.885 116.554 566.808 117.349L565.371 117.066C565.424 116.609 565.362 116.258 565.185 116.014C565.011 115.768 564.703 115.601 564.263 115.515C563.784 115.42 563.39 115.522 563.083 115.82C562.779 116.115 562.553 116.623 562.405 117.344L562.302 117.871C562.153 118.625 562.158 119.198 562.317 119.591C562.478 119.984 562.805 120.229 563.297 120.326C563.741 120.413 564.091 120.377 564.348 120.219C564.609 120.058 564.797 119.768 564.912 119.35L566.349 119.632ZM571.628 119.943L568.868 119.401L568.501 121.269L571.74 121.906L571.513 123.061L566.836 122.141L568.208 115.165L572.874 116.083L572.645 117.247L569.416 116.612L569.089 118.275L571.849 118.817L571.628 119.943ZM575.44 121.18L574.295 120.955L573.793 123.509L572.356 123.226L573.727 116.25L576.319 116.76C577.143 116.922 577.743 117.231 578.118 117.686C578.493 118.141 578.614 118.704 578.482 119.375C578.389 119.851 578.207 120.228 577.936 120.507C577.67 120.783 577.309 120.974 576.853 121.08L577.802 124.227L577.789 124.294L576.246 123.991L575.44 121.18ZM574.524 119.791L575.683 120.019C576.044 120.09 576.342 120.054 576.576 119.911C576.81 119.764 576.959 119.53 577.022 119.207C577.087 118.878 577.044 118.601 576.892 118.376C576.744 118.151 576.477 118 576.09 117.924L574.936 117.697L574.524 119.791ZM583.414 122.26L580.654 121.718L580.287 123.586L583.526 124.223L583.299 125.378L578.623 124.458L579.994 117.482L584.66 118.4L584.432 119.564L581.202 118.929L580.876 120.592L583.635 121.134L583.414 122.26ZM584.142 125.543L585.513 118.567L587.957 119.048C588.803 119.214 589.413 119.503 589.787 119.915C590.161 120.324 590.286 120.841 590.163 121.467C590.096 121.809 589.949 122.093 589.722 122.321C589.495 122.545 589.214 122.687 588.877 122.747C589.217 122.907 589.462 123.142 589.613 123.454C589.768 123.766 589.806 124.119 589.729 124.512C589.597 125.183 589.283 125.648 588.787 125.909C588.292 126.17 587.647 126.226 586.854 126.076L584.142 125.543ZM586.176 122.788L585.806 124.671L587.038 124.913C587.376 124.98 587.655 124.952 587.875 124.829C588.099 124.704 588.239 124.499 588.295 124.215C588.42 123.576 588.153 123.187 587.494 123.047L586.176 122.788ZM586.376 121.773L587.44 121.982C588.167 122.111 588.587 121.894 588.698 121.328C588.76 121.012 588.712 120.767 588.554 120.593C588.399 120.417 588.124 120.29 587.728 120.212L586.722 120.014L586.376 121.773ZM593.493 124.729L592.348 124.504L591.846 127.058L590.409 126.775L591.78 119.799L594.372 120.309C595.196 120.471 595.796 120.78 596.171 121.235C596.546 121.69 596.667 122.253 596.535 122.924C596.442 123.4 596.26 123.777 595.989 124.056C595.723 124.332 595.362 124.523 594.906 124.629L595.855 127.776L595.842 127.843L594.299 127.54L593.493 124.729ZM592.577 123.34L593.736 123.568C594.097 123.639 594.395 123.603 594.628 123.46C594.863 123.313 595.012 123.079 595.075 122.756C595.14 122.427 595.097 122.15 594.945 121.924C594.797 121.7 594.53 121.549 594.143 121.473L592.989 121.246L592.577 123.34ZM600.896 127.344L598.376 126.849L597.615 128.192L596.086 127.891L600.054 121.426L601.386 121.688L602.626 129.177L601.098 128.877L600.896 127.344ZM598.993 125.761L600.737 126.104L600.374 123.32L598.993 125.761ZM604.942 128.433L607.994 129.033L607.767 130.188L603.278 129.305L604.649 122.329L606.086 122.612L604.942 128.433Z" fill="#60347B"/>
</svg>
