<svg width="835" height="235" viewBox="0 0 835 235" fill="none" xmlns="http://www.w3.org/2000/svg">
<path d="M286.619 61.0594C439.423 -17.3241 834 27.9997 834 27.9997V148H74C74 148 133.815 139.443 286.619 61.0594Z" fill="#FF0099"/>
<line x1="52.9998" y1="149.018" x2="833.999" y2="149.018" stroke="#CCD0D4"/>
<line x1="75.5" y1="234" x2="75.5" y2="4" stroke="#CCD0D4"/>
<line x1="247.5" y1="234.02" x2="247.5" y2="34.9798" stroke="#CCD0D4"/>
<line x1="415.5" y1="234" x2="415.5" y2="4" stroke="#CCD0D4"/>
<path d="M162.956 173H160.98V165.385L158.622 166.116V164.51L162.744 163.033H162.956V173ZM142.711 185.535H140.143L139.654 187H138.097L140.743 179.891H142.101L144.762 187H143.204L142.711 185.535ZM140.538 184.349H142.315L141.422 181.688L140.538 184.349ZM146.891 184.495V187H145.426V179.891H148.199C148.733 179.891 149.202 179.988 149.605 180.184C150.012 180.379 150.325 180.657 150.543 181.019C150.761 181.377 150.87 181.785 150.87 182.244C150.87 182.941 150.631 183.491 150.152 183.895C149.677 184.295 149.018 184.495 148.175 184.495H146.891ZM146.891 183.309H148.199C148.587 183.309 148.881 183.217 149.083 183.035C149.288 182.853 149.391 182.592 149.391 182.254C149.391 181.906 149.288 181.624 149.083 181.409C148.878 181.194 148.595 181.084 148.233 181.077H146.891V183.309ZM154.513 184.397H153.346V187H151.881V179.891H154.522C155.362 179.891 156.01 180.078 156.466 180.452C156.922 180.826 157.149 181.355 157.149 182.039C157.149 182.524 157.044 182.929 156.832 183.255C156.624 183.577 156.306 183.834 155.88 184.026L157.418 186.932V187H155.846L154.513 184.397ZM153.346 183.211H154.527C154.895 183.211 155.18 183.118 155.382 182.933C155.584 182.744 155.685 182.485 155.685 182.156C155.685 181.821 155.589 181.557 155.396 181.365C155.208 181.173 154.916 181.077 154.522 181.077H153.346V183.211ZM162.545 183.919H159.732V185.823H163.033V187H158.268V179.891H163.023V181.077H159.732V182.771H162.545V183.919ZM169.674 187H168.209L165.357 182.322V187H163.893V179.891H165.357L168.214 184.578V179.891H169.674V187ZM170.953 187V179.891H173.141C173.766 179.891 174.324 180.032 174.815 180.315C175.31 180.595 175.696 180.996 175.973 181.517C176.249 182.034 176.388 182.623 176.388 183.284V183.611C176.388 184.272 176.251 184.86 175.978 185.374C175.707 185.888 175.325 186.287 174.83 186.57C174.335 186.854 173.777 186.997 173.155 187H170.953ZM172.418 181.077V185.823H173.126C173.699 185.823 174.137 185.636 174.439 185.262C174.742 184.887 174.897 184.352 174.903 183.655V183.279C174.903 182.557 174.754 182.01 174.454 181.639C174.155 181.264 173.717 181.077 173.141 181.077H172.418ZM181.734 183.919H178.922V185.823H182.223V187H177.457V179.891H182.213V181.077H178.922V182.771H181.734V183.919ZM116.222 198.632C116.166 199.397 115.883 199.999 115.372 200.438C114.864 200.878 114.194 201.098 113.36 201.098C112.449 201.098 111.731 200.792 111.207 200.18C110.686 199.564 110.426 198.721 110.426 197.65V197.216C110.426 196.532 110.546 195.93 110.787 195.409C111.028 194.888 111.371 194.49 111.817 194.213C112.267 193.933 112.787 193.793 113.38 193.793C114.2 193.793 114.861 194.013 115.362 194.452C115.864 194.892 116.153 195.508 116.231 196.303H114.767C114.731 195.844 114.602 195.512 114.381 195.307C114.163 195.098 113.829 194.994 113.38 194.994C112.892 194.994 112.525 195.17 112.281 195.521C112.04 195.87 111.917 196.412 111.91 197.147V197.685C111.91 198.453 112.026 199.014 112.257 199.369C112.491 199.724 112.859 199.901 113.36 199.901C113.813 199.901 114.15 199.799 114.371 199.594C114.596 199.385 114.724 199.065 114.757 198.632H116.222ZM123.023 197.606C123.023 198.306 122.9 198.92 122.652 199.447C122.405 199.975 122.05 200.382 121.588 200.668C121.129 200.954 120.602 201.098 120.006 201.098C119.417 201.098 118.891 200.956 118.429 200.673C117.966 200.39 117.608 199.986 117.354 199.462C117.101 198.935 116.972 198.329 116.969 197.646V197.294C116.969 196.594 117.094 195.979 117.345 195.448C117.599 194.914 117.955 194.506 118.414 194.223C118.876 193.936 119.404 193.793 119.996 193.793C120.589 193.793 121.114 193.936 121.573 194.223C122.035 194.506 122.392 194.914 122.643 195.448C122.896 195.979 123.023 196.592 123.023 197.289V197.606ZM121.539 197.284C121.539 196.539 121.406 195.972 121.139 195.585C120.872 195.198 120.491 195.004 119.996 195.004C119.505 195.004 119.125 195.196 118.858 195.58C118.591 195.961 118.456 196.521 118.453 197.26V197.606C118.453 198.332 118.587 198.896 118.854 199.296C119.12 199.696 119.505 199.896 120.006 199.896C120.497 199.896 120.875 199.704 121.139 199.32C121.402 198.933 121.536 198.37 121.539 197.631V197.284ZM129.869 201H128.404L125.553 196.322V201H124.088V193.891H125.553L128.409 198.578V193.891H129.869V201ZM134.835 199.135C134.835 198.858 134.737 198.646 134.542 198.5C134.347 198.35 133.995 198.194 133.487 198.031C132.979 197.865 132.577 197.702 132.281 197.543C131.474 197.107 131.07 196.519 131.07 195.78C131.07 195.396 131.178 195.054 131.393 194.755C131.611 194.452 131.922 194.216 132.325 194.047C132.732 193.878 133.188 193.793 133.692 193.793C134.2 193.793 134.653 193.886 135.05 194.071C135.447 194.254 135.755 194.512 135.973 194.848C136.194 195.183 136.305 195.564 136.305 195.99H134.84C134.84 195.665 134.737 195.412 134.532 195.233C134.327 195.051 134.039 194.96 133.668 194.96C133.31 194.96 133.032 195.036 132.833 195.189C132.634 195.339 132.535 195.538 132.535 195.785C132.535 196.016 132.651 196.21 132.882 196.366C133.116 196.522 133.46 196.669 133.912 196.806C134.745 197.056 135.353 197.367 135.733 197.738C136.114 198.109 136.305 198.572 136.305 199.125C136.305 199.74 136.072 200.224 135.606 200.575C135.141 200.924 134.514 201.098 133.727 201.098C133.18 201.098 132.682 200.998 132.232 200.8C131.783 200.598 131.44 200.323 131.202 199.975C130.968 199.626 130.851 199.223 130.851 198.764H132.32C132.32 199.548 132.789 199.94 133.727 199.94C134.075 199.94 134.347 199.87 134.542 199.73C134.737 199.587 134.835 199.389 134.835 199.135ZM142.882 198.632C142.826 199.397 142.543 199.999 142.032 200.438C141.524 200.878 140.854 201.098 140.021 201.098C139.109 201.098 138.391 200.792 137.867 200.18C137.346 199.564 137.086 198.721 137.086 197.65V197.216C137.086 196.532 137.206 195.93 137.447 195.409C137.688 194.888 138.032 194.49 138.478 194.213C138.927 193.933 139.448 193.793 140.04 193.793C140.86 193.793 141.521 194.013 142.022 194.452C142.524 194.892 142.813 195.508 142.892 196.303H141.427C141.391 195.844 141.262 195.512 141.041 195.307C140.823 195.098 140.489 194.994 140.04 194.994C139.552 194.994 139.186 195.17 138.941 195.521C138.701 195.87 138.577 196.412 138.57 197.147V197.685C138.57 198.453 138.686 199.014 138.917 199.369C139.151 199.724 139.519 199.901 140.021 199.901C140.473 199.901 140.81 199.799 141.031 199.594C141.256 199.385 141.384 199.065 141.417 198.632H142.882ZM145.401 201H143.937V193.891H145.401V201ZM151.041 197.919H148.229V199.823H151.529V201H146.764V193.891H151.52V195.077H148.229V196.771H151.041V197.919ZM158.17 201H156.705L153.854 196.322V201H152.389V193.891H153.854L156.71 198.578V193.891H158.17V201ZM164.654 195.077H162.477V201H161.012V195.077H158.863V193.891H164.654V195.077ZM169.771 197.919H166.959V199.823H170.26V201H165.494V193.891H170.25V195.077H166.959V196.771H169.771V197.919ZM173.033 193.891L174.859 199.047L176.676 193.891H178.6V201H177.13V199.057L177.276 195.702L175.357 201H174.352L172.438 195.707L172.584 199.057V201H171.119V193.891H173.033ZM184.156 197.919H181.344V199.823H184.645V201H179.879V193.891H184.635V195.077H181.344V196.771H184.156V197.919ZM191.285 201H189.82L186.969 196.322V201H185.504V193.891H186.969L189.825 198.578V193.891H191.285V201ZM197.77 195.077H195.592V201H194.127V195.077H191.979V193.891H197.77V195.077ZM202.887 197.919H200.074V199.823H203.375V201H198.609V193.891H203.365V195.077H200.074V196.771H202.887V197.919ZM212.564 197.606C212.564 198.306 212.441 198.92 212.193 199.447C211.946 199.975 211.591 200.382 211.129 200.668C210.67 200.954 210.143 201.098 209.547 201.098C208.958 201.098 208.432 200.956 207.97 200.673C207.507 200.39 207.149 199.986 206.896 199.462C206.642 198.935 206.513 198.329 206.51 197.646V197.294C206.51 196.594 206.635 195.979 206.886 195.448C207.14 194.914 207.496 194.506 207.955 194.223C208.417 193.936 208.945 193.793 209.537 193.793C210.13 193.793 210.655 193.936 211.114 194.223C211.576 194.506 211.933 194.914 212.184 195.448C212.438 195.979 212.564 196.592 212.564 197.289V197.606ZM211.08 197.284C211.08 196.539 210.947 195.972 210.68 195.585C210.413 195.198 210.032 195.004 209.537 195.004C209.046 195.004 208.666 195.196 208.399 195.58C208.132 195.961 207.997 196.521 207.994 197.26V197.606C207.994 198.332 208.128 198.896 208.395 199.296C208.661 199.696 209.046 199.896 209.547 199.896C210.038 199.896 210.416 199.704 210.68 199.32C210.943 198.933 211.077 198.37 211.08 197.631V197.284ZM111.905 215H110.44V207.891H111.905V215ZM119.049 215H117.584L114.732 210.322V215H113.268V207.891H114.732L117.589 212.578V207.891H119.049V215ZM125.909 212.632C125.854 213.397 125.571 213.999 125.06 214.438C124.552 214.878 123.881 215.098 123.048 215.098C122.136 215.098 121.419 214.792 120.895 214.18C120.374 213.564 120.113 212.721 120.113 211.65V211.216C120.113 210.532 120.234 209.93 120.475 209.409C120.715 208.888 121.059 208.49 121.505 208.213C121.954 207.933 122.475 207.793 123.067 207.793C123.888 207.793 124.549 208.013 125.05 208.452C125.551 208.892 125.841 209.508 125.919 210.303H124.454C124.418 209.844 124.29 209.512 124.068 209.307C123.85 209.098 123.517 208.994 123.067 208.994C122.579 208.994 122.213 209.17 121.969 209.521C121.728 209.87 121.604 210.412 121.598 211.147V211.685C121.598 212.453 121.713 213.014 121.944 213.369C122.179 213.724 122.547 213.901 123.048 213.901C123.5 213.901 123.837 213.799 124.059 213.594C124.283 213.385 124.412 213.065 124.444 212.632H125.909ZM132.711 211.606C132.711 212.306 132.587 212.92 132.34 213.447C132.092 213.975 131.738 214.382 131.275 214.668C130.816 214.954 130.289 215.098 129.693 215.098C129.104 215.098 128.578 214.956 128.116 214.673C127.654 214.39 127.296 213.986 127.042 213.462C126.788 212.935 126.66 212.329 126.656 211.646V211.294C126.656 210.594 126.782 209.979 127.032 209.448C127.286 208.914 127.643 208.506 128.102 208.223C128.564 207.936 129.091 207.793 129.684 207.793C130.276 207.793 130.802 207.936 131.261 208.223C131.723 208.506 132.079 208.914 132.33 209.448C132.584 209.979 132.711 210.592 132.711 211.289V211.606ZM131.227 211.284C131.227 210.539 131.093 209.972 130.826 209.585C130.559 209.198 130.178 209.004 129.684 209.004C129.192 209.004 128.813 209.196 128.546 209.58C128.279 209.961 128.144 210.521 128.141 211.26V211.606C128.141 212.332 128.274 212.896 128.541 213.296C128.808 213.696 129.192 213.896 129.693 213.896C130.185 213.896 130.562 213.704 130.826 213.32C131.09 212.933 131.223 212.37 131.227 211.631V211.284ZM139.557 215H138.092L135.24 210.322V215H133.775V207.891H135.24L138.097 212.578V207.891H139.557V215ZM144.522 213.135C144.522 212.858 144.425 212.646 144.229 212.5C144.034 212.35 143.683 212.194 143.175 212.031C142.667 211.865 142.265 211.702 141.969 211.543C141.161 211.107 140.758 210.519 140.758 209.78C140.758 209.396 140.865 209.054 141.08 208.755C141.298 208.452 141.609 208.216 142.013 208.047C142.42 207.878 142.875 207.793 143.38 207.793C143.888 207.793 144.34 207.886 144.737 208.071C145.134 208.254 145.442 208.512 145.66 208.848C145.882 209.183 145.992 209.564 145.992 209.99H144.527C144.527 209.665 144.425 209.412 144.22 209.233C144.015 209.051 143.727 208.96 143.355 208.96C142.997 208.96 142.719 209.036 142.521 209.189C142.322 209.339 142.223 209.538 142.223 209.785C142.223 210.016 142.338 210.21 142.569 210.366C142.804 210.522 143.147 210.669 143.6 210.806C144.433 211.056 145.04 211.367 145.421 211.738C145.802 212.109 145.992 212.572 145.992 213.125C145.992 213.74 145.759 214.224 145.294 214.575C144.828 214.924 144.202 215.098 143.414 215.098C142.867 215.098 142.369 214.998 141.92 214.8C141.471 214.598 141.127 214.323 140.89 213.975C140.655 213.626 140.538 213.223 140.538 212.764H142.008C142.008 213.548 142.477 213.94 143.414 213.94C143.762 213.94 144.034 213.87 144.229 213.73C144.425 213.587 144.522 213.389 144.522 213.135ZM152.569 212.632C152.514 213.397 152.231 213.999 151.72 214.438C151.212 214.878 150.541 215.098 149.708 215.098C148.797 215.098 148.079 214.792 147.555 214.18C147.034 213.564 146.773 212.721 146.773 211.65V211.216C146.773 210.532 146.894 209.93 147.135 209.409C147.376 208.888 147.719 208.49 148.165 208.213C148.614 207.933 149.135 207.793 149.728 207.793C150.548 207.793 151.209 208.013 151.71 208.452C152.211 208.892 152.501 209.508 152.579 210.303H151.114C151.078 209.844 150.95 209.512 150.729 209.307C150.51 209.098 150.177 208.994 149.728 208.994C149.239 208.994 148.873 209.17 148.629 209.521C148.388 209.87 148.264 210.412 148.258 211.147V211.685C148.258 212.453 148.373 213.014 148.604 213.369C148.839 213.724 149.207 213.901 149.708 213.901C150.16 213.901 150.497 213.799 150.719 213.594C150.943 213.385 151.072 213.065 151.104 212.632H152.569ZM155.089 215H153.624V207.891H155.089V215ZM160.729 211.919H157.916V213.823H161.217V215H156.451V207.891H161.207V209.077H157.916V210.771H160.729V211.919ZM167.857 215H166.393L163.541 210.322V215H162.076V207.891H163.541L166.397 212.578V207.891H167.857V215ZM174.342 209.077H172.164V215H170.699V209.077H168.551V207.891H174.342V209.077ZM179.459 211.919H176.646V213.823H179.947V215H175.182V207.891H179.938V209.077H176.646V210.771H179.459V211.919ZM182.721 207.891L184.547 213.047L186.363 207.891H188.287V215H186.817V213.057L186.964 209.702L185.045 215H184.039L182.125 209.707L182.271 213.057V215H180.807V207.891H182.721ZM193.844 211.919H191.031V213.823H194.332V215H189.566V207.891H194.322V209.077H191.031V210.771H193.844V211.919ZM200.973 215H199.508L196.656 210.322V215H195.191V207.891H196.656L199.513 212.578V207.891H200.973V215ZM207.457 209.077H205.279V215H203.814V209.077H201.666V207.891H207.457V209.077ZM212.574 211.919H209.762V213.823H213.062V215H208.297V207.891H213.053V209.077H209.762V210.771H212.574V211.919Z" fill="#60347B"/>
<path d="M334.979 173H328.157V171.646L331.377 168.215C331.819 167.732 332.145 167.31 332.354 166.95C332.569 166.59 332.676 166.248 332.676 165.925C332.676 165.483 332.564 165.136 332.341 164.886C332.118 164.631 331.799 164.503 331.384 164.503C330.937 164.503 330.584 164.658 330.324 164.968C330.069 165.273 329.941 165.676 329.941 166.178H327.959C327.959 165.572 328.103 165.018 328.39 164.517C328.681 164.015 329.091 163.623 329.62 163.341C330.149 163.054 330.748 162.91 331.418 162.91C332.443 162.91 333.239 163.156 333.804 163.648C334.373 164.141 334.658 164.836 334.658 165.733C334.658 166.226 334.531 166.727 334.275 167.237C334.02 167.748 333.583 168.342 332.963 169.021L330.7 171.407H334.979V173ZM315.04 185.535H312.472L311.983 187H310.426L313.072 179.891H314.43L317.091 187H315.533L315.04 185.535ZM312.867 184.349H314.645L313.751 181.688L312.867 184.349ZM321.441 185.135C321.441 184.858 321.344 184.646 321.148 184.5C320.953 184.35 320.602 184.194 320.094 184.031C319.586 183.865 319.184 183.702 318.888 183.543C318.08 183.107 317.677 182.519 317.677 181.78C317.677 181.396 317.784 181.054 317.999 180.755C318.217 180.452 318.528 180.216 318.932 180.047C319.339 179.878 319.794 179.793 320.299 179.793C320.807 179.793 321.259 179.886 321.656 180.071C322.053 180.254 322.361 180.512 322.579 180.848C322.8 181.183 322.911 181.564 322.911 181.99H321.446C321.446 181.665 321.344 181.412 321.139 181.233C320.934 181.051 320.646 180.96 320.274 180.96C319.916 180.96 319.638 181.036 319.439 181.189C319.241 181.339 319.142 181.538 319.142 181.785C319.142 182.016 319.257 182.21 319.488 182.366C319.723 182.522 320.066 182.669 320.519 182.806C321.352 183.056 321.959 183.367 322.34 183.738C322.721 184.109 322.911 184.572 322.911 185.125C322.911 185.74 322.678 186.224 322.213 186.575C321.747 186.924 321.121 187.098 320.333 187.098C319.786 187.098 319.288 186.998 318.839 186.8C318.39 186.598 318.046 186.323 317.809 185.975C317.574 185.626 317.457 185.223 317.457 184.764H318.927C318.927 185.548 319.396 185.94 320.333 185.94C320.681 185.94 320.953 185.87 321.148 185.73C321.344 185.587 321.441 185.389 321.441 185.135ZM325.465 187H324V179.891H325.465V187ZM328.741 179.891L330.567 185.047L332.384 179.891H334.308V187H332.838V185.057L332.984 181.702L331.065 187H330.06L328.146 181.707L328.292 185.057V187H326.827V179.891H328.741ZM337.145 187H335.68V179.891H337.145V187ZM339.972 185.823H343.082V187H338.507V179.891H339.972V185.823ZM348.038 185.535H345.47L344.981 187H343.424L346.07 179.891H347.428L350.089 187H348.531L348.038 185.535ZM345.865 184.349H347.643L346.749 181.688L345.865 184.349ZM286.222 198.632C286.166 199.397 285.883 199.999 285.372 200.438C284.864 200.878 284.194 201.098 283.36 201.098C282.449 201.098 281.731 200.792 281.207 200.18C280.686 199.564 280.426 198.721 280.426 197.65V197.216C280.426 196.532 280.546 195.93 280.787 195.409C281.028 194.888 281.371 194.49 281.817 194.213C282.267 193.933 282.787 193.793 283.38 193.793C284.2 193.793 284.861 194.013 285.362 194.452C285.864 194.892 286.153 195.508 286.231 196.303H284.767C284.731 195.844 284.602 195.512 284.381 195.307C284.163 195.098 283.829 194.994 283.38 194.994C282.892 194.994 282.525 195.17 282.281 195.521C282.04 195.87 281.917 196.412 281.91 197.147V197.685C281.91 198.453 282.026 199.014 282.257 199.369C282.491 199.724 282.859 199.901 283.36 199.901C283.813 199.901 284.15 199.799 284.371 199.594C284.596 199.385 284.724 199.065 284.757 198.632H286.222ZM293.023 197.606C293.023 198.306 292.9 198.92 292.652 199.447C292.405 199.975 292.05 200.382 291.588 200.668C291.129 200.954 290.602 201.098 290.006 201.098C289.417 201.098 288.891 200.956 288.429 200.673C287.966 200.39 287.608 199.986 287.354 199.462C287.101 198.935 286.972 198.329 286.969 197.646V197.294C286.969 196.594 287.094 195.979 287.345 195.448C287.599 194.914 287.955 194.506 288.414 194.223C288.876 193.936 289.404 193.793 289.996 193.793C290.589 193.793 291.114 193.936 291.573 194.223C292.035 194.506 292.392 194.914 292.643 195.448C292.896 195.979 293.023 196.592 293.023 197.289V197.606ZM291.539 197.284C291.539 196.539 291.406 195.972 291.139 195.585C290.872 195.198 290.491 195.004 289.996 195.004C289.505 195.004 289.125 195.196 288.858 195.58C288.591 195.961 288.456 196.521 288.453 197.26V197.606C288.453 198.332 288.587 198.896 288.854 199.296C289.12 199.696 289.505 199.896 290.006 199.896C290.497 199.896 290.875 199.704 291.139 199.32C291.402 198.933 291.536 198.37 291.539 197.631V197.284ZM299.869 201H298.404L295.553 196.322V201H294.088V193.891H295.553L298.409 198.578V193.891H299.869V201ZM304.835 199.135C304.835 198.858 304.737 198.646 304.542 198.5C304.347 198.35 303.995 198.194 303.487 198.031C302.979 197.865 302.577 197.702 302.281 197.543C301.474 197.107 301.07 196.519 301.07 195.78C301.07 195.396 301.178 195.054 301.393 194.755C301.611 194.452 301.922 194.216 302.325 194.047C302.732 193.878 303.188 193.793 303.692 193.793C304.2 193.793 304.653 193.886 305.05 194.071C305.447 194.254 305.755 194.512 305.973 194.848C306.194 195.183 306.305 195.564 306.305 195.99H304.84C304.84 195.665 304.737 195.412 304.532 195.233C304.327 195.051 304.039 194.96 303.668 194.96C303.31 194.96 303.032 195.036 302.833 195.189C302.634 195.339 302.535 195.538 302.535 195.785C302.535 196.016 302.651 196.21 302.882 196.366C303.116 196.522 303.46 196.669 303.912 196.806C304.745 197.056 305.353 197.367 305.733 197.738C306.114 198.109 306.305 198.572 306.305 199.125C306.305 199.74 306.072 200.224 305.606 200.575C305.141 200.924 304.514 201.098 303.727 201.098C303.18 201.098 302.682 200.998 302.232 200.8C301.783 200.598 301.44 200.323 301.202 199.975C300.968 199.626 300.851 199.223 300.851 198.764H302.32C302.32 199.548 302.789 199.94 303.727 199.94C304.075 199.94 304.347 199.87 304.542 199.73C304.737 199.587 304.835 199.389 304.835 199.135ZM312.882 198.632C312.826 199.397 312.543 199.999 312.032 200.438C311.524 200.878 310.854 201.098 310.021 201.098C309.109 201.098 308.391 200.792 307.867 200.18C307.346 199.564 307.086 198.721 307.086 197.65V197.216C307.086 196.532 307.206 195.93 307.447 195.409C307.688 194.888 308.032 194.49 308.478 194.213C308.927 193.933 309.448 193.793 310.04 193.793C310.86 193.793 311.521 194.013 312.022 194.452C312.524 194.892 312.813 195.508 312.892 196.303H311.427C311.391 195.844 311.262 195.512 311.041 195.307C310.823 195.098 310.489 194.994 310.04 194.994C309.552 194.994 309.186 195.17 308.941 195.521C308.701 195.87 308.577 196.412 308.57 197.147V197.685C308.57 198.453 308.686 199.014 308.917 199.369C309.151 199.724 309.519 199.901 310.021 199.901C310.473 199.901 310.81 199.799 311.031 199.594C311.256 199.385 311.384 199.065 311.417 198.632H312.882ZM315.401 201H313.937V193.891H315.401V201ZM321.041 197.919H318.229V199.823H321.529V201H316.764V193.891H321.52V195.077H318.229V196.771H321.041V197.919ZM328.17 201H326.705L323.854 196.322V201H322.389V193.891H323.854L326.71 198.578V193.891H328.17V201ZM334.654 195.077H332.477V201H331.012V195.077H328.863V193.891H334.654V195.077ZM339.771 197.919H336.959V199.823H340.26V201H335.494V193.891H340.25V195.077H336.959V196.771H339.771V197.919ZM343.033 193.891L344.859 199.047L346.676 193.891H348.6V201H347.13V199.057L347.276 195.702L345.357 201H344.352L342.438 195.707L342.584 199.057V201H341.119V193.891H343.033ZM354.156 197.919H351.344V199.823H354.645V201H349.879V193.891H354.635V195.077H351.344V196.771H354.156V197.919ZM361.285 201H359.82L356.969 196.322V201H355.504V193.891H356.969L359.825 198.578V193.891H361.285V201ZM367.77 195.077H365.592V201H364.127V195.077H361.979V193.891H367.77V195.077ZM372.887 197.919H370.074V199.823H373.375V201H368.609V193.891H373.365V195.077H370.074V196.771H372.887V197.919ZM382.564 197.606C382.564 198.306 382.441 198.92 382.193 199.447C381.946 199.975 381.591 200.382 381.129 200.668C380.67 200.954 380.143 201.098 379.547 201.098C378.958 201.098 378.432 200.956 377.97 200.673C377.507 200.39 377.149 199.986 376.896 199.462C376.642 198.935 376.513 198.329 376.51 197.646V197.294C376.51 196.594 376.635 195.979 376.886 195.448C377.14 194.914 377.496 194.506 377.955 194.223C378.417 193.936 378.945 193.793 379.537 193.793C380.13 193.793 380.655 193.936 381.114 194.223C381.576 194.506 381.933 194.914 382.184 195.448C382.438 195.979 382.564 196.592 382.564 197.289V197.606ZM381.08 197.284C381.08 196.539 380.947 195.972 380.68 195.585C380.413 195.198 380.032 195.004 379.537 195.004C379.046 195.004 378.666 195.196 378.399 195.58C378.132 195.961 377.997 196.521 377.994 197.26V197.606C377.994 198.332 378.128 198.896 378.395 199.296C378.661 199.696 379.046 199.896 379.547 199.896C380.038 199.896 380.416 199.704 380.68 199.32C380.943 198.933 381.077 198.37 381.08 197.631V197.284ZM281.905 215H280.44V207.891H281.905V215ZM289.049 215H287.584L284.732 210.322V215H283.268V207.891H284.732L287.589 212.578V207.891H289.049V215ZM295.909 212.632C295.854 213.397 295.571 213.999 295.06 214.438C294.552 214.878 293.881 215.098 293.048 215.098C292.136 215.098 291.419 214.792 290.895 214.18C290.374 213.564 290.113 212.721 290.113 211.65V211.216C290.113 210.532 290.234 209.93 290.475 209.409C290.715 208.888 291.059 208.49 291.505 208.213C291.954 207.933 292.475 207.793 293.067 207.793C293.888 207.793 294.549 208.013 295.05 208.452C295.551 208.892 295.841 209.508 295.919 210.303H294.454C294.418 209.844 294.29 209.512 294.068 209.307C293.85 209.098 293.517 208.994 293.067 208.994C292.579 208.994 292.213 209.17 291.969 209.521C291.728 209.87 291.604 210.412 291.598 211.147V211.685C291.598 212.453 291.713 213.014 291.944 213.369C292.179 213.724 292.547 213.901 293.048 213.901C293.5 213.901 293.837 213.799 294.059 213.594C294.283 213.385 294.412 213.065 294.444 212.632H295.909ZM302.711 211.606C302.711 212.306 302.587 212.92 302.34 213.447C302.092 213.975 301.738 214.382 301.275 214.668C300.816 214.954 300.289 215.098 299.693 215.098C299.104 215.098 298.578 214.956 298.116 214.673C297.654 214.39 297.296 213.986 297.042 213.462C296.788 212.935 296.66 212.329 296.656 211.646V211.294C296.656 210.594 296.782 209.979 297.032 209.448C297.286 208.914 297.643 208.506 298.102 208.223C298.564 207.936 299.091 207.793 299.684 207.793C300.276 207.793 300.802 207.936 301.261 208.223C301.723 208.506 302.079 208.914 302.33 209.448C302.584 209.979 302.711 210.592 302.711 211.289V211.606ZM301.227 211.284C301.227 210.539 301.093 209.972 300.826 209.585C300.559 209.198 300.178 209.004 299.684 209.004C299.192 209.004 298.813 209.196 298.546 209.58C298.279 209.961 298.144 210.521 298.141 211.26V211.606C298.141 212.332 298.274 212.896 298.541 213.296C298.808 213.696 299.192 213.896 299.693 213.896C300.185 213.896 300.562 213.704 300.826 213.32C301.09 212.933 301.223 212.37 301.227 211.631V211.284ZM309.557 215H308.092L305.24 210.322V215H303.775V207.891H305.24L308.097 212.578V207.891H309.557V215ZM314.522 213.135C314.522 212.858 314.425 212.646 314.229 212.5C314.034 212.35 313.683 212.194 313.175 212.031C312.667 211.865 312.265 211.702 311.969 211.543C311.161 211.107 310.758 210.519 310.758 209.78C310.758 209.396 310.865 209.054 311.08 208.755C311.298 208.452 311.609 208.216 312.013 208.047C312.42 207.878 312.875 207.793 313.38 207.793C313.888 207.793 314.34 207.886 314.737 208.071C315.134 208.254 315.442 208.512 315.66 208.848C315.882 209.183 315.992 209.564 315.992 209.99H314.527C314.527 209.665 314.425 209.412 314.22 209.233C314.015 209.051 313.727 208.96 313.355 208.96C312.997 208.96 312.719 209.036 312.521 209.189C312.322 209.339 312.223 209.538 312.223 209.785C312.223 210.016 312.338 210.21 312.569 210.366C312.804 210.522 313.147 210.669 313.6 210.806C314.433 211.056 315.04 211.367 315.421 211.738C315.802 212.109 315.992 212.572 315.992 213.125C315.992 213.74 315.759 214.224 315.294 214.575C314.828 214.924 314.202 215.098 313.414 215.098C312.867 215.098 312.369 214.998 311.92 214.8C311.471 214.598 311.127 214.323 310.89 213.975C310.655 213.626 310.538 213.223 310.538 212.764H312.008C312.008 213.548 312.477 213.94 313.414 213.94C313.762 213.94 314.034 213.87 314.229 213.73C314.425 213.587 314.522 213.389 314.522 213.135ZM322.569 212.632C322.514 213.397 322.231 213.999 321.72 214.438C321.212 214.878 320.541 215.098 319.708 215.098C318.797 215.098 318.079 214.792 317.555 214.18C317.034 213.564 316.773 212.721 316.773 211.65V211.216C316.773 210.532 316.894 209.93 317.135 209.409C317.376 208.888 317.719 208.49 318.165 208.213C318.614 207.933 319.135 207.793 319.728 207.793C320.548 207.793 321.209 208.013 321.71 208.452C322.211 208.892 322.501 209.508 322.579 210.303H321.114C321.078 209.844 320.95 209.512 320.729 209.307C320.51 209.098 320.177 208.994 319.728 208.994C319.239 208.994 318.873 209.17 318.629 209.521C318.388 209.87 318.264 210.412 318.258 211.147V211.685C318.258 212.453 318.373 213.014 318.604 213.369C318.839 213.724 319.207 213.901 319.708 213.901C320.16 213.901 320.497 213.799 320.719 213.594C320.943 213.385 321.072 213.065 321.104 212.632H322.569ZM325.089 215H323.624V207.891H325.089V215ZM330.729 211.919H327.916V213.823H331.217V215H326.451V207.891H331.207V209.077H327.916V210.771H330.729V211.919ZM337.857 215H336.393L333.541 210.322V215H332.076V207.891H333.541L336.397 212.578V207.891H337.857V215ZM344.342 209.077H342.164V215H340.699V209.077H338.551V207.891H344.342V209.077ZM349.459 211.919H346.646V213.823H349.947V215H345.182V207.891H349.938V209.077H346.646V210.771H349.459V211.919ZM352.721 207.891L354.547 213.047L356.363 207.891H358.287V215H356.817V213.057L356.964 209.702L355.045 215H354.039L352.125 209.707L352.271 213.057V215H350.807V207.891H352.721ZM363.844 211.919H361.031V213.823H364.332V215H359.566V207.891H364.322V209.077H361.031V210.771H363.844V211.919ZM370.973 215H369.508L366.656 210.322V215H365.191V207.891H366.656L369.513 212.578V207.891H370.973V215ZM377.457 209.077H375.279V215H373.814V209.077H371.666V207.891H377.457V209.077ZM382.574 211.919H379.762V213.823H383.062V215H378.297V207.891H383.053V209.077H379.762V210.771H382.574V211.919Z" fill="#60347B"/>
<path d="M617.924 167.148H618.977C619.478 167.148 619.849 167.023 620.091 166.772C620.332 166.522 620.453 166.189 620.453 165.774C620.453 165.373 620.332 165.061 620.091 164.838C619.854 164.615 619.526 164.503 619.106 164.503C618.728 164.503 618.411 164.608 618.156 164.817C617.901 165.022 617.773 165.291 617.773 165.624H615.798C615.798 165.104 615.937 164.64 616.215 164.229C616.497 163.815 616.889 163.491 617.391 163.259C617.896 163.026 618.452 162.91 619.059 162.91C620.111 162.91 620.936 163.163 621.533 163.669C622.13 164.17 622.429 164.863 622.429 165.747C622.429 166.203 622.29 166.622 622.012 167.005C621.734 167.388 621.369 167.682 620.918 167.887C621.479 168.087 621.896 168.388 622.169 168.789C622.447 169.19 622.586 169.664 622.586 170.211C622.586 171.095 622.262 171.804 621.615 172.337C620.973 172.87 620.12 173.137 619.059 173.137C618.065 173.137 617.252 172.875 616.618 172.351C615.989 171.826 615.675 171.134 615.675 170.272H617.65C617.65 170.646 617.789 170.951 618.067 171.188C618.35 171.425 618.696 171.544 619.106 171.544C619.576 171.544 619.943 171.421 620.207 171.175C620.476 170.924 620.61 170.594 620.61 170.184C620.61 169.19 620.063 168.693 618.97 168.693H617.924V167.148ZM557.426 185.535H554.857L554.369 187H552.812L555.458 179.891H556.815L559.477 187H557.919L557.426 185.535ZM555.253 184.349H557.03L556.137 181.688L555.253 184.349ZM561.605 184.495V187H560.141V179.891H562.914C563.448 179.891 563.917 179.988 564.32 180.184C564.727 180.379 565.04 180.657 565.258 181.019C565.476 181.377 565.585 181.785 565.585 182.244C565.585 182.941 565.346 183.491 564.867 183.895C564.392 184.295 563.733 184.495 562.89 184.495H561.605ZM561.605 183.309H562.914C563.301 183.309 563.596 183.217 563.798 183.035C564.003 182.853 564.105 182.592 564.105 182.254C564.105 181.906 564.003 181.624 563.798 181.409C563.593 181.194 563.31 181.084 562.948 181.077H561.605V183.309ZM568.061 185.823H571.171V187H566.596V179.891H568.061V185.823ZM573.573 187H572.108V179.891H573.573V187ZM580.517 184.632C580.461 185.397 580.178 185.999 579.667 186.438C579.159 186.878 578.489 187.098 577.655 187.098C576.744 187.098 576.026 186.792 575.502 186.18C574.981 185.564 574.721 184.721 574.721 183.65V183.216C574.721 182.532 574.841 181.93 575.082 181.409C575.323 180.888 575.666 180.49 576.112 180.213C576.562 179.933 577.082 179.793 577.675 179.793C578.495 179.793 579.156 180.013 579.657 180.452C580.159 180.892 580.448 181.508 580.526 182.303H579.062C579.026 181.844 578.897 181.512 578.676 181.307C578.458 181.098 578.124 180.994 577.675 180.994C577.187 180.994 576.82 181.17 576.576 181.521C576.335 181.87 576.212 182.412 576.205 183.147V183.685C576.205 184.453 576.321 185.014 576.552 185.369C576.786 185.724 577.154 185.901 577.655 185.901C578.108 185.901 578.445 185.799 578.666 185.594C578.891 185.385 579.019 185.065 579.052 184.632H580.517ZM585.492 185.535H582.924L582.436 187H580.878L583.524 179.891H584.882L587.543 187H585.985L585.492 185.535ZM583.319 184.349H585.097L584.203 181.688L583.319 184.349ZM594.711 185.535H592.143L591.654 187H590.097L592.743 179.891H594.101L596.762 187H595.204L594.711 185.535ZM592.538 184.349H594.315L593.422 181.688L592.538 184.349ZM602.719 179.891V184.573C602.719 185.351 602.475 185.966 601.986 186.419C601.501 186.871 600.837 187.098 599.994 187.098C599.164 187.098 598.505 186.878 598.017 186.438C597.528 185.999 597.279 185.395 597.27 184.627V179.891H598.734V184.583C598.734 185.049 598.845 185.389 599.066 185.604C599.291 185.815 599.6 185.921 599.994 185.921C600.818 185.921 601.236 185.488 601.249 184.622V179.891H602.719ZM609.271 181.077H607.094V187H605.629V181.077H603.48V179.891H609.271V181.077ZM615.814 183.606C615.814 184.306 615.691 184.92 615.443 185.447C615.196 185.975 614.841 186.382 614.379 186.668C613.92 186.954 613.393 187.098 612.797 187.098C612.208 187.098 611.682 186.956 611.22 186.673C610.757 186.39 610.399 185.986 610.146 185.462C609.892 184.935 609.763 184.329 609.76 183.646V183.294C609.76 182.594 609.885 181.979 610.136 181.448C610.39 180.914 610.746 180.506 611.205 180.223C611.667 179.936 612.195 179.793 612.787 179.793C613.38 179.793 613.905 179.936 614.364 180.223C614.826 180.506 615.183 180.914 615.434 181.448C615.688 181.979 615.814 182.592 615.814 183.289V183.606ZM614.33 183.284C614.33 182.539 614.197 181.972 613.93 181.585C613.663 181.198 613.282 181.004 612.787 181.004C612.296 181.004 611.916 181.196 611.649 181.58C611.382 181.961 611.247 182.521 611.244 183.26V183.606C611.244 184.332 611.378 184.896 611.645 185.296C611.911 185.696 612.296 185.896 612.797 185.896C613.288 185.896 613.666 185.704 613.93 185.32C614.193 184.933 614.327 184.37 614.33 183.631V183.284ZM618.793 179.891L620.619 185.047L622.436 179.891H624.359V187H622.89V185.057L623.036 181.702L621.117 187H620.111L618.197 181.707L618.344 185.057V187H616.879V179.891H618.793ZM629.74 185.535H627.172L626.684 187H625.126L627.772 179.891H629.13L631.791 187H630.233L629.74 185.535ZM627.567 184.349H629.345L628.451 181.688L627.567 184.349ZM637.221 181.077H635.043V187H633.578V181.077H631.43V179.891H637.221V181.077ZM639.618 187H638.153V179.891H639.618V187ZM646.562 184.632C646.506 185.397 646.223 185.999 645.712 186.438C645.204 186.878 644.534 187.098 643.7 187.098C642.789 187.098 642.071 186.792 641.547 186.18C641.026 185.564 640.766 184.721 640.766 183.65V183.216C640.766 182.532 640.886 181.93 641.127 181.409C641.368 180.888 641.711 180.49 642.157 180.213C642.606 179.933 643.127 179.793 643.72 179.793C644.54 179.793 645.201 180.013 645.702 180.452C646.203 180.892 646.493 181.508 646.571 182.303H645.106C645.071 181.844 644.942 181.512 644.721 181.307C644.503 181.098 644.169 180.994 643.72 180.994C643.231 180.994 642.865 181.17 642.621 181.521C642.38 181.87 642.257 182.412 642.25 183.147V183.685C642.25 184.453 642.366 185.014 642.597 185.369C642.831 185.724 643.199 185.901 643.7 185.901C644.153 185.901 644.49 185.799 644.711 185.594C644.936 185.385 645.064 185.065 645.097 184.632H646.562ZM651.537 185.535H648.969L648.48 187H646.923L649.569 179.891H650.927L653.588 187H652.03L651.537 185.535ZM649.364 184.349H651.142L650.248 181.688L649.364 184.349ZM656.166 179.891L657.992 185.047L659.809 179.891H661.732V187H660.263V185.057L660.409 181.702L658.49 187H657.484L655.57 181.707L655.717 185.057V187H654.252V179.891H656.166ZM667.289 183.919H664.477V185.823H667.777V187H663.012V179.891H667.768V181.077H664.477V182.771H667.289V183.919ZM674.418 187H672.953L670.102 182.322V187H668.637V179.891H670.102L672.958 184.578V179.891H674.418V187ZM680.902 181.077H678.725V187H677.26V181.077H675.111V179.891H680.902V181.077ZM686.02 183.919H683.207V185.823H686.508V187H681.742V179.891H686.498V181.077H683.207V182.771H686.02V183.919ZM589.281 199.823H592.392V201H587.816V193.891H589.281V199.823ZM598.764 197.606C598.764 198.306 598.64 198.92 598.393 199.447C598.145 199.975 597.79 200.382 597.328 200.668C596.869 200.954 596.342 201.098 595.746 201.098C595.157 201.098 594.631 200.956 594.169 200.673C593.707 200.39 593.349 199.986 593.095 199.462C592.841 198.935 592.712 198.329 592.709 197.646V197.294C592.709 196.594 592.834 195.979 593.085 195.448C593.339 194.914 593.695 194.506 594.154 194.223C594.617 193.936 595.144 193.793 595.736 193.793C596.329 193.793 596.854 193.936 597.313 194.223C597.776 194.506 598.132 194.914 598.383 195.448C598.637 195.979 598.764 196.592 598.764 197.289V197.606ZM597.279 197.284C597.279 196.539 597.146 195.972 596.879 195.585C596.612 195.198 596.231 195.004 595.736 195.004C595.245 195.004 594.866 195.196 594.599 195.58C594.332 195.961 594.197 196.521 594.193 197.26V197.606C594.193 198.332 594.327 198.896 594.594 199.296C594.861 199.696 595.245 199.896 595.746 199.896C596.238 199.896 596.615 199.704 596.879 199.32C597.143 198.933 597.276 198.37 597.279 197.631V197.284ZM606.332 199.535H603.764L603.275 201H601.718L604.364 193.891H605.722L608.383 201H606.825L606.332 199.535ZM604.159 198.349H605.937L605.043 195.688L604.159 198.349ZM612.733 199.135C612.733 198.858 612.636 198.646 612.44 198.5C612.245 198.35 611.894 198.194 611.386 198.031C610.878 197.865 610.476 197.702 610.18 197.543C609.372 197.107 608.969 196.519 608.969 195.78C608.969 195.396 609.076 195.054 609.291 194.755C609.509 194.452 609.82 194.216 610.224 194.047C610.631 193.878 611.086 193.793 611.591 193.793C612.099 193.793 612.551 193.886 612.948 194.071C613.345 194.254 613.653 194.512 613.871 194.848C614.092 195.183 614.203 195.564 614.203 195.99H612.738C612.738 195.665 612.636 195.412 612.431 195.233C612.226 195.051 611.938 194.96 611.566 194.96C611.208 194.96 610.93 195.036 610.731 195.189C610.533 195.339 610.434 195.538 610.434 195.785C610.434 196.016 610.549 196.21 610.78 196.366C611.015 196.522 611.358 196.669 611.811 196.806C612.644 197.056 613.251 197.367 613.632 197.738C614.013 198.109 614.203 198.572 614.203 199.125C614.203 199.74 613.97 200.224 613.505 200.575C613.039 200.924 612.413 201.098 611.625 201.098C611.078 201.098 610.58 200.998 610.131 200.8C609.682 200.598 609.338 200.323 609.101 199.975C608.866 199.626 608.749 199.223 608.749 198.764H610.219C610.219 199.548 610.688 199.94 611.625 199.94C611.973 199.94 612.245 199.87 612.44 199.73C612.636 199.587 612.733 199.389 612.733 199.135ZM616.757 201H615.292V193.891H616.757V201ZM620.033 193.891L621.859 199.047L623.676 193.891H625.6V201H624.13V199.057L624.276 195.702L622.357 201H621.352L619.438 195.707L619.584 199.057V201H618.119V193.891H620.033ZM628.437 201H626.972V193.891H628.437V201ZM631.264 199.823H634.374V201H629.799V193.891H631.264V199.823ZM639.33 199.535H636.762L636.273 201H634.716L637.362 193.891H638.72L641.381 201H639.823L639.33 199.535ZM637.157 198.349H638.935L638.041 195.688L637.157 198.349ZM642.045 201V193.891H644.232C644.857 193.891 645.416 194.032 645.907 194.315C646.402 194.595 646.788 194.996 647.064 195.517C647.341 196.034 647.479 196.623 647.479 197.284V197.611C647.479 198.272 647.343 198.86 647.069 199.374C646.799 199.888 646.417 200.287 645.922 200.57C645.427 200.854 644.869 200.997 644.247 201H642.045ZM643.51 195.077V199.823H644.218C644.791 199.823 645.229 199.636 645.531 199.262C645.834 198.887 645.989 198.352 645.995 197.655V197.279C645.995 196.557 645.845 196.01 645.546 195.639C645.246 195.264 644.809 195.077 644.232 195.077H643.51ZM654.389 197.606C654.389 198.306 654.265 198.92 654.018 199.447C653.77 199.975 653.415 200.382 652.953 200.668C652.494 200.954 651.967 201.098 651.371 201.098C650.782 201.098 650.256 200.956 649.794 200.673C649.332 200.39 648.974 199.986 648.72 199.462C648.466 198.935 648.337 198.329 648.334 197.646V197.294C648.334 196.594 648.459 195.979 648.71 195.448C648.964 194.914 649.32 194.506 649.779 194.223C650.242 193.936 650.769 193.793 651.361 193.793C651.954 193.793 652.479 193.936 652.938 194.223C653.401 194.506 653.757 194.914 654.008 195.448C654.262 195.979 654.389 196.592 654.389 197.289V197.606ZM652.904 197.284C652.904 196.539 652.771 195.972 652.504 195.585C652.237 195.198 651.856 195.004 651.361 195.004C650.87 195.004 650.491 195.196 650.224 195.58C649.957 195.961 649.822 196.521 649.818 197.26V197.606C649.818 198.332 649.952 198.896 650.219 199.296C650.486 199.696 650.87 199.896 651.371 199.896C651.863 199.896 652.24 199.704 652.504 199.32C652.768 198.933 652.901 198.37 652.904 197.631V197.284Z" fill="#60347B"/>
<path d="M174.688 12.9492H171.093L170.409 15H168.229L171.934 5.04688H173.834L177.56 15H175.379L174.688 12.9492ZM171.646 11.2881H174.135L172.884 7.5625L171.646 11.2881ZM183.65 12.3887C183.65 12.0013 183.514 11.7051 183.24 11.5C182.967 11.2904 182.475 11.0716 181.764 10.8438C181.053 10.6113 180.49 10.3835 180.075 10.1602C178.945 9.54948 178.38 8.72689 178.38 7.69238C178.38 7.15462 178.53 6.67611 178.831 6.25684C179.136 5.83301 179.572 5.5026 180.137 5.26562C180.706 5.02865 181.344 4.91016 182.051 4.91016C182.762 4.91016 183.395 5.04004 183.951 5.2998C184.507 5.55501 184.938 5.91732 185.243 6.38672C185.553 6.85612 185.708 7.38932 185.708 7.98633H183.657C183.657 7.5306 183.514 7.17741 183.227 6.92676C182.939 6.67155 182.536 6.54395 182.017 6.54395C181.515 6.54395 181.126 6.65104 180.848 6.86523C180.57 7.07487 180.431 7.35286 180.431 7.69922C180.431 8.02279 180.592 8.29395 180.916 8.5127C181.244 8.73145 181.725 8.93652 182.358 9.12793C183.525 9.47884 184.375 9.91406 184.908 10.4336C185.441 10.9531 185.708 11.6003 185.708 12.375C185.708 13.2363 185.382 13.9131 184.73 14.4053C184.079 14.8929 183.201 15.1367 182.099 15.1367C181.333 15.1367 180.636 14.9977 180.007 14.7197C179.378 14.4372 178.897 14.0521 178.564 13.5645C178.236 13.0768 178.072 12.5117 178.072 11.8691H180.13C180.13 12.9674 180.786 13.5166 182.099 13.5166C182.586 13.5166 182.967 13.4186 183.24 13.2227C183.514 13.0221 183.65 12.7441 183.65 12.3887ZM189.283 15H187.232V5.04688H189.283V15ZM193.87 5.04688L196.427 12.2656L198.97 5.04688H201.663V15H199.605V12.2793L199.811 7.58301L197.124 15H195.716L193.036 7.58984L193.241 12.2793V15H191.19V5.04688H193.87ZM205.635 15H203.584V5.04688H205.635V15ZM209.593 13.3525H213.947V15H207.542V5.04688H209.593V13.3525ZM220.886 12.9492H217.29L216.606 15H214.426L218.131 5.04688H220.031L223.757 15H221.576L220.886 12.9492ZM217.844 11.2881H220.332L219.081 7.5625L217.844 11.2881ZM232.35 11.6846C232.272 12.7555 231.876 13.5986 231.16 14.2139C230.449 14.8291 229.51 15.1367 228.344 15.1367C227.068 15.1367 226.063 14.7083 225.329 13.8516C224.6 12.9902 224.235 11.8099 224.235 10.3105V9.70215C224.235 8.74512 224.404 7.90202 224.741 7.17285C225.078 6.44368 225.559 5.88542 226.184 5.49805C226.812 5.10612 227.542 4.91016 228.371 4.91016C229.52 4.91016 230.445 5.21777 231.146 5.83301C231.848 6.44824 232.254 7.31185 232.363 8.42383H230.312C230.262 7.78125 230.082 7.31641 229.772 7.0293C229.467 6.73763 229 6.5918 228.371 6.5918C227.688 6.5918 227.175 6.83789 226.833 7.33008C226.496 7.81771 226.323 8.5765 226.313 9.60645V10.3584C226.313 11.4339 226.475 12.2201 226.799 12.7168C227.127 13.2135 227.642 13.4619 228.344 13.4619C228.977 13.4619 229.449 13.3184 229.759 13.0312C230.073 12.7396 230.253 12.2907 230.299 11.6846H232.35ZM235.877 15H233.826V5.04688H235.877V15ZM245.96 10.249C245.96 11.2288 245.787 12.0879 245.44 12.8262C245.094 13.5645 244.597 14.1341 243.95 14.5352C243.308 14.9362 242.569 15.1367 241.735 15.1367C240.91 15.1367 240.174 14.9385 239.527 14.542C238.88 14.1455 238.379 13.5804 238.023 12.8467C237.668 12.1084 237.488 11.2607 237.483 10.3037V9.81152C237.483 8.83171 237.659 7.97038 238.01 7.22754C238.365 6.48014 238.864 5.9082 239.507 5.51172C240.154 5.11068 240.892 4.91016 241.722 4.91016C242.551 4.91016 243.287 5.11068 243.93 5.51172C244.577 5.9082 245.076 6.48014 245.427 7.22754C245.782 7.97038 245.96 8.82943 245.96 9.80469V10.249ZM243.882 9.79785C243.882 8.75423 243.695 7.96126 243.321 7.41895C242.948 6.87663 242.414 6.60547 241.722 6.60547C241.034 6.60547 240.503 6.87435 240.129 7.41211C239.755 7.94531 239.566 8.72917 239.562 9.76367V10.249C239.562 11.2653 239.748 12.0537 240.122 12.6143C240.496 13.1748 241.034 13.4551 241.735 13.4551C242.424 13.4551 242.952 13.1862 243.321 12.6484C243.69 12.1061 243.877 11.3177 243.882 10.2832V9.79785ZM255.544 15H253.493L249.501 8.45117V15H247.45V5.04688H249.501L253.5 11.6094V5.04688H255.544V15ZM268.915 15H266.864L262.872 8.45117V15H260.821V5.04688H262.872L266.871 11.6094V5.04688H268.915V15ZM278.882 10.249C278.882 11.2288 278.709 12.0879 278.362 12.8262C278.016 13.5645 277.519 14.1341 276.872 14.5352C276.229 14.9362 275.491 15.1367 274.657 15.1367C273.832 15.1367 273.096 14.9385 272.449 14.542C271.802 14.1455 271.301 13.5804 270.945 12.8467C270.59 12.1084 270.41 11.2607 270.405 10.3037V9.81152C270.405 8.83171 270.581 7.97038 270.932 7.22754C271.287 6.48014 271.786 5.9082 272.429 5.51172C273.076 5.11068 273.814 4.91016 274.644 4.91016C275.473 4.91016 276.209 5.11068 276.852 5.51172C277.499 5.9082 277.998 6.48014 278.349 7.22754C278.704 7.97038 278.882 8.82943 278.882 9.80469V10.249ZM276.804 9.79785C276.804 8.75423 276.617 7.96126 276.243 7.41895C275.869 6.87663 275.336 6.60547 274.644 6.60547C273.955 6.60547 273.424 6.87435 273.051 7.41211C272.677 7.94531 272.488 8.72917 272.483 9.76367V10.249C272.483 11.2653 272.67 12.0537 273.044 12.6143C273.418 13.1748 273.955 13.4551 274.657 13.4551C275.345 13.4551 275.874 13.1862 276.243 12.6484C276.612 12.1061 276.799 11.3177 276.804 10.2832V9.79785ZM284.057 11.3564H282.423V15H280.372V5.04688H284.07C285.246 5.04688 286.153 5.30892 286.791 5.83301C287.429 6.3571 287.748 7.09766 287.748 8.05469C287.748 8.73372 287.6 9.30111 287.304 9.75684C287.012 10.208 286.568 10.568 285.971 10.8369L288.124 14.9043V15H285.923L284.057 11.3564ZM282.423 9.69531H284.077C284.592 9.69531 284.991 9.56543 285.273 9.30566C285.556 9.04134 285.697 8.67904 285.697 8.21875C285.697 7.74935 285.563 7.38021 285.294 7.11133C285.03 6.84245 284.622 6.70801 284.07 6.70801H282.423V9.69531ZM291.993 5.04688L294.55 12.2656L297.093 5.04688H299.786V15H297.729V12.2793L297.934 7.58301L295.247 15H293.839L291.159 7.58984L291.364 12.2793V15H289.313V5.04688H291.993ZM307.319 12.9492H303.724L303.04 15H300.859L304.564 5.04688H306.465L310.19 15H308.01L307.319 12.9492ZM304.277 11.2881H306.766L305.515 7.5625L304.277 11.2881ZM313.171 13.3525H317.525V15H311.12V5.04688H313.171V13.3525Z" fill="black"/>
<path d="M10.293 133.734C11.1953 133.84 11.8926 134.174 12.3848 134.736C12.873 135.295 13.1172 136.039 13.1172 136.969C13.1172 137.977 12.7559 138.785 12.0332 139.395C11.3105 140 10.3438 140.303 9.13281 140.303H8.3125C7.51953 140.303 6.82227 140.162 6.2207 139.881C5.61914 139.596 5.1582 139.193 4.83789 138.674C4.51367 138.154 4.35156 137.553 4.35156 136.869C4.35156 135.963 4.60547 135.236 5.11328 134.689C5.61719 134.143 6.31641 133.824 7.21094 133.734L7.21094 134.865C6.53125 134.963 6.03906 135.176 5.73438 135.504C5.42969 135.828 5.27734 136.283 5.27734 136.869C5.27734 137.588 5.54297 138.152 6.07422 138.562C6.60547 138.969 7.36133 139.172 8.3418 139.172H9.16797C10.0938 139.172 10.8301 138.979 11.377 138.592C11.9238 138.205 12.1973 137.664 12.1973 136.969C12.1973 136.344 12.0566 135.865 11.7754 135.533C11.4902 135.197 10.9961 134.975 10.293 134.865V133.734ZM13 130.986V132.111H4.46875V130.986H13ZM10.293 122.648C11.1953 122.754 11.8926 123.088 12.3848 123.65C12.873 124.209 13.1172 124.953 13.1172 125.883C13.1172 126.891 12.7559 127.699 12.0332 128.309C11.3105 128.914 10.3438 129.217 9.13281 129.217H8.3125C7.51953 129.217 6.82227 129.076 6.2207 128.795C5.61914 128.51 5.1582 128.107 4.83789 127.588C4.51367 127.068 4.35156 126.467 4.35156 125.783C4.35156 124.877 4.60547 124.15 5.11328 123.604C5.61719 123.057 6.31641 122.738 7.21094 122.648V123.779C6.53125 123.877 6.03906 124.09 5.73438 124.418C5.42969 124.742 5.27734 125.197 5.27734 125.783C5.27734 126.502 5.54297 127.066 6.07422 127.477C6.60547 127.883 7.36133 128.086 8.3418 128.086H9.16797C10.0938 128.086 10.8301 127.893 11.377 127.506C11.9238 127.119 12.1973 126.578 12.1973 125.883C12.1973 125.258 12.0566 124.779 11.7754 124.447C11.4902 124.111 10.9961 123.889 10.293 123.779V122.648ZM12.0801 119.977V115.934H13V121.107H4.46875V119.977H12.0801ZM9.00977 108.475C9.8457 108.475 10.5762 108.615 11.2012 108.896C11.8223 109.178 12.2969 109.576 12.625 110.092C12.9531 110.607 13.1172 111.209 13.1172 111.896C13.1172 112.568 12.9531 113.164 12.625 113.684C12.293 114.203 11.8223 114.607 11.2129 114.896C10.5996 115.182 9.89063 115.328 9.08594 115.336H8.4707C7.65039 115.336 6.92578 115.193 6.29688 114.908C5.66797 114.623 5.1875 114.221 4.85547 113.701C4.51953 113.178 4.35156 112.58 4.35156 111.908C4.35156 111.225 4.51758 110.623 4.84961 110.104C5.17773 109.58 5.65625 109.178 6.28516 108.896C6.91016 108.615 7.63867 108.475 8.4707 108.475H9.00977ZM8.45898 109.594C7.44727 109.594 6.67188 109.797 6.13281 110.203C5.58984 110.609 5.31836 111.178 5.31836 111.908C5.31836 112.619 5.58984 113.18 6.13281 113.59C6.67188 113.996 7.42188 114.205 8.38281 114.217H9.00977C9.99023 114.217 10.7617 114.012 11.3242 113.602C11.8828 113.188 12.1621 112.619 12.1621 111.896C12.1621 111.17 11.8984 110.607 11.3711 110.209C10.8398 109.811 10.0801 109.605 9.0918 109.594H8.45898ZM13 103.811H4.46875V101.402C4.46875 100.66 4.63281 100.004 4.96094 99.4336C5.28906 98.8633 5.75586 98.4238 6.36133 98.1152C6.9668 97.8027 7.66211 97.6445 8.44727 97.6406H8.99219C9.79688 97.6406 10.502 97.7969 11.1074 98.1094C11.7129 98.418 12.1777 98.8613 12.502 99.4395C12.8262 100.014 12.9922 100.684 13 101.449V103.811ZM5.39453 102.686H12.0801V101.502C12.0801 100.635 11.8105 99.9609 11.2715 99.4805C10.7324 98.9961 9.96484 98.7539 8.96875 98.7539H8.4707C7.50195 98.7539 6.75 98.9824 6.21484 99.4395C5.67578 99.8926 5.40234 100.537 5.39453 101.373V102.686ZM9.05664 91.1133V94.8105H12.0801V90.5156H13V95.9355H4.46875V90.5742H5.39453V94.8105H8.13672V91.1133H9.05664ZM10.293 79.8633C11.1953 79.9688 11.8926 80.3027 12.3848 80.8652C12.873 81.4238 13.1172 82.168 13.1172 83.0977C13.1172 84.1055 12.7559 84.9141 12.0332 85.5234C11.3105 86.1289 10.3438 86.4316 9.13281 86.4316H8.3125C7.51953 86.4316 6.82227 86.291 6.2207 86.0098C5.61914 85.7246 5.1582 85.3223 4.83789 84.8027C4.51367 84.2832 4.35156 83.6816 4.35156 82.998C4.35156 82.0918 4.60547 81.3652 5.11328 80.8184C5.61719 80.2715 6.31641 79.9531 7.21094 79.8633V80.9941C6.53125 81.0918 6.03906 81.3047 5.73438 81.6328C5.42969 81.957 5.27734 82.4121 5.27734 82.998C5.27734 83.7168 5.54297 84.2812 6.07422 84.6914C6.60547 85.0977 7.36133 85.3008 8.3418 85.3008H9.16797C10.0938 85.3008 10.8301 85.1074 11.377 84.7207C11.9238 84.334 12.1973 83.793 12.1973 83.0977C12.1973 82.4727 12.0566 81.9941 11.7754 81.6621C11.4902 81.3262 10.9961 81.1035 10.293 80.9941V79.8633ZM9.05664 73.5V77.1973H12.0801V72.9023H13V78.3223H4.46875L4.46875 72.9609H5.39453L5.39453 77.1973H8.13672V73.5H9.05664ZM9.54883 68.373L9.54883 70.377H13V71.5078H4.46875V68.6836C4.46875 67.7227 4.6875 66.9844 5.125 66.4688C5.5625 65.9492 6.19922 65.6895 7.03516 65.6895C7.56641 65.6895 8.0293 65.834 8.42383 66.123C8.81836 66.4082 9.11328 66.8066 9.30859 67.3184L12.9297 65.3145H13V66.5215L9.54883 68.373ZM8.62891 70.377V68.6484C8.62891 68.0898 8.48438 67.6465 8.19531 67.3184C7.90625 66.9863 7.51953 66.8203 7.03516 66.8203C6.50781 66.8203 6.10352 66.9785 5.82227 67.2949C5.54102 67.6074 5.39844 68.0605 5.39453 68.6543V70.377H8.62891ZM9.05664 59.2852V62.9824H12.0801V58.6875H13V64.1074H4.46875L4.46875 58.7461H5.39453L5.39453 62.9824H8.13672V59.2852H9.05664ZM13 57.2871H4.46875V54.498C4.46875 53.5723 4.66016 52.877 5.04297 52.4121C5.42578 51.9434 5.99219 51.709 6.74219 51.709C7.14063 51.709 7.49414 51.8223 7.80273 52.0488C8.10742 52.2754 8.34375 52.584 8.51172 52.9746C8.64063 52.5137 8.88672 52.1504 9.25 51.8848C9.60938 51.6152 10.0391 51.4805 10.5391 51.4805C11.3047 51.4805 11.9063 51.7285 12.3438 52.2246C12.7813 52.7207 13 53.4219 13 54.3281V57.2871ZM9.00977 56.1621H12.0801V54.3047C12.0801 53.7812 11.9453 53.3691 11.6758 53.0684C11.4023 52.7637 11.0273 52.6113 10.5508 52.6113C9.52344 52.6113 9.00977 53.1699 9.00977 54.2871V56.1621ZM8.10742 56.1621V54.4629C8.10742 53.9707 7.98438 53.5781 7.73828 53.2852C7.49219 52.9883 7.1582 52.8398 6.73633 52.8398C6.26758 52.8398 5.92773 52.9766 5.7168 53.25C5.50195 53.5234 5.39453 53.9395 5.39453 54.498V56.1621H8.10742ZM9.54883 46.6816V48.6855H13V49.8164H4.46875V46.9922C4.46875 46.0312 4.6875 45.293 5.125 44.7773C5.5625 44.2578 6.19922 43.998 7.03516 43.998C7.56641 43.998 8.0293 44.1426 8.42383 44.4316C8.81836 44.7168 9.11328 45.1152 9.30859 45.627L12.9297 43.623H13V44.8301L9.54883 46.6816ZM8.62891 48.6855V46.957C8.62891 46.3984 8.48438 45.9551 8.19531 45.627C7.90625 45.2949 7.51953 45.1289 7.03516 45.1289C6.50781 45.1289 6.10352 45.2871 5.82227 45.6035C5.54102 45.916 5.39844 46.3691 5.39453 46.9629V48.6855H8.62891ZM9.00977 35.8535C9.8457 35.8535 10.5762 35.9941 11.2012 36.2754C11.8223 36.5566 12.2969 36.9551 12.625 37.4707C12.9531 37.9863 13.1172 38.5879 13.1172 39.2754C13.1172 39.9473 12.9531 40.543 12.625 41.0625C12.293 41.582 11.8223 41.9863 11.2129 42.2754C10.5996 42.5605 9.89063 42.707 9.08594 42.7148H8.4707C7.65039 42.7148 6.92578 42.5723 6.29688 42.2871C5.66797 42.002 5.1875 41.5996 4.85547 41.0801C4.51953 40.5566 4.35156 39.959 4.35156 39.2871C4.35156 38.6035 4.51758 38.002 4.84961 37.4824C5.17773 36.959 5.65625 36.5566 6.28516 36.2754C6.91016 35.9941 7.63867 35.8535 8.4707 35.8535H9.00977ZM8.45898 36.9727C7.44727 36.9727 6.67188 37.1758 6.13281 37.582C5.58984 37.9883 5.31836 38.5566 5.31836 39.2871C5.31836 39.998 5.58984 40.5586 6.13281 40.9688C6.67188 41.375 7.42188 41.584 8.38281 41.5957H9.00977C9.99023 41.5957 10.7617 41.3906 11.3242 40.9805C11.8828 40.5664 12.1621 39.998 12.1621 39.2754C12.1621 38.5488 11.8984 37.9863 11.3711 37.5879C10.8398 37.1895 10.0801 36.9844 9.0918 36.9727H8.45898ZM27.293 133.734C28.1953 133.84 28.8926 134.174 29.3848 134.736C29.873 135.295 30.1172 136.039 30.1172 136.969C30.1172 137.977 29.7559 138.785 29.0332 139.395C28.3105 140 27.3438 140.303 26.1328 140.303H25.3125C24.5195 140.303 23.8223 140.162 23.2207 139.881C22.6191 139.596 22.1582 139.193 21.8379 138.674C21.5137 138.154 21.3516 137.553 21.3516 136.869C21.3516 135.963 21.6055 135.236 22.1133 134.689C22.6172 134.143 23.3164 133.824 24.2109 133.734V134.865C23.5312 134.963 23.0391 135.176 22.7344 135.504C22.4297 135.828 22.2773 136.283 22.2773 136.869C22.2773 137.588 22.543 138.152 23.0742 138.562C23.6055 138.969 24.3613 139.172 25.3418 139.172H26.168C27.0938 139.172 27.8301 138.979 28.377 138.592C28.9238 138.205 29.1973 137.664 29.1973 136.969C29.1973 136.344 29.0566 135.865 28.7754 135.533C28.4902 135.197 27.9961 134.975 27.293 134.865V133.734ZM26.0098 125.631C26.8457 125.631 27.5762 125.771 28.2012 126.053C28.8223 126.334 29.2969 126.732 29.625 127.248C29.9531 127.764 30.1172 128.365 30.1172 129.053C30.1172 129.725 29.9531 130.32 29.625 130.84C29.293 131.359 28.8223 131.764 28.2129 132.053C27.5996 132.338 26.8906 132.484 26.0859 132.492H25.4707C24.6504 132.492 23.9258 132.35 23.2969 132.064C22.668 131.779 22.1875 131.377 21.8555 130.857C21.5195 130.334 21.3516 129.736 21.3516 129.064C21.3516 128.381 21.5176 127.779 21.8496 127.26C22.1777 126.736 22.6562 126.334 23.2852 126.053C23.9102 125.771 24.6387 125.631 25.4707 125.631H26.0098ZM25.459 126.75C24.4473 126.75 23.6719 126.953 23.1328 127.359C22.5898 127.766 22.3184 128.334 22.3184 129.064C22.3184 129.775 22.5898 130.336 23.1328 130.746C23.6719 131.152 24.4219 131.361 25.3828 131.373H26.0098C26.9902 131.373 27.7617 131.168 28.3242 130.758C28.8828 130.344 29.1621 129.775 29.1621 129.053C29.1621 128.326 28.8984 127.764 28.3711 127.365C27.8398 126.967 27.0801 126.762 26.0918 126.75H25.459ZM30 117.387V118.518L23.4258 122.812H30V123.943H21.4688V122.812L28.0723 118.506H21.4688V117.387H30ZM26.2324 110.684L26.2324 114.264H30V115.389H21.4688L21.4688 110.104H22.3945L22.3945 114.264H25.3125L25.3125 110.684H26.2324ZM26.0098 102.193C26.8457 102.193 27.5762 102.334 28.2012 102.615C28.8223 102.896 29.2969 103.295 29.625 103.811C29.9531 104.326 30.1172 104.928 30.1172 105.615C30.1172 106.287 29.9531 106.883 29.625 107.402C29.293 107.922 28.8223 108.326 28.2129 108.615C27.5996 108.9 26.8906 109.047 26.0859 109.055H25.4707C24.6504 109.055 23.9258 108.912 23.2969 108.627C22.668 108.342 22.1875 107.939 21.8555 107.42C21.5195 106.896 21.3516 106.299 21.3516 105.627C21.3516 104.943 21.5176 104.342 21.8496 103.822C22.1777 103.299 22.6563 102.896 23.2852 102.615C23.9102 102.334 24.6387 102.193 25.4707 102.193H26.0098ZM25.459 103.312C24.4473 103.312 23.6719 103.516 23.1328 103.922C22.5898 104.328 22.3184 104.896 22.3184 105.627C22.3184 106.338 22.5898 106.898 23.1328 107.309C23.6719 107.715 24.4219 107.924 25.3828 107.936H26.0098C26.9902 107.936 27.7617 107.73 28.3242 107.32C28.8828 106.906 29.1621 106.338 29.1621 105.615C29.1621 104.889 28.8984 104.326 28.3711 103.928C27.8398 103.529 27.0801 103.324 26.0918 103.312H25.459ZM26.5488 97.377V99.3809H30V100.512H21.4688V97.6875C21.4688 96.7266 21.6875 95.9883 22.125 95.4727C22.5625 94.9531 23.1992 94.6934 24.0352 94.6934C24.5664 94.6934 25.0293 94.8379 25.4238 95.127C25.8184 95.4121 26.1133 95.8105 26.3086 96.3223L29.9297 94.3184H30V95.5254L26.5488 97.377ZM25.6289 99.3809V97.6523C25.6289 97.0938 25.4844 96.6504 25.1953 96.3223C24.9063 95.9902 24.5195 95.8242 24.0352 95.8242C23.5078 95.8242 23.1035 95.9824 22.8223 96.2988C22.541 96.6113 22.3984 97.0645 22.3945 97.6582V99.3809H25.6289ZM22.3945 87.6855V90.4277H30V91.5469H22.3945V94.2832H21.4688V87.6855H22.3945ZM27.7734 82.1777V85.752L30 86.5547V87.7148L21.4688 84.457V83.4727L30 80.209V81.3633L27.7734 82.1777ZM26.8477 85.4121V82.5117L22.8574 83.9648L26.8477 85.4121ZM30 79.0605H21.4688V76.2715C21.4688 75.3457 21.6602 74.6504 22.043 74.1855C22.4258 73.7168 22.9922 73.4824 23.7422 73.4824C24.1406 73.4824 24.4941 73.5957 24.8027 73.8223C25.1074 74.0488 25.3438 74.3574 25.5117 74.748C25.6406 74.2871 25.8867 73.9238 26.25 73.6582C26.6094 73.3887 27.0391 73.2539 27.5391 73.2539C28.3047 73.2539 28.9063 73.502 29.3438 73.998C29.7813 74.4941 30 75.1953 30 76.1016V79.0605ZM26.0098 77.9355H29.0801V76.0781C29.0801 75.5547 28.9453 75.1426 28.6758 74.8418C28.4023 74.5371 28.0273 74.3848 27.5508 74.3848C26.5234 74.3848 26.0098 74.9434 26.0098 76.0605V77.9355ZM25.1074 77.9355V76.2363C25.1074 75.7441 24.9844 75.3516 24.7383 75.0586C24.4922 74.7617 24.1582 74.6133 23.7363 74.6133C23.2676 74.6133 22.9277 74.75 22.7168 75.0234C22.502 75.2969 22.3945 75.7129 22.3945 76.2715V77.9355H25.1074ZM29.0801 70.4531V66.4102H30V71.584H21.4688V70.4531H29.0801ZM26.0566 60.3047V64.002H29.0801V59.707H30V65.127H21.4688V59.7656H22.3945V64.002H25.1367V60.3047H26.0566Z" fill="#60347B"/>
<path d="M62.832 36.8047L63.3242 32.4688H68.1055V33.8809H64.7129L64.502 35.7148C64.9043 35.5 65.332 35.3926 65.7852 35.3926C66.5977 35.3926 67.2344 35.6445 67.6953 36.1484C68.1562 36.6523 68.3867 37.3574 68.3867 38.2637C68.3867 38.8145 68.2695 39.3086 68.0352 39.7461C67.8047 40.1797 67.4727 40.5176 67.0391 40.7598C66.6055 40.998 66.0938 41.1172 65.5039 41.1172C64.9883 41.1172 64.5098 41.0137 64.0684 40.8066C63.627 40.5957 63.2773 40.3008 63.0195 39.9219C62.7656 39.543 62.6309 39.1113 62.6152 38.627H64.291C64.3262 38.9824 64.4492 39.2598 64.6602 39.459C64.875 39.6543 65.1543 39.752 65.498 39.752C65.8809 39.752 66.1758 39.6152 66.3828 39.3418C66.5898 39.0645 66.6934 38.6738 66.6934 38.1699C66.6934 37.6855 66.5742 37.3145 66.3359 37.0566C66.0977 36.7988 65.7598 36.6699 65.3223 36.6699C64.9199 36.6699 64.5938 36.7754 64.3438 36.9863L64.1797 37.1387L62.832 36.8047ZM67.5898 62.7891H68.5566V64.1543H67.5898V66H65.8965V64.1543H62.3984L62.3223 63.0879L65.8789 57.4688H67.5898V62.7891ZM64.0098 62.7891H65.8965V59.7773L65.7852 59.9707L64.0098 62.7891ZM64.3027 85.9844H65.2051C65.6348 85.9844 65.9531 85.877 66.1602 85.6621C66.3672 85.4473 66.4707 85.1621 66.4707 84.8066C66.4707 84.4629 66.3672 84.1953 66.1602 84.0039C65.957 83.8125 65.6758 83.7168 65.3164 83.7168C64.9922 83.7168 64.7207 83.8066 64.502 83.9863C64.2832 84.1621 64.1738 84.3926 64.1738 84.6777H62.4805C62.4805 84.2324 62.5996 83.834 62.8379 83.4824C63.0801 83.127 63.416 82.8496 63.8457 82.6504C64.2793 82.4512 64.7559 82.3516 65.2754 82.3516C66.1777 82.3516 66.8848 82.5684 67.3965 83.002C67.9082 83.4316 68.1641 84.0254 68.1641 84.7832C68.1641 85.1738 68.0449 85.5332 67.8066 85.8613C67.5684 86.1895 67.2559 86.4414 66.8691 86.6172C67.3496 86.7891 67.707 87.0469 67.9414 87.3906C68.1797 87.7344 68.2988 88.1406 68.2988 88.6094C68.2988 89.3672 68.0215 89.9746 67.4668 90.4316C66.916 90.8887 66.1855 91.1172 65.2754 91.1172C64.4238 91.1172 63.7266 90.8926 63.1836 90.4434C62.6445 89.9941 62.375 89.4004 62.375 88.6621H64.0684C64.0684 88.9824 64.1875 89.2441 64.4258 89.4473C64.668 89.6504 64.9648 89.752 65.3164 89.752C65.7188 89.752 66.0332 89.6465 66.2598 89.4355C66.4902 89.2207 66.6055 88.9375 66.6055 88.5859C66.6055 87.7344 66.1367 87.3086 65.1992 87.3086H64.3027V85.9844ZM68.4277 116H62.5801V114.84L65.3398 111.898C65.7188 111.484 65.998 111.123 66.1777 110.814C66.3613 110.506 66.4531 110.213 66.4531 109.936C66.4531 109.557 66.3574 109.26 66.166 109.045C65.9746 108.826 65.7012 108.717 65.3457 108.717C64.9629 108.717 64.6602 108.85 64.4375 109.115C64.2188 109.377 64.1094 109.723 64.1094 110.152H62.4102C62.4102 109.633 62.5332 109.158 62.7793 108.729C63.0293 108.299 63.3809 107.963 63.834 107.721C64.2871 107.475 64.8008 107.352 65.375 107.352C66.2539 107.352 66.9355 107.562 67.4199 107.984C67.9082 108.406 68.1523 109.002 68.1523 109.771C68.1523 110.193 68.043 110.623 67.8242 111.061C67.6055 111.498 67.2305 112.008 66.6992 112.59L64.7598 114.635H68.4277V116ZM66.6934 141H65V134.473L62.9785 135.1V133.723L66.5117 132.457H66.6934V141Z" fill="#60347B"/>
<path d="M582.6 72.6846C582.522 73.7555 582.126 74.5986 581.41 75.2139C580.699 75.8291 579.76 76.1367 578.594 76.1367C577.318 76.1367 576.313 75.7083 575.579 74.8516C574.85 73.9902 574.485 72.8099 574.485 71.3105V70.7021C574.485 69.7451 574.654 68.902 574.991 68.1729C575.328 67.4437 575.809 66.8854 576.434 66.498C577.062 66.1061 577.792 65.9102 578.621 65.9102C579.77 65.9102 580.695 66.2178 581.396 66.833C582.098 67.4482 582.504 68.3118 582.613 69.4238H580.562C580.512 68.7812 580.332 68.3164 580.022 68.0293C579.717 67.7376 579.25 67.5918 578.621 67.5918C577.938 67.5918 577.425 67.8379 577.083 68.3301C576.746 68.8177 576.573 69.5765 576.563 70.6064V71.3584C576.563 72.4339 576.725 73.2201 577.049 73.7168C577.377 74.2135 577.892 74.4619 578.594 74.4619C579.227 74.4619 579.699 74.3184 580.009 74.0312C580.323 73.7396 580.503 73.2907 580.549 72.6846H582.6ZM589.935 71.6865H585.997V74.3525H590.618V76H583.946V66.0469H590.604V67.708H585.997V70.0801H589.935V71.6865ZM595.506 72.3564H593.872V76H591.821V66.0469H595.52C596.695 66.0469 597.602 66.3089 598.24 66.833C598.878 67.3571 599.197 68.0977 599.197 69.0547C599.197 69.7337 599.049 70.3011 598.753 70.7568C598.461 71.208 598.017 71.568 597.42 71.8369L599.573 75.9043V76H597.372L595.506 72.3564ZM593.872 70.6953H595.526C596.041 70.6953 596.44 70.5654 596.723 70.3057C597.005 70.0413 597.146 69.679 597.146 69.2188C597.146 68.7493 597.012 68.3802 596.743 68.1113C596.479 67.8424 596.071 67.708 595.52 67.708H593.872V70.6953ZM606.751 71.6865H602.813V74.3525H607.435V76H600.763V66.0469H607.421V67.708H602.813V70.0801H606.751V71.6865ZM608.638 76V66.0469H612.124C613.332 66.0469 614.248 66.2793 614.872 66.7441C615.496 67.2044 615.809 67.8812 615.809 68.7744C615.809 69.262 615.683 69.6927 615.433 70.0664C615.182 70.4355 614.833 70.7067 614.387 70.8799C614.897 71.0075 615.298 71.265 615.59 71.6523C615.886 72.0397 616.034 72.5137 616.034 73.0742C616.034 74.0312 615.729 74.7559 615.118 75.248C614.507 75.7402 613.637 75.9909 612.507 76H608.638ZM610.688 71.666V74.3525H612.445C612.928 74.3525 613.304 74.2386 613.573 74.0107C613.847 73.7783 613.983 73.4593 613.983 73.0537C613.983 72.1423 613.512 71.6797 612.568 71.666H610.688ZM610.688 70.2168H612.206C613.241 70.1986 613.758 69.7861 613.758 68.9795C613.758 68.5283 613.626 68.2048 613.361 68.0088C613.102 67.8083 612.689 67.708 612.124 67.708H610.688V70.2168ZM621.264 72.3564H619.63V76H617.579V66.0469H621.277C622.453 66.0469 623.36 66.3089 623.998 66.833C624.636 67.3571 624.955 68.0977 624.955 69.0547C624.955 69.7337 624.807 70.3011 624.511 70.7568C624.219 71.208 623.775 71.568 623.178 71.8369L625.331 75.9043V76H623.13L621.264 72.3564ZM619.63 70.6953H621.284C621.799 70.6953 622.198 70.5654 622.48 70.3057C622.763 70.0413 622.904 69.679 622.904 69.2188C622.904 68.7493 622.77 68.3802 622.501 68.1113C622.237 67.8424 621.829 67.708 621.277 67.708H619.63V70.6953ZM634.696 71.249C634.696 72.2288 634.523 73.0879 634.177 73.8262C633.83 74.5645 633.334 75.1341 632.687 75.5352C632.044 75.9362 631.306 76.1367 630.472 76.1367C629.647 76.1367 628.911 75.9385 628.264 75.542C627.617 75.1455 627.115 74.5804 626.76 73.8467C626.404 73.1084 626.224 72.2607 626.22 71.3037V70.8115C626.22 69.8317 626.395 68.9704 626.746 68.2275C627.102 67.4801 627.601 66.9082 628.243 66.5117C628.89 66.1107 629.629 65.9102 630.458 65.9102C631.287 65.9102 632.023 66.1107 632.666 66.5117C633.313 66.9082 633.812 67.4801 634.163 68.2275C634.519 68.9704 634.696 69.8294 634.696 70.8047V71.249ZM632.618 70.7979C632.618 69.7542 632.431 68.9613 632.058 68.4189C631.684 67.8766 631.151 67.6055 630.458 67.6055C629.77 67.6055 629.239 67.8743 628.865 68.4121C628.492 68.9453 628.302 69.7292 628.298 70.7637V71.249C628.298 72.2653 628.485 73.0537 628.858 73.6143C629.232 74.1748 629.77 74.4551 630.472 74.4551C631.16 74.4551 631.688 74.1862 632.058 73.6484C632.427 73.1061 632.614 72.3177 632.618 71.2832V70.7979ZM647.486 72.6846C647.409 73.7555 647.012 74.5986 646.297 75.2139C645.586 75.8291 644.647 76.1367 643.48 76.1367C642.204 76.1367 641.2 75.7083 640.466 74.8516C639.737 73.9902 639.372 72.8099 639.372 71.3105V70.7021C639.372 69.7451 639.541 68.902 639.878 68.1729C640.215 67.4437 640.696 66.8854 641.32 66.498C641.949 66.1061 642.678 65.9102 643.508 65.9102C644.656 65.9102 645.581 66.2178 646.283 66.833C646.985 67.4482 647.391 68.3118 647.5 69.4238H645.449C645.399 68.7812 645.219 68.3164 644.909 68.0293C644.604 67.7376 644.137 67.5918 643.508 67.5918C642.824 67.5918 642.312 67.8379 641.97 68.3301C641.632 68.8177 641.459 69.5765 641.45 70.6064V71.3584C641.45 72.4339 641.612 73.2201 641.936 73.7168C642.264 74.2135 642.779 74.4619 643.48 74.4619C644.114 74.4619 644.586 74.3184 644.896 74.0312C645.21 73.7396 645.39 73.2907 645.436 72.6846H647.486ZM657.009 71.249C657.009 72.2288 656.836 73.0879 656.489 73.8262C656.143 74.5645 655.646 75.1341 654.999 75.5352C654.356 75.9362 653.618 76.1367 652.784 76.1367C651.959 76.1367 651.223 75.9385 650.576 75.542C649.929 75.1455 649.428 74.5804 649.072 73.8467C648.717 73.1084 648.537 72.2607 648.532 71.3037V70.8115C648.532 69.8317 648.708 68.9704 649.059 68.2275C649.414 67.4801 649.913 66.9082 650.556 66.5117C651.203 66.1107 651.941 65.9102 652.771 65.9102C653.6 65.9102 654.336 66.1107 654.979 66.5117C655.626 66.9082 656.125 67.4801 656.476 68.2275C656.831 68.9704 657.009 69.8294 657.009 70.8047V71.249ZM654.931 70.7979C654.931 69.7542 654.744 68.9613 654.37 68.4189C653.996 67.8766 653.463 67.6055 652.771 67.6055C652.082 67.6055 651.551 67.8743 651.178 68.4121C650.804 68.9453 650.615 69.7292 650.61 70.7637V71.249C650.61 72.2653 650.797 73.0537 651.171 73.6143C651.545 74.1748 652.082 74.4551 652.784 74.4551C653.472 74.4551 654.001 74.1862 654.37 73.6484C654.739 73.1061 654.926 72.3177 654.931 71.2832V70.7979ZM666.593 76H664.542L660.55 69.4512V76H658.499V66.0469H660.55L664.549 72.6094V66.0469H666.593V76ZM674.372 71.9326H670.435V76H668.384V66.0469H674.864V67.708H670.435V70.2783H674.372V71.9326ZM684.229 71.249C684.229 72.2288 684.056 73.0879 683.71 73.8262C683.364 74.5645 682.867 75.1341 682.22 75.5352C681.577 75.9362 680.839 76.1367 680.005 76.1367C679.18 76.1367 678.444 75.9385 677.797 75.542C677.15 75.1455 676.648 74.5804 676.293 73.8467C675.938 73.1084 675.757 72.2607 675.753 71.3037V70.8115C675.753 69.8317 675.928 68.9704 676.279 68.2275C676.635 67.4801 677.134 66.9082 677.776 66.5117C678.424 66.1107 679.162 65.9102 679.991 65.9102C680.821 65.9102 681.557 66.1107 682.199 66.5117C682.846 66.9082 683.345 67.4801 683.696 68.2275C684.052 68.9704 684.229 69.8294 684.229 70.8047V71.249ZM682.151 70.7979C682.151 69.7542 681.965 68.9613 681.591 68.4189C681.217 67.8766 680.684 67.6055 679.991 67.6055C679.303 67.6055 678.772 67.8743 678.398 68.4121C678.025 68.9453 677.836 69.7292 677.831 70.7637V71.249C677.831 72.2653 678.018 73.0537 678.392 73.6143C678.765 74.1748 679.303 74.4551 680.005 74.4551C680.693 74.4551 681.222 74.1862 681.591 73.6484C681.96 73.1061 682.147 72.3177 682.151 71.2832V70.7979ZM689.404 72.3564H687.771V76H685.72V66.0469H689.418C690.594 66.0469 691.501 66.3089 692.139 66.833C692.777 67.3571 693.096 68.0977 693.096 69.0547C693.096 69.7337 692.948 70.3011 692.651 70.7568C692.36 71.208 691.915 71.568 691.318 71.8369L693.472 75.9043V76H691.271L689.404 72.3564ZM687.771 70.6953H689.425C689.94 70.6953 690.339 70.5654 690.621 70.3057C690.904 70.0413 691.045 69.679 691.045 69.2188C691.045 68.7493 690.91 68.3802 690.642 68.1113C690.377 67.8424 689.969 67.708 689.418 67.708H687.771V70.6953ZM701.812 67.708H698.763V76H696.712V67.708H693.704V66.0469H701.812V67.708ZM707.786 73.9492H704.19L703.507 76H701.326L705.031 66.0469H706.932L710.657 76H708.477L707.786 73.9492ZM704.744 72.2881H707.232L705.981 68.5625L704.744 72.2881ZM711.587 76V66.0469H715.073C716.281 66.0469 717.197 66.2793 717.821 66.7441C718.446 67.2044 718.758 67.8812 718.758 68.7744C718.758 69.262 718.632 69.6927 718.382 70.0664C718.131 70.4355 717.783 70.7067 717.336 70.8799C717.846 71.0075 718.247 71.265 718.539 71.6523C718.835 72.0397 718.983 72.5137 718.983 73.0742C718.983 74.0312 718.678 74.7559 718.067 75.248C717.457 75.7402 716.586 75.9909 715.456 76H711.587ZM713.638 71.666V74.3525H715.395C715.878 74.3525 716.254 74.2386 716.522 74.0107C716.796 73.7783 716.933 73.4593 716.933 73.0537C716.933 72.1423 716.461 71.6797 715.518 71.666H713.638ZM713.638 70.2168H715.155C716.19 70.1986 716.707 69.7861 716.707 68.9795C716.707 68.5283 716.575 68.2048 716.311 68.0088C716.051 67.8083 715.638 67.708 715.073 67.708H713.638V70.2168ZM722.579 74.3525H726.934V76H720.528V66.0469H722.579V74.3525ZM734.104 71.6865H730.167V74.3525H734.788V76H728.116V66.0469H734.774V67.708H730.167V70.0801H734.104V71.6865Z" fill="white"/>
<path d="M79.5761 148.808C81.5054 -65.6785 384.573 103.299 834.567 143.624" stroke="#60347B" stroke-width="2"/>
<path d="M120.234 71.6281L117.708 72.0931L117.493 73.6221L115.961 73.9041L117.277 66.4331L118.612 66.1873L122.516 72.6974L120.984 72.9794L120.234 71.6281ZM117.882 70.8546L119.63 70.5328L118.27 68.0774L117.882 70.8546ZM124.397 71.1546L127.456 70.5915L127.669 71.7488L123.169 72.5772L121.882 65.5853L123.323 65.3201L124.397 71.1546ZM131.701 64.9841L129.559 65.3784L130.632 71.2033L129.191 71.4685L128.119 65.6436L126.006 66.0326L125.791 64.8657L131.486 63.8172L131.701 64.9841ZM136.705 68.5957L134.179 69.0607L133.964 70.5898L132.433 70.8718L133.748 63.4008L135.083 63.155L138.987 69.6651L137.456 69.9471L136.705 68.5957ZM134.354 67.8222L136.102 67.5004L134.741 65.0451L134.354 67.8222ZM147.15 65.7544C147.234 66.5168 147.064 67.1603 146.641 67.6851C146.221 68.2092 145.602 68.5467 144.782 68.6976C143.886 68.8626 143.124 68.6916 142.498 68.1846C141.875 67.6739 141.466 66.8919 141.272 65.8386L141.193 65.4112C141.069 64.7389 141.079 64.1249 141.221 63.569C141.364 63.0132 141.63 62.5588 142.018 62.206C142.409 61.8493 142.896 61.6173 143.479 61.5101C144.286 61.3616 144.975 61.458 145.548 61.7994C146.12 62.1409 146.517 62.6951 146.738 63.4621L145.297 63.7273C145.179 63.2824 144.992 62.9791 144.737 62.8175C144.485 62.6521 144.138 62.6101 143.696 62.6914C143.216 62.7798 142.888 63.019 142.711 63.4089C142.537 63.7951 142.514 64.3505 142.641 65.0752L142.738 65.6035C142.877 66.359 143.092 66.8903 143.384 67.1974C143.679 67.5039 144.072 67.6118 144.566 67.5211C145.011 67.4391 145.323 67.2773 145.504 67.0355C145.687 66.79 145.755 66.4513 145.709 66.0197L147.15 65.7544ZM152.207 65.742L149.681 66.207L149.466 67.736L147.934 68.0181L149.249 60.547L150.584 60.3012L154.489 66.8113L152.957 67.0933L152.207 65.742ZM149.855 64.9685L151.603 64.6467L150.242 62.1913L149.855 64.9685ZM157.259 63.655L156.111 63.8663L156.582 66.4259L155.142 66.6911L153.855 59.6992L156.453 59.2209C157.279 59.0689 157.949 59.1357 158.465 59.4213C158.981 59.707 159.301 60.1859 159.425 60.8582C159.513 61.3352 159.482 61.753 159.333 62.1114C159.187 62.4661 158.921 62.7764 158.536 63.0425L160.575 65.6213L160.587 65.6885L159.041 65.9732L157.259 63.655ZM155.896 62.6994L157.059 62.4855C157.42 62.4189 157.684 62.2761 157.848 62.057C158.013 61.8348 158.065 61.562 158.006 61.2387C157.945 60.9089 157.803 60.667 157.579 60.5129C157.359 60.3582 157.055 60.3165 156.667 60.3878L155.51 60.6009L155.896 62.6994ZM166.792 63.6327C166.59 63.991 166.268 64.3002 165.826 64.5603C165.384 64.8172 164.874 64.9987 164.298 65.1047C163.693 65.2161 163.137 65.1827 162.631 65.0045C162.128 64.8225 161.705 64.5031 161.362 64.0465C161.023 63.5892 160.788 63.0218 160.657 62.3443L160.569 61.8689C160.441 61.171 160.447 60.546 160.587 59.994C160.729 59.4381 160.997 58.9851 161.389 58.6348C161.784 58.2808 162.279 58.049 162.874 57.9393C163.704 57.7867 164.388 57.8658 164.929 58.1768C165.469 58.4845 165.852 59.0082 166.077 59.7478L164.675 60.0059C164.537 59.6175 164.341 59.3508 164.086 59.2058C163.834 59.0602 163.516 59.0228 163.132 59.0935C162.642 59.1837 162.303 59.4364 162.114 59.8517C161.926 60.267 161.897 60.8384 162.028 61.5657L162.11 62.0123C162.245 62.7454 162.486 63.2736 162.834 63.5969C163.181 63.9202 163.624 64.0323 164.162 63.9333C164.703 63.8337 165.067 63.6474 165.255 63.3745L165.033 62.1692L163.722 62.4105L163.527 61.3492L166.279 60.8427L166.792 63.6327ZM171.809 62.1332L169.283 62.5983L169.068 64.1273L167.536 64.4093L168.852 56.9383L170.187 56.6925L174.091 63.2026L172.559 63.4846L171.809 62.1332ZM169.457 61.3597L171.205 61.0379L169.844 58.5826L169.457 61.3597ZM182.253 59.292C182.337 60.0543 182.168 60.6978 181.745 61.2226C181.325 61.7467 180.705 62.0842 179.886 62.2351C178.989 62.4001 178.228 62.2291 177.602 61.7222C176.978 61.2114 176.569 60.4294 176.375 59.3761L176.297 58.9487C176.173 58.2764 176.182 57.6624 176.325 57.1065C176.468 56.5507 176.733 56.0963 177.122 55.7435C177.513 55.3868 178 55.1548 178.582 55.0476C179.389 54.8991 180.079 54.9955 180.651 55.3369C181.224 55.6784 181.62 56.2326 181.841 56.9996L180.4 57.2648C180.282 56.8199 180.096 56.5166 179.841 56.355C179.588 56.1896 179.241 56.1476 178.8 56.2289C178.319 56.3173 177.991 56.5565 177.815 56.9464C177.641 57.3326 177.617 57.888 177.744 58.6127L177.841 59.141C177.98 59.8965 178.196 60.4278 178.487 60.7349C178.782 61.0414 179.176 61.1493 179.669 61.0586C180.114 60.9766 180.427 60.8148 180.607 60.573C180.79 60.3275 180.859 59.9889 180.813 59.5572L182.253 59.292ZM187.277 57.6422L184.511 58.1515L184.856 60.0243L188.102 59.4267L188.315 60.584L183.628 61.4468L182.341 54.4549L187.018 53.5939L187.233 54.7608L183.996 55.3566L184.303 57.023L187.069 56.5137L187.277 57.6422ZM191.277 57.3923L190.129 57.6036L190.601 60.1632L189.16 60.4284L187.873 53.4365L190.471 52.9582C191.297 52.8062 191.968 52.873 192.484 53.1586C193 53.4443 193.319 53.9232 193.443 54.5955C193.531 55.0725 193.5 55.4903 193.351 55.8487C193.205 56.2034 192.939 56.5138 192.554 56.7798L194.593 59.3586L194.606 59.4259L193.059 59.7105L191.277 57.3923ZM189.915 56.4367L191.077 56.2228C191.438 56.1562 191.702 56.0134 191.867 55.7943C192.031 55.5721 192.083 55.2993 192.024 54.976C191.963 54.6463 191.821 54.4043 191.597 54.2502C191.377 54.0955 191.073 54.0538 190.686 54.1251L189.528 54.3382L189.915 56.4367ZM199.09 55.4675L196.324 55.9767L196.669 57.8495L199.915 57.2519L200.128 58.4092L195.441 59.272L194.154 52.2801L198.831 51.4191L199.046 52.586L195.809 53.1818L196.116 54.8482L198.882 54.339L199.09 55.4675ZM200.973 58.2536L199.686 51.2617L202.135 50.8108C202.983 50.6547 203.657 50.6995 204.156 50.9453C204.654 51.1879 204.961 51.6229 205.076 52.2504C205.139 52.5929 205.107 52.9117 204.979 53.2066C204.851 53.4983 204.641 53.7339 204.35 53.9133C204.725 53.9369 205.04 54.066 205.295 54.3004C205.553 54.5342 205.718 54.848 205.791 55.2417C205.914 55.914 205.794 56.4625 205.428 56.8873C205.063 57.312 204.484 57.6006 203.691 57.7532L200.973 58.2536ZM201.853 54.9438L202.201 56.8311L203.435 56.6039C203.774 56.5414 204.024 56.4127 204.183 56.2179C204.345 56.0192 204.4 55.7775 204.347 55.4925C204.23 54.8523 203.838 54.5883 203.174 54.7007L201.853 54.9438ZM201.666 53.9258L202.732 53.7295C203.456 53.5829 203.766 53.2263 203.662 52.6597C203.604 52.3427 203.469 52.1325 203.258 52.029C203.05 51.9218 202.747 51.9047 202.35 51.9778L201.341 52.1634L201.666 53.9258ZM209.371 54.0612L208.224 54.2725L208.695 56.832L207.254 57.0972L205.967 50.1054L208.565 49.6271C209.391 49.475 210.062 49.5418 210.578 49.8275C211.094 50.1131 211.414 50.5921 211.538 51.2644C211.625 51.7414 211.595 52.1591 211.446 52.5176C211.299 52.8722 211.033 53.1826 210.649 53.4487L212.688 56.0275L212.7 56.0947L211.154 56.3794L209.371 54.0612ZM208.009 53.1056L209.171 52.8916C209.533 52.825 209.796 52.6822 209.961 52.4632C210.125 52.241 210.178 51.9682 210.118 51.6449C210.057 51.3151 209.915 51.0732 209.692 50.9191C209.471 50.7644 209.167 50.7227 208.78 50.794L207.623 51.007L208.009 53.1056ZM217.218 53.7735L214.692 54.2386L214.477 55.7676L212.945 56.0496L214.26 48.5786L215.595 48.3328L219.5 54.8429L217.968 55.1249L217.218 53.7735ZM214.866 53L216.614 52.6782L215.253 50.2229L214.866 53ZM221.38 53.3001L224.439 52.737L224.652 53.8943L220.153 54.7226L218.866 47.7308L220.306 47.4655L221.38 53.3001Z" fill="#60347B"/>
<path d="M457.656 95.0251L456.51 94.8L456.008 97.3536L454.571 97.0711L455.942 90.0952L458.534 90.6048C459.359 90.7668 459.958 91.0754 460.333 91.5306C460.708 91.9858 460.829 92.5488 460.698 93.2196C460.604 93.6955 460.422 94.0727 460.152 94.3513C459.885 94.6274 459.524 94.8185 459.069 94.9247L460.017 98.0721L460.004 98.1391L458.461 97.8359L457.656 95.0251ZM456.739 93.6357L457.899 93.8637C458.26 93.9346 458.557 93.8985 458.791 93.7554C459.025 93.6091 459.174 93.3746 459.238 93.052C459.302 92.723 459.259 92.4458 459.108 92.2203C458.959 91.9954 458.692 91.845 458.306 91.769L457.151 91.542L456.739 93.6357ZM465.629 96.1049L462.87 95.5624L462.502 97.4309L465.741 98.0676L465.514 99.2223L460.838 98.303L462.209 91.3272L466.876 92.2445L466.647 93.4088L463.418 92.774L463.091 94.4365L465.851 94.979L465.629 96.1049ZM466.357 99.3881L467.729 92.4122L469.875 92.8341C470.488 92.9547 471.009 93.2013 471.436 93.574C471.868 93.9442 472.169 94.4114 472.34 94.9759C472.512 95.5371 472.534 96.1419 472.406 96.7903L472.343 97.1113C472.216 97.7597 471.968 98.3099 471.601 98.7618C471.237 99.2143 470.784 99.5318 470.244 99.7143C469.704 99.8967 469.129 99.9296 468.518 99.8128L466.357 99.3881ZM468.937 93.859L468.022 98.516L468.716 98.6525C469.278 98.763 469.744 98.6638 470.113 98.3549C470.483 98.046 470.738 97.5504 470.878 96.8681L470.951 96.4992C471.09 95.7901 471.049 95.2246 470.827 94.8027C470.605 94.3776 470.211 94.1095 469.646 93.9984L468.937 93.859ZM479.39 94.7047L478.487 99.2994C478.337 100.063 477.979 100.619 477.412 100.969C476.849 101.32 476.154 101.413 475.327 101.251C474.512 101.091 473.908 100.748 473.513 100.223C473.119 99.6972 472.991 99.0566 473.13 98.3009L474.043 93.6536L475.481 93.9361L474.575 98.5404C474.486 98.9971 474.529 99.3523 474.704 99.6058C474.884 99.8567 475.167 100.02 475.554 100.096C476.362 100.255 476.856 99.9109 477.035 99.0638L477.948 94.4212L479.39 94.7047ZM485.13 100.665C484.929 101.405 484.535 101.941 483.948 102.274C483.365 102.607 482.665 102.693 481.847 102.533C480.953 102.357 480.308 101.918 479.911 101.217C479.519 100.512 479.426 99.635 479.633 98.5841L479.717 98.1577C479.848 97.4869 480.083 96.9193 480.42 96.4547C480.756 95.9901 481.17 95.6651 481.661 95.4796C482.156 95.2916 482.694 95.2547 483.275 95.369C484.08 95.5272 484.686 95.8703 485.093 96.3981C485.501 96.926 485.666 97.5872 485.589 98.3816L484.152 98.0991C484.205 97.6418 484.143 97.2912 483.966 97.0473C483.792 96.8008 483.484 96.6342 483.044 96.5476C482.565 96.4534 482.171 96.5552 481.864 96.8531C481.56 97.1484 481.335 97.6563 481.186 98.3769L481.083 98.904C480.934 99.6578 480.94 100.231 481.098 100.624C481.259 101.017 481.586 101.262 482.078 101.359C482.522 101.446 482.872 101.411 483.129 101.252C483.39 101.091 483.578 100.801 483.693 100.383L485.13 100.665ZM491.551 101.927C491.349 102.667 490.955 103.203 490.368 103.536C489.785 103.869 489.085 103.956 488.267 103.795C487.373 103.619 486.728 103.18 486.331 102.479C485.939 101.775 485.846 100.897 486.053 99.8462L486.137 99.4198C486.268 98.749 486.503 98.1814 486.84 97.7168C487.176 97.2522 487.59 96.9272 488.081 96.7417C488.576 96.5536 489.114 96.5168 489.695 96.631C490.5 96.7893 491.106 97.1323 491.514 97.6602C491.921 98.1881 492.086 98.8493 492.009 99.6437L490.572 99.3612C490.625 98.9039 490.563 98.5533 490.386 98.3094C490.212 98.0629 489.905 97.8963 489.464 97.8097C488.985 97.7155 488.591 97.8173 488.284 98.1152C487.981 98.4105 487.755 98.9184 487.606 99.639L487.503 100.166C487.355 100.92 487.36 101.493 487.518 101.886C487.679 102.279 488.006 102.524 488.498 102.621C488.942 102.708 489.292 102.673 489.549 102.514C489.81 102.353 489.998 102.063 490.113 101.645L491.551 101.927ZM493.566 104.737L492.129 104.454L493.5 97.4785L494.937 97.761L493.566 104.737ZM501.287 102.796C501.152 103.483 500.913 104.061 500.568 104.531C500.224 105.001 499.797 105.332 499.288 105.523C498.783 105.716 498.238 105.755 497.653 105.64C497.075 105.526 496.586 105.286 496.188 104.919C495.789 104.552 495.515 104.087 495.367 103.523C495.22 102.957 495.21 102.338 495.339 101.667L495.407 101.322C495.542 100.635 495.783 100.056 496.132 99.5833C496.484 99.1084 496.912 98.7763 497.417 98.587C497.926 98.395 498.471 98.3562 499.053 98.4705C499.634 98.5848 500.122 98.8267 500.517 99.1963C500.916 99.5634 501.187 100.033 501.33 100.605C501.477 101.175 501.483 101.801 501.349 102.485L501.287 102.796ZM499.893 102.194C500.037 101.462 500.015 100.881 499.828 100.449C499.641 100.018 499.304 99.7541 498.819 99.6587C498.337 99.5639 497.927 99.6792 497.591 100.005C497.256 100.327 497.016 100.85 496.87 101.575L496.803 101.915C496.663 102.627 496.685 103.205 496.87 103.65C497.055 104.094 497.393 104.365 497.885 104.461C498.367 104.556 498.775 104.44 499.107 104.114C499.441 103.785 499.68 103.258 499.826 102.534L499.893 102.194ZM507.35 107.447L505.913 107.164L504.017 102.024L503.115 106.614L501.677 106.331L503.049 99.3556L504.486 99.6382L506.385 104.789L507.289 100.189L508.721 100.471L507.35 107.447ZM511.049 108.174L512.42 101.198L514.566 101.62C515.18 101.74 515.7 101.987 516.128 102.36C516.559 102.73 516.861 103.197 517.032 103.762C517.203 104.323 517.225 104.928 517.098 105.576L517.035 105.897C516.907 106.545 516.66 107.096 516.292 107.547C515.928 108 515.476 108.318 514.936 108.5C514.396 108.682 513.82 108.715 513.21 108.599L511.049 108.174ZM513.629 102.645L512.713 107.302L513.408 107.438C513.97 107.549 514.436 107.45 514.805 107.141C515.174 106.832 515.429 106.336 515.57 105.654L515.642 105.285C515.782 104.576 515.74 104.01 515.518 103.588C515.296 103.163 514.903 102.895 514.338 102.784L513.629 102.645ZM522.222 107.23L519.462 106.688L519.095 108.556L522.334 109.193L522.107 110.348L517.43 109.428L518.802 102.452L523.468 103.37L523.239 104.534L520.01 103.899L519.683 105.562L522.443 106.104L522.222 107.23ZM531.326 109.747C531.124 110.486 530.73 111.023 530.144 111.355C529.561 111.689 528.861 111.775 528.043 111.614C527.149 111.438 526.504 111 526.107 110.298C525.715 109.594 525.622 108.716 525.829 107.666L525.912 107.239C526.044 106.568 526.279 106.001 526.615 105.536C526.952 105.072 527.366 104.747 527.857 104.561C528.352 104.373 528.89 104.336 529.471 104.45C530.276 104.609 530.882 104.952 531.289 105.48C531.696 106.007 531.862 106.669 531.785 107.463L530.348 107.181C530.401 106.723 530.339 106.373 530.162 106.129C529.988 105.882 529.68 105.716 529.24 105.629C528.76 105.535 528.367 105.637 528.06 105.935C527.756 106.23 527.53 106.738 527.382 107.458L527.279 107.985C527.13 108.739 527.135 109.312 527.294 109.705C527.455 110.099 527.782 110.344 528.274 110.44C528.718 110.528 529.068 110.492 529.325 110.333C529.586 110.172 529.774 109.883 529.889 109.464L531.326 109.747ZM536.034 111.593L533.514 111.097L532.752 112.44L531.224 112.14L535.192 105.675L536.524 105.936L537.764 113.426L536.236 113.125L536.034 111.593ZM534.131 110.009L535.875 110.352L535.512 107.569L534.131 110.009ZM541.5 111.508L540.355 111.283L539.853 113.836L538.416 113.554L539.787 106.578L542.379 107.087C543.203 107.249 543.802 107.558 544.177 108.013C544.552 108.468 544.674 109.031 544.542 109.702C544.449 110.178 544.267 110.555 543.996 110.834C543.73 111.11 543.369 111.301 542.913 111.407L543.862 114.555L543.849 114.622L542.306 114.318L541.5 111.508ZM540.584 110.118L541.743 110.346C542.104 110.417 542.402 110.381 542.635 110.238C542.87 110.092 543.019 109.857 543.082 109.535C543.147 109.206 543.103 108.928 542.952 108.703C542.804 108.478 542.536 108.328 542.15 108.252L540.995 108.025L540.584 110.118ZM550.375 114.989C550.055 115.248 549.642 115.417 549.136 115.497C548.63 115.573 548.089 115.555 547.514 115.442C546.911 115.323 546.406 115.088 546.001 114.736C545.599 114.382 545.323 113.93 545.173 113.379C545.025 112.829 545.015 112.215 545.142 111.537L545.235 111.063C545.372 110.366 545.607 109.787 545.94 109.325C546.277 108.861 546.692 108.537 547.185 108.356C547.683 108.172 548.229 108.138 548.823 108.255C549.65 108.417 550.258 108.742 550.646 109.23C551.035 109.715 551.199 110.342 551.137 111.113L549.738 110.838C549.753 110.426 549.668 110.106 549.484 109.877C549.303 109.65 549.021 109.498 548.638 109.423C548.149 109.326 547.741 109.437 547.413 109.754C547.085 110.071 546.849 110.592 546.703 111.316L546.615 111.762C546.472 112.493 546.502 113.073 546.706 113.502C546.911 113.93 547.281 114.197 547.818 114.302C548.358 114.408 548.765 114.369 549.04 114.184L549.277 112.982L547.969 112.725L548.177 111.666L550.922 112.205L550.375 114.989ZM555.592 115.437L553.071 114.942L552.31 116.285L550.781 115.985L554.75 109.519L556.081 109.781L557.321 117.27L555.793 116.97L555.592 115.437ZM553.688 113.854L555.432 114.197L555.069 111.413L553.688 113.854ZM566.349 116.632C566.148 117.372 565.753 117.908 565.167 118.24C564.584 118.574 563.884 118.66 563.066 118.499C562.172 118.323 561.527 117.885 561.13 117.183C560.738 116.479 560.645 115.601 560.852 114.551L560.935 114.124C561.067 113.453 561.302 112.886 561.638 112.421C561.975 111.957 562.389 111.632 562.88 111.446C563.375 111.258 563.913 111.221 564.494 111.335C565.299 111.494 565.905 111.837 566.312 112.365C566.719 112.893 566.885 113.554 566.808 114.348L565.371 114.066C565.424 113.608 565.362 113.258 565.185 113.014C565.011 112.767 564.703 112.601 564.263 112.514C563.784 112.42 563.39 112.522 563.083 112.82C562.779 113.115 562.553 113.623 562.405 114.343L562.302 114.87C562.153 115.624 562.158 116.198 562.317 116.59C562.478 116.984 562.805 117.229 563.297 117.325C563.741 117.413 564.091 117.377 564.348 117.218C564.609 117.057 564.797 116.768 564.912 116.349L566.349 116.632ZM571.628 116.943L568.868 116.4L568.501 118.269L571.74 118.905L571.513 120.06L566.836 119.141L568.208 112.165L572.874 113.082L572.645 114.247L569.416 113.612L569.089 115.274L571.849 115.817L571.628 116.943ZM575.44 118.18L574.295 117.955L573.793 120.508L572.356 120.226L573.727 113.25L576.319 113.76C577.143 113.922 577.743 114.23 578.118 114.685C578.493 115.141 578.614 115.704 578.482 116.374C578.389 116.85 578.207 117.228 577.936 117.506C577.67 117.782 577.309 117.973 576.853 118.079L577.802 121.227L577.789 121.294L576.246 120.991L575.44 118.18ZM574.524 116.791L575.683 117.018C576.044 117.089 576.342 117.053 576.576 116.91C576.81 116.764 576.959 116.529 577.022 116.207C577.087 115.878 577.044 115.601 576.892 115.375C576.744 115.15 576.477 115 576.09 114.924L574.936 114.697L574.524 116.791ZM583.414 119.26L580.654 118.717L580.287 120.586L583.526 121.222L583.299 122.377L578.623 121.458L579.994 114.482L584.66 115.399L584.432 116.564L581.202 115.929L580.876 117.591L583.635 118.134L583.414 119.26ZM584.142 122.543L585.513 115.567L587.957 116.047C588.803 116.214 589.413 116.503 589.787 116.915C590.161 117.323 590.286 117.841 590.163 118.467C590.096 118.808 589.949 119.093 589.722 119.32C589.495 119.545 589.214 119.687 588.877 119.746C589.217 119.906 589.462 120.142 589.613 120.454C589.768 120.766 589.806 121.118 589.729 121.511C589.597 122.182 589.283 122.648 588.787 122.909C588.292 123.17 587.647 123.225 586.854 123.076L584.142 122.543ZM586.176 119.788L585.806 121.671L587.038 121.913C587.376 121.979 587.655 121.951 587.875 121.829C588.099 121.703 588.239 121.499 588.295 121.214C588.42 120.576 588.153 120.186 587.494 120.047L586.176 119.788ZM586.376 118.772L587.44 118.981C588.167 119.111 588.587 118.893 588.698 118.328C588.76 118.012 588.712 117.767 588.554 117.593C588.399 117.417 588.124 117.289 587.728 117.212L586.722 117.014L586.376 118.772ZM593.493 121.729L592.348 121.504L591.846 124.057L590.409 123.775L591.78 116.799L594.372 117.308C595.196 117.47 595.796 117.779 596.171 118.234C596.546 118.69 596.667 119.253 596.535 119.923C596.442 120.399 596.26 120.776 595.989 121.055C595.723 121.331 595.362 121.522 594.906 121.628L595.855 124.776L595.842 124.843L594.299 124.54L593.493 121.729ZM592.577 120.339L593.736 120.567C594.097 120.638 594.395 120.602 594.628 120.459C594.863 120.313 595.012 120.078 595.075 119.756C595.14 119.427 595.097 119.149 594.945 118.924C594.797 118.699 594.53 118.549 594.143 118.473L592.989 118.246L592.577 120.339ZM600.896 124.344L598.376 123.848L597.615 125.191L596.086 124.891L600.054 118.426L601.386 118.687L602.626 126.177L601.098 125.876L600.896 124.344ZM598.993 122.76L600.737 123.103L600.374 120.32L598.993 122.76ZM604.942 125.433L607.994 126.033L607.767 127.187L603.278 126.305L604.649 119.329L606.086 119.611L604.942 125.433Z" fill="#60347B"/>
</svg>
