<svg width="214" height="40" viewBox="0 0 214 40" fill="none" xmlns="http://www.w3.org/2000/svg">
<path d="M64.5488 25H61.9121L56.7793 16.5801V25H54.1426V12.2031H56.7793L61.9209 20.6406V12.2031H64.5488V25ZM74.5508 19.4541H69.4883V22.8818H75.4297V25H66.8516V12.2031H75.4121V14.3389H69.4883V17.3887H74.5508V19.4541ZM87.4883 18.8916C87.4883 20.1514 87.2656 21.2559 86.8203 22.2051C86.375 23.1543 85.7363 23.8867 84.9043 24.4023C84.0781 24.918 83.1289 25.1758 82.0566 25.1758C80.9961 25.1758 80.0498 24.9209 79.2178 24.4111C78.3857 23.9014 77.7412 23.1748 77.2842 22.2314C76.8271 21.2822 76.5957 20.1924 76.5898 18.9619V18.3291C76.5898 17.0693 76.8154 15.9619 77.2666 15.0068C77.7236 14.0459 78.3652 13.3105 79.1914 12.8008C80.0234 12.2852 80.9727 12.0273 82.0391 12.0273C83.1055 12.0273 84.0518 12.2852 84.8779 12.8008C85.71 13.3105 86.3516 14.0459 86.8027 15.0068C87.2598 15.9619 87.4883 17.0664 87.4883 18.3203V18.8916ZM84.8164 18.3115C84.8164 16.9697 84.5762 15.9502 84.0957 15.2529C83.6152 14.5557 82.9297 14.207 82.0391 14.207C81.1543 14.207 80.4717 14.5527 79.9912 15.2441C79.5107 15.9297 79.2676 16.9375 79.2617 18.2676V18.8916C79.2617 20.1982 79.502 21.2119 79.9824 21.9326C80.4629 22.6533 81.1543 23.0137 82.0566 23.0137C82.9414 23.0137 83.6211 22.668 84.0957 21.9766C84.5703 21.2793 84.8105 20.2656 84.8164 18.9355V18.3115Z" fill="#60347B"/>
<path d="M96.6289 22.3633H92.0059L91.127 25H88.3232L93.0869 12.2031H95.5303L100.32 25H97.5166L96.6289 22.3633ZM92.7178 20.2275H95.917L94.3086 15.4375L92.7178 20.2275ZM108.151 21.6426C108.151 21.1445 107.976 20.7637 107.624 20.5C107.272 20.2305 106.64 19.9492 105.726 19.6562C104.812 19.3574 104.088 19.0645 103.555 18.7773C102.102 17.9922 101.375 16.9346 101.375 15.6045C101.375 14.9131 101.568 14.2979 101.955 13.7588C102.348 13.2139 102.907 12.7891 103.634 12.4844C104.366 12.1797 105.187 12.0273 106.095 12.0273C107.009 12.0273 107.823 12.1943 108.538 12.5283C109.253 12.8564 109.807 13.3223 110.199 13.9258C110.598 14.5293 110.797 15.2148 110.797 15.9824H108.16C108.16 15.3965 107.976 14.9424 107.606 14.6201C107.237 14.292 106.719 14.1279 106.051 14.1279C105.406 14.1279 104.905 14.2656 104.548 14.541C104.19 14.8105 104.012 15.168 104.012 15.6133C104.012 16.0293 104.22 16.3779 104.636 16.6592C105.058 16.9404 105.676 17.2041 106.49 17.4502C107.99 17.9014 109.083 18.4609 109.769 19.1289C110.454 19.7969 110.797 20.6289 110.797 21.625C110.797 22.7324 110.378 23.6025 109.54 24.2354C108.702 24.8623 107.574 25.1758 106.156 25.1758C105.172 25.1758 104.275 24.9971 103.467 24.6396C102.658 24.2764 102.04 23.7812 101.612 23.1543C101.19 22.5273 100.979 21.8008 100.979 20.9746H103.625C103.625 22.3867 104.469 23.0928 106.156 23.0928C106.783 23.0928 107.272 22.9668 107.624 22.7148C107.976 22.457 108.151 22.0996 108.151 21.6426ZM119.226 21.6426C119.226 21.1445 119.05 20.7637 118.698 20.5C118.347 20.2305 117.714 19.9492 116.8 19.6562C115.886 19.3574 115.162 19.0645 114.629 18.7773C113.176 17.9922 112.449 16.9346 112.449 15.6045C112.449 14.9131 112.643 14.2979 113.029 13.7588C113.422 13.2139 113.981 12.7891 114.708 12.4844C115.44 12.1797 116.261 12.0273 117.169 12.0273C118.083 12.0273 118.897 12.1943 119.612 12.5283C120.327 12.8564 120.881 13.3223 121.273 13.9258C121.672 14.5293 121.871 15.2148 121.871 15.9824H119.234C119.234 15.3965 119.05 14.9424 118.681 14.6201C118.312 14.292 117.793 14.1279 117.125 14.1279C116.48 14.1279 115.979 14.2656 115.622 14.541C115.265 14.8105 115.086 15.168 115.086 15.6133C115.086 16.0293 115.294 16.3779 115.71 16.6592C116.132 16.9404 116.75 17.2041 117.564 17.4502C119.064 17.9014 120.157 18.4609 120.843 19.1289C121.528 19.7969 121.871 20.6289 121.871 21.625C121.871 22.7324 121.452 23.6025 120.614 24.2354C119.776 24.8623 118.648 25.1758 117.23 25.1758C116.246 25.1758 115.35 24.9971 114.541 24.6396C113.732 24.2764 113.114 23.7812 112.687 23.1543C112.265 22.5273 112.054 21.8008 112.054 20.9746H114.699C114.699 22.3867 115.543 23.0928 117.23 23.0928C117.857 23.0928 118.347 22.9668 118.698 22.7148C119.05 22.457 119.226 22.0996 119.226 21.6426ZM126.468 25H123.831V12.2031H126.468V25ZM132.365 12.2031L135.652 21.4844L138.922 12.2031H142.385V25H139.739V21.502L140.003 15.4639L136.549 25H134.738L131.293 15.4727L131.557 21.502V25H128.92V12.2031H132.365ZM147.491 25H144.854V12.2031H147.491V25ZM152.58 22.8818H158.179V25H149.943V12.2031H152.58V22.8818ZM167.1 22.3633H162.477L161.598 25H158.794L163.558 12.2031H166.001L170.791 25H167.987L167.1 22.3633ZM163.188 20.2275H166.388L164.779 15.4375L163.188 20.2275ZM180.564 14.3389H176.645V25H174.008V14.3389H170.141V12.2031H180.564V14.3389ZM184.88 25H182.243V12.2031H184.88V25ZM197.844 18.8916C197.844 20.1514 197.621 21.2559 197.176 22.2051C196.73 23.1543 196.092 23.8867 195.26 24.4023C194.434 24.918 193.484 25.1758 192.412 25.1758C191.352 25.1758 190.405 24.9209 189.573 24.4111C188.741 23.9014 188.097 23.1748 187.64 22.2314C187.183 21.2822 186.951 20.1924 186.945 18.9619V18.3291C186.945 17.0693 187.171 15.9619 187.622 15.0068C188.079 14.0459 188.721 13.3105 189.547 12.8008C190.379 12.2852 191.328 12.0273 192.395 12.0273C193.461 12.0273 194.407 12.2852 195.233 12.8008C196.065 13.3105 196.707 14.0459 197.158 15.0068C197.615 15.9619 197.844 17.0664 197.844 18.3203V18.8916ZM195.172 18.3115C195.172 16.9697 194.932 15.9502 194.451 15.2529C193.971 14.5557 193.285 14.207 192.395 14.207C191.51 14.207 190.827 14.5527 190.347 15.2441C189.866 15.9297 189.623 16.9375 189.617 18.2676V18.8916C189.617 20.1982 189.857 21.2119 190.338 21.9326C190.818 22.6533 191.51 23.0137 192.412 23.0137C193.297 23.0137 193.977 22.668 194.451 21.9766C194.926 21.2793 195.166 20.2656 195.172 18.9355V18.3115ZM210.166 25H207.529L202.396 16.5801V25H199.76V12.2031H202.396L207.538 20.6406V12.2031H210.166V25Z" fill="#AC3FE0"/>
<g clip-path="url(#clip0)">
<path d="M29.4566 15.4964C29.6359 14.988 29.7289 14.4497 29.7289 13.9067C29.7289 11.5145 27.9388 9.50883 25.6282 9.17625C25.1779 7.87476 23.9343 6.95578 22.5121 6.95578C21.5059 6.95578 20.6035 7.4093 19.9987 8.12258C19.3939 7.4093 18.4915 6.95578 17.4852 6.95578C16.0642 6.95578 14.8214 7.87476 14.3714 9.17625C12.0595 9.50859 10.2685 11.5143 10.2685 13.9067C10.2685 14.4497 10.3616 14.9883 10.5409 15.4967C8.96487 16.4301 7.98315 18.1219 7.98315 19.9989C7.98315 21.876 8.96495 23.5678 10.541 24.5012C10.3616 25.0101 10.2685 25.5493 10.2685 26.0934C10.2685 28.4858 12.0594 30.4915 14.3714 30.8238C14.8214 32.1253 16.0642 33.0443 17.4852 33.0443C18.4914 33.0443 19.3939 32.5908 19.9987 31.8775C20.6035 32.5908 21.5059 33.0443 22.5121 33.0443C23.9343 33.0443 25.1779 32.1253 25.6282 30.8238C27.9388 30.4913 29.7289 28.4856 29.7289 26.0934C29.7289 25.5495 29.6358 25.0103 29.4565 24.5015C31.0325 23.5687 32.0142 21.8768 32.0142 19.9989C32.0142 18.121 31.0326 16.4292 29.4566 15.4964V15.4964ZM28.1455 23.4104C27.9366 23.4941 27.7739 23.6639 27.6992 23.8762C27.6245 24.0886 27.6449 24.3228 27.7554 24.519C28.0243 24.9964 28.1664 25.5409 28.1664 26.0933C28.1664 27.8435 26.743 29.2862 24.9933 29.3093C24.6063 29.3144 24.2814 29.6021 24.2294 29.9856C24.1139 30.8385 23.3757 31.4816 22.5123 31.4816C21.5571 31.4816 20.7801 30.7046 20.7801 29.7494V21.1637C20.7801 20.7323 20.4303 20.3825 19.9989 20.3825C19.5674 20.3825 19.2176 20.7323 19.2176 21.1637V29.7495C19.2176 30.7047 18.4405 31.4817 17.4853 31.4817C16.6232 31.4817 15.8859 30.8386 15.7704 29.9857C15.7185 29.6022 15.3935 29.3145 15.0065 29.3094C13.2556 29.2863 11.8311 27.8436 11.8311 26.0934C11.8311 25.5409 11.9732 24.9965 12.2421 24.5191C12.3526 24.323 12.3731 24.0888 12.2985 23.8765C12.2238 23.6642 12.0612 23.4944 11.8525 23.4106C10.4512 22.8483 9.54581 21.5091 9.54581 19.9989C9.54581 18.4956 10.4432 17.1621 11.8336 16.5952C12.2001 16.4717 12.586 16.4087 12.981 16.4087C13.8661 16.4087 14.7162 16.7329 15.3746 17.3216C15.5237 17.4549 15.7097 17.5205 15.8951 17.5205C16.1098 17.5205 16.3235 17.4325 16.4778 17.2599C16.7653 16.9383 16.7377 16.4444 16.416 16.1568C15.4707 15.3117 14.2508 14.8463 12.981 14.8463C12.6499 14.8463 12.3228 14.8783 12.0024 14.9398C11.89 14.6087 11.8312 14.2595 11.8312 13.9069C11.8312 12.1566 13.2557 10.7139 15.0066 10.6909C15.3936 10.6858 15.7185 10.398 15.7705 10.0145C15.886 9.16164 16.6232 8.51851 17.4854 8.51851C18.4406 8.51851 19.2177 9.29555 19.2177 10.2508V14.1484C19.2177 14.5798 19.5675 14.9296 19.9989 14.9296C20.4304 14.9296 20.7802 14.5798 20.7802 14.1484V10.2508C20.7802 9.29555 21.5572 8.51851 22.5124 8.51851C23.3759 8.51851 24.1141 9.16164 24.2295 10.0145C24.2814 10.398 24.6064 10.6858 24.9934 10.6909C26.7431 10.7139 28.1665 12.1566 28.1665 13.9069C28.1665 14.2594 28.1077 14.6087 27.9953 14.9398C27.6749 14.8784 27.3478 14.8463 27.0167 14.8463C25.7496 14.8463 24.5299 15.3115 23.5824 16.1561C23.2603 16.4432 23.2321 16.937 23.5191 17.2591C23.6735 17.4323 23.8875 17.5205 24.1025 17.5205C24.2875 17.5205 24.4732 17.4552 24.6221 17.3225C25.283 16.7334 26.1334 16.4089 27.0166 16.4089C27.4117 16.4089 27.7975 16.4719 28.164 16.5955C29.5544 17.1614 30.4517 18.4949 30.4517 19.9991C30.4518 21.5098 29.5465 22.8489 28.1455 23.4104V23.4104Z" fill="#60347B"/>
<path d="M13.7362 20.0705C13.3086 20.0136 12.9154 20.3131 12.8579 20.7408C12.8004 21.1684 13.1005 21.5616 13.5282 21.6191C15.0591 21.8248 16.1373 23.2378 15.9317 24.769C15.8743 25.1967 16.1744 25.5899 16.602 25.6473C16.6373 25.652 16.6723 25.6543 16.707 25.6543C17.0922 25.6543 17.4276 25.3694 17.4803 24.977C17.8006 22.592 16.121 20.3909 13.7362 20.0705Z" fill="#60347B"/>
<path d="M26.2614 20.0705C23.8779 20.3911 22.1993 22.5921 22.5197 24.977C22.5724 25.3694 22.9077 25.6544 23.2929 25.6544C23.3276 25.6544 23.3627 25.6521 23.3979 25.6473C23.8256 25.5899 24.1257 25.1966 24.0683 24.7691C23.8626 23.2379 24.9399 21.8248 26.4697 21.6191C26.8973 21.5616 27.1973 21.1683 27.1398 20.7407C27.0823 20.3131 26.6888 20.0127 26.2614 20.0705V20.0705Z" fill="#60347B"/>
<path d="M37.7018 15.5791H36.7316C36.3349 14.0751 35.739 12.6384 34.9541 11.2941L35.64 10.6069C36.0736 10.1749 36.3127 9.59875 36.3134 8.98453C36.3139 8.3693 36.0752 7.79141 35.6411 7.35727L32.6404 4.35664C32.2079 3.92422 31.6311 3.68602 31.0161 3.68602C30.4011 3.68602 29.8243 3.92422 29.3918 4.35664L28.7048 5.04359C27.3559 4.25734 25.9188 3.6618 24.4185 3.26773V2.29602C24.4186 1.03 23.3887 0 22.1226 0H17.8773C16.6101 0 15.5791 1.03 15.5791 2.29602V3.26789C14.0796 3.66227 12.643 4.25773 11.2945 5.04391L10.6059 4.35664C9.71188 3.46266 8.25508 3.46234 7.35727 4.35664L4.35562 7.35844C3.46227 8.25523 3.46273 9.71203 4.35664 10.6059L5.04539 11.2947C4.25844 12.6421 3.66242 14.0786 3.26781 15.5791H2.29594C1.03 15.5791 0 16.6101 0 17.8773V22.1227C0 23.3887 1.03 24.4187 2.29602 24.4187H3.26773C3.66219 25.92 4.25813 27.357 5.04516 28.7048L4.35664 29.3919C3.92422 29.8243 3.68609 30.4012 3.68609 31.0162C3.68609 31.6312 3.92422 32.208 4.35672 32.6405L7.35734 35.6411C7.79148 36.0752 8.37187 36.313 8.98461 36.3133C9.59875 36.3127 10.1749 36.0737 10.6053 35.6416L11.2939 34.9543C12.6359 35.7385 14.0727 36.3344 15.5791 36.7315V37.7017C15.5791 38.969 16.6101 39.9999 17.8773 39.9999H22.1226C23.3886 39.9999 24.4186 38.969 24.4186 37.7017V36.7316C25.9236 36.3352 27.3608 35.7393 28.7053 34.9544L29.3909 35.6399C29.8234 36.0741 30.4006 36.3132 31.0162 36.3132C31.6316 36.3132 32.2089 36.0741 32.6404 35.641L35.6401 32.6413C36.0743 32.2088 36.3134 31.6316 36.3134 31.016C36.3134 30.4005 36.0743 29.8232 35.6412 29.3917L34.9542 28.7048C35.74 27.3568 36.3359 25.9198 36.7318 24.4185H37.7019C38.9691 24.4185 40.0001 23.3885 40.0001 22.1225V17.8772C40 16.6101 38.9691 15.5791 37.7018 15.5791V15.5791ZM38.4375 22.1227C38.4375 22.5271 38.1074 22.8562 37.7018 22.8562H36.1184C35.753 22.8562 35.4365 23.1094 35.3562 23.4659C34.9621 25.2166 34.2729 26.879 33.3077 28.4065C33.1125 28.7152 33.1574 29.118 33.4156 29.3762L34.5372 30.4977C34.6749 30.635 34.7508 30.8191 34.7508 31.0162C34.7508 31.2133 34.6749 31.3973 34.5362 31.5355L31.5345 34.5373C31.3973 34.675 31.2131 34.7508 31.0161 34.7508C30.8191 34.7508 30.6349 34.6749 30.4967 34.5362L29.3762 33.4156C29.1177 33.1571 28.7145 33.1124 28.4058 33.308C26.8841 34.2717 25.2221 34.9608 23.4658 35.3562C23.1093 35.4364 22.8561 35.753 22.8561 36.1184V37.7018C22.8561 38.1074 22.527 38.4375 22.1226 38.4375H17.8773C17.4717 38.4375 17.1416 38.1074 17.1416 37.7018V36.1184C17.1416 35.753 16.8885 35.4365 16.5322 35.3562C14.7735 34.9598 13.1123 34.2708 11.5946 33.3083C11.4659 33.2266 11.3208 33.1868 11.1765 33.1868C10.9749 33.1868 10.7751 33.2646 10.6244 33.4151L9.5 34.5373C9.36297 34.6748 9.17938 34.7506 8.9832 34.7508C8.98297 34.7508 8.98273 34.7508 8.9825 34.7508C8.78547 34.7508 8.6007 34.6746 8.46227 34.5362L5.46164 31.5355C5.18008 31.254 5.18008 30.7783 5.46109 30.4973L6.58383 29.3767C6.84273 29.1183 6.88773 28.7148 6.69195 28.4058C5.725 26.8788 5.03602 25.2171 4.64398 23.4666C4.56406 23.1098 4.24727 22.8561 3.88164 22.8561H2.29602C1.89156 22.8561 1.5625 22.527 1.5625 22.1226V17.8773C1.5625 17.4716 1.89156 17.1416 2.29602 17.1416H3.88156C4.24719 17.1416 4.56391 16.888 4.64391 16.5312C5.03617 14.7817 5.72516 13.1207 6.69187 11.5941C6.88742 11.2853 6.84273 10.8822 6.5843 10.6237L5.46156 9.50094C5.1757 9.21508 5.17617 8.74859 5.46156 8.46211L8.46125 5.46242C8.74883 5.17617 9.21531 5.17555 9.50164 5.46195L10.6244 6.5825C10.8827 6.84031 11.2851 6.88508 11.5936 6.69C13.1221 5.72414 14.7834 5.0357 16.5314 4.64383C16.8882 4.56391 17.1418 4.24711 17.1418 3.88148V2.29602C17.1418 1.89156 17.4719 1.5625 17.8775 1.5625H22.1227C22.5272 1.5625 22.8562 1.89156 22.8562 2.29602V3.88164C22.8562 4.24734 23.1099 4.56406 23.4668 4.64406C25.2158 5.0357 26.8778 5.72406 28.4066 6.69016C28.7153 6.88523 29.1181 6.84039 29.3763 6.58211L30.4969 5.46156C30.7784 5.18 31.2541 5.18 31.5357 5.46156L34.5364 8.46219C34.675 8.6007 34.7512 8.78578 34.751 8.98313C34.7509 9.17938 34.675 9.36289 34.5359 9.50156L33.4153 10.6243C33.1573 10.8829 33.1128 11.2856 33.3083 11.5941C34.2718 13.1157 34.9609 14.777 35.3565 16.5322C35.4368 16.8885 35.7534 17.1416 36.1186 17.1416H37.702C38.1076 17.1416 38.4377 17.4717 38.4377 17.8773V22.1227H38.4375Z" fill="#60347B"/>
<path d="M19.9988 16.8747C19.5673 16.8747 19.2175 17.2245 19.2175 17.6559V17.6604C19.2175 18.0918 19.5673 18.4395 19.9988 18.4395C20.4303 18.4395 20.78 18.0874 20.78 17.656C20.78 17.2246 20.4303 16.8747 19.9988 16.8747Z" fill="#60347B"/>
</g>
<defs>
<clipPath id="clip0">
<rect width="40" height="40" fill="white"/>
</clipPath>
</defs>
</svg>
