<svg width="259" height="40" viewBox="0 0 259 40" fill="none" xmlns="http://www.w3.org/2000/svg">
<path d="M66.7601 27H64.1234L58.9906 18.5801V27H56.3538V14.2031H58.9906L64.1322 22.6406V14.2031H66.7601V27ZM76.762 21.4541H71.6995V24.8818H77.641V27H69.0628V14.2031H77.6234V16.3389H71.6995V19.3887H76.762V21.4541ZM88.8734 14.2031V22.6318C88.8734 24.0322 88.4339 25.1396 87.555 25.9541C86.682 26.7686 85.4867 27.1758 83.9691 27.1758C82.4749 27.1758 81.2884 26.7803 80.4095 25.9893C79.5306 25.1982 79.0824 24.1113 79.0648 22.7285V14.2031H81.7015V22.6494C81.7015 23.4873 81.9007 24.0996 82.2992 24.4863C82.7035 24.8672 83.2601 25.0576 83.9691 25.0576C85.4515 25.0576 86.2044 24.2783 86.2279 22.7197V14.2031H88.8734ZM95.7728 22.3154H93.6722V27H91.0355V14.2031H95.7904C97.3021 14.2031 98.4681 14.54 99.2884 15.2139C100.109 15.8877 100.519 16.8398 100.519 18.0703C100.519 18.9434 100.328 19.6729 99.9476 20.2588C99.5726 20.8389 99.0013 21.3018 98.2337 21.6475L101.002 26.877V27H98.1722L95.7728 22.3154ZM93.6722 20.1797H95.7992C96.4613 20.1797 96.974 20.0127 97.3372 19.6787C97.7005 19.3389 97.8822 18.873 97.8822 18.2812C97.8822 17.6777 97.7093 17.2031 97.3636 16.8574C97.0238 16.5117 96.4994 16.3389 95.7904 16.3389H93.6722V20.1797ZM113.043 20.8916C113.043 22.1514 112.821 23.2559 112.375 24.2051C111.93 25.1543 111.291 25.8867 110.459 26.4023C109.633 26.918 108.684 27.1758 107.612 27.1758C106.551 27.1758 105.605 26.9209 104.773 26.4111C103.941 25.9014 103.296 25.1748 102.839 24.2314C102.382 23.2822 102.151 22.1924 102.145 20.9619V20.3291C102.145 19.0693 102.37 17.9619 102.822 17.0068C103.279 16.0459 103.92 15.3105 104.746 14.8008C105.578 14.2852 106.528 14.0273 107.594 14.0273C108.66 14.0273 109.607 14.2852 110.433 14.8008C111.265 15.3105 111.907 16.0459 112.358 17.0068C112.815 17.9619 113.043 19.0664 113.043 20.3203V20.8916ZM110.371 20.3115C110.371 18.9697 110.131 17.9502 109.651 17.2529C109.17 16.5557 108.485 16.207 107.594 16.207C106.709 16.207 106.027 16.5527 105.546 17.2441C105.066 17.9297 104.823 18.9375 104.817 20.2676V20.8916C104.817 22.1982 105.057 23.2119 105.537 23.9326C106.018 24.6533 106.709 25.0137 107.612 25.0137C108.496 25.0137 109.176 24.668 109.651 23.9766C110.125 23.2793 110.366 22.2656 110.371 20.9355V20.3115Z" fill="#60347B"/>
<path d="M122.184 24.3633H117.561L116.682 27H113.878L118.642 14.2031H121.085L125.875 27H123.072L122.184 24.3633ZM118.273 22.2275H121.472L119.864 17.4375L118.273 22.2275ZM133.706 23.6426C133.706 23.1445 133.531 22.7637 133.179 22.5C132.827 22.2305 132.195 21.9492 131.281 21.6562C130.367 21.3574 129.643 21.0645 129.11 20.7773C127.657 19.9922 126.93 18.9346 126.93 17.6045C126.93 16.9131 127.123 16.2979 127.51 15.7588C127.903 15.2139 128.462 14.7891 129.189 14.4844C129.921 14.1797 130.742 14.0273 131.65 14.0273C132.564 14.0273 133.378 14.1943 134.093 14.5283C134.808 14.8564 135.362 15.3223 135.754 15.9258C136.153 16.5293 136.352 17.2148 136.352 17.9824H133.715C133.715 17.3965 133.531 16.9424 133.161 16.6201C132.792 16.292 132.274 16.1279 131.606 16.1279C130.961 16.1279 130.46 16.2656 130.103 16.541C129.745 16.8105 129.567 17.168 129.567 17.6133C129.567 18.0293 129.775 18.3779 130.191 18.6592C130.613 18.9404 131.231 19.2041 132.045 19.4502C133.545 19.9014 134.638 20.4609 135.324 21.1289C136.009 21.7969 136.352 22.6289 136.352 23.625C136.352 24.7324 135.933 25.6025 135.095 26.2354C134.257 26.8623 133.129 27.1758 131.711 27.1758C130.727 27.1758 129.83 26.9971 129.022 26.6396C128.213 26.2764 127.595 25.7812 127.167 25.1543C126.745 24.5273 126.535 23.8008 126.535 22.9746H129.18C129.18 24.3867 130.024 25.0928 131.711 25.0928C132.338 25.0928 132.827 24.9668 133.179 24.7148C133.531 24.457 133.706 24.0996 133.706 23.6426ZM144.781 23.6426C144.781 23.1445 144.605 22.7637 144.253 22.5C143.902 22.2305 143.269 21.9492 142.355 21.6562C141.441 21.3574 140.717 21.0645 140.184 20.7773C138.731 19.9922 138.004 18.9346 138.004 17.6045C138.004 16.9131 138.198 16.2979 138.584 15.7588C138.977 15.2139 139.536 14.7891 140.263 14.4844C140.995 14.1797 141.816 14.0273 142.724 14.0273C143.638 14.0273 144.452 14.1943 145.167 14.5283C145.882 14.8564 146.436 15.3223 146.828 15.9258C147.227 16.5293 147.426 17.2148 147.426 17.9824H144.789C144.789 17.3965 144.605 16.9424 144.236 16.6201C143.867 16.292 143.348 16.1279 142.68 16.1279C142.035 16.1279 141.535 16.2656 141.177 16.541C140.82 16.8105 140.641 17.168 140.641 17.6133C140.641 18.0293 140.849 18.3779 141.265 18.6592C141.687 18.9404 142.305 19.2041 143.119 19.4502C144.619 19.9014 145.712 20.4609 146.398 21.1289C147.083 21.7969 147.426 22.6289 147.426 23.625C147.426 24.7324 147.007 25.6025 146.169 26.2354C145.331 26.8623 144.203 27.1758 142.785 27.1758C141.801 27.1758 140.905 26.9971 140.096 26.6396C139.287 26.2764 138.669 25.7812 138.242 25.1543C137.82 24.5273 137.609 23.8008 137.609 22.9746H140.254C140.254 24.3867 141.098 25.0928 142.785 25.0928C143.412 25.0928 143.902 24.9668 144.253 24.7148C144.605 24.457 144.781 24.0996 144.781 23.6426ZM152.023 27H149.386V14.2031H152.023V27ZM157.92 14.2031L161.207 23.4844L164.477 14.2031H167.94V27H165.294V23.502L165.558 17.4639L162.104 27H160.293L156.848 17.4727L157.112 23.502V27H154.475V14.2031H157.92ZM173.046 27H170.41V14.2031H173.046V27ZM178.135 24.8818H183.734V27H175.498V14.2031H178.135V24.8818ZM192.655 24.3633H188.032L187.153 27H184.349L189.113 14.2031H191.556L196.346 27H193.542L192.655 24.3633ZM188.743 22.2275H191.943L190.334 17.4375L188.743 22.2275ZM206.119 16.3389H202.2V27H199.563V16.3389H195.696V14.2031H206.119V16.3389ZM210.435 27H207.798V14.2031H210.435V27ZM223.399 20.8916C223.399 22.1514 223.176 23.2559 222.731 24.2051C222.285 25.1543 221.647 25.8867 220.815 26.4023C219.989 26.918 219.039 27.1758 217.967 27.1758C216.907 27.1758 215.96 26.9209 215.128 26.4111C214.296 25.9014 213.652 25.1748 213.195 24.2314C212.738 23.2822 212.506 22.1924 212.5 20.9619V20.3291C212.5 19.0693 212.726 17.9619 213.177 17.0068C213.634 16.0459 214.276 15.3105 215.102 14.8008C215.934 14.2852 216.883 14.0273 217.95 14.0273C219.016 14.0273 219.962 14.2852 220.788 14.8008C221.62 15.3105 222.262 16.0459 222.713 17.0068C223.17 17.9619 223.399 19.0664 223.399 20.3203V20.8916ZM220.727 20.3115C220.727 18.9697 220.487 17.9502 220.006 17.2529C219.526 16.5557 218.84 16.207 217.95 16.207C217.065 16.207 216.382 16.5527 215.902 17.2441C215.421 17.9297 215.178 18.9375 215.172 20.2676V20.8916C215.172 22.1982 215.412 23.2119 215.893 23.9326C216.373 24.6533 217.065 25.0137 217.967 25.0137C218.852 25.0137 219.532 24.668 220.006 23.9766C220.481 23.2793 220.721 22.2656 220.727 20.9355V20.3115ZM235.721 27H233.084L227.952 18.5801V27H225.315V14.2031H227.952L233.093 22.6406V14.2031H235.721V27ZM244.66 23.6426C244.66 23.1445 244.484 22.7637 244.132 22.5C243.781 22.2305 243.148 21.9492 242.234 21.6562C241.32 21.3574 240.596 21.0645 240.063 20.7773C238.61 19.9922 237.883 18.9346 237.883 17.6045C237.883 16.9131 238.077 16.2979 238.463 15.7588C238.856 15.2139 239.415 14.7891 240.142 14.4844C240.874 14.1797 241.695 14.0273 242.603 14.0273C243.517 14.0273 244.331 14.1943 245.046 14.5283C245.761 14.8564 246.315 15.3223 246.707 15.9258C247.106 16.5293 247.305 17.2148 247.305 17.9824H244.668C244.668 17.3965 244.484 16.9424 244.115 16.6201C243.745 16.292 243.227 16.1279 242.559 16.1279C241.914 16.1279 241.413 16.2656 241.056 16.541C240.699 16.8105 240.52 17.168 240.52 17.6133C240.52 18.0293 240.728 18.3779 241.144 18.6592C241.566 18.9404 242.184 19.2041 242.998 19.4502C244.498 19.9014 245.591 20.4609 246.277 21.1289C246.962 21.7969 247.305 22.6289 247.305 23.625C247.305 24.7324 246.886 25.6025 246.048 26.2354C245.21 26.8623 244.082 27.1758 242.664 27.1758C241.68 27.1758 240.784 26.9971 239.975 26.6396C239.166 26.2764 238.548 25.7812 238.12 25.1543C237.699 24.5273 237.488 23.8008 237.488 22.9746H240.133C240.133 24.3867 240.977 25.0928 242.664 25.0928C243.291 25.0928 243.781 24.9668 244.132 24.7148C244.484 24.457 244.66 24.0996 244.66 23.6426Z" fill="#BB10D7"/>
<g clip-path="url(#clip0)">
<path d="M29.4566 15.4964C29.6359 14.988 29.7289 14.4497 29.7289 13.9067C29.7289 11.5145 27.9388 9.50883 25.6282 9.17625C25.1779 7.87476 23.9343 6.95578 22.5121 6.95578C21.5059 6.95578 20.6035 7.4093 19.9987 8.12258C19.3939 7.4093 18.4915 6.95578 17.4852 6.95578C16.0642 6.95578 14.8214 7.87476 14.3714 9.17625C12.0595 9.50859 10.2685 11.5143 10.2685 13.9067C10.2685 14.4497 10.3616 14.9883 10.5409 15.4967C8.96487 16.4301 7.98315 18.1219 7.98315 19.9989C7.98315 21.876 8.96495 23.5678 10.541 24.5012C10.3616 25.0101 10.2685 25.5493 10.2685 26.0934C10.2685 28.4858 12.0594 30.4915 14.3714 30.8238C14.8214 32.1253 16.0642 33.0443 17.4852 33.0443C18.4914 33.0443 19.3939 32.5908 19.9987 31.8775C20.6035 32.5908 21.5059 33.0443 22.5121 33.0443C23.9343 33.0443 25.1779 32.1253 25.6282 30.8238C27.9388 30.4913 29.7289 28.4856 29.7289 26.0934C29.7289 25.5495 29.6358 25.0103 29.4565 24.5015C31.0325 23.5687 32.0142 21.8768 32.0142 19.9989C32.0142 18.121 31.0326 16.4292 29.4566 15.4964V15.4964ZM28.1455 23.4104C27.9366 23.4941 27.7739 23.6639 27.6992 23.8762C27.6245 24.0886 27.6449 24.3228 27.7554 24.519C28.0243 24.9964 28.1664 25.5409 28.1664 26.0933C28.1664 27.8435 26.743 29.2862 24.9933 29.3093C24.6063 29.3144 24.2814 29.6021 24.2294 29.9856C24.1139 30.8385 23.3757 31.4816 22.5123 31.4816C21.5571 31.4816 20.7801 30.7046 20.7801 29.7494V21.1637C20.7801 20.7323 20.4303 20.3825 19.9989 20.3825C19.5674 20.3825 19.2176 20.7323 19.2176 21.1637V29.7495C19.2176 30.7047 18.4405 31.4817 17.4853 31.4817C16.6232 31.4817 15.8859 30.8386 15.7704 29.9857C15.7185 29.6022 15.3935 29.3145 15.0065 29.3094C13.2556 29.2863 11.8311 27.8436 11.8311 26.0934C11.8311 25.5409 11.9732 24.9965 12.2421 24.5191C12.3526 24.323 12.3731 24.0888 12.2985 23.8765C12.2238 23.6642 12.0612 23.4944 11.8525 23.4106C10.4512 22.8483 9.54581 21.5091 9.54581 19.9989C9.54581 18.4956 10.4432 17.1621 11.8336 16.5952C12.2001 16.4717 12.586 16.4087 12.981 16.4087C13.8661 16.4087 14.7162 16.7329 15.3746 17.3216C15.5237 17.4549 15.7097 17.5205 15.8951 17.5205C16.1098 17.5205 16.3235 17.4325 16.4778 17.2599C16.7653 16.9383 16.7377 16.4444 16.416 16.1568C15.4707 15.3117 14.2508 14.8463 12.981 14.8463C12.6499 14.8463 12.3228 14.8783 12.0024 14.9398C11.89 14.6087 11.8312 14.2595 11.8312 13.9069C11.8312 12.1566 13.2557 10.7139 15.0066 10.6909C15.3936 10.6858 15.7185 10.398 15.7705 10.0145C15.886 9.16164 16.6232 8.51851 17.4854 8.51851C18.4406 8.51851 19.2177 9.29555 19.2177 10.2508V14.1484C19.2177 14.5798 19.5675 14.9296 19.9989 14.9296C20.4304 14.9296 20.7802 14.5798 20.7802 14.1484V10.2508C20.7802 9.29555 21.5572 8.51851 22.5124 8.51851C23.3759 8.51851 24.1141 9.16164 24.2295 10.0145C24.2814 10.398 24.6064 10.6858 24.9934 10.6909C26.7431 10.7139 28.1665 12.1566 28.1665 13.9069C28.1665 14.2594 28.1077 14.6087 27.9953 14.9398C27.6749 14.8784 27.3478 14.8463 27.0167 14.8463C25.7496 14.8463 24.5299 15.3115 23.5824 16.1561C23.2603 16.4432 23.2321 16.937 23.5191 17.2591C23.6735 17.4323 23.8875 17.5205 24.1025 17.5205C24.2875 17.5205 24.4732 17.4552 24.6221 17.3225C25.283 16.7334 26.1334 16.4089 27.0166 16.4089C27.4117 16.4089 27.7975 16.4719 28.164 16.5955C29.5544 17.1614 30.4517 18.4949 30.4517 19.9991C30.4518 21.5098 29.5465 22.8489 28.1455 23.4104V23.4104Z" fill="#60347B"/>
<path d="M13.7362 20.0705C13.3086 20.0136 12.9154 20.3131 12.8579 20.7408C12.8004 21.1684 13.1005 21.5616 13.5282 21.6191C15.0591 21.8248 16.1373 23.2378 15.9317 24.769C15.8743 25.1967 16.1744 25.5899 16.602 25.6473C16.6373 25.652 16.6723 25.6543 16.707 25.6543C17.0922 25.6543 17.4276 25.3694 17.4803 24.977C17.8006 22.592 16.121 20.3909 13.7362 20.0705Z" fill="#60347B"/>
<path d="M26.2614 20.0705C23.8779 20.3911 22.1993 22.5921 22.5197 24.977C22.5724 25.3694 22.9077 25.6544 23.2929 25.6544C23.3276 25.6544 23.3627 25.6521 23.3979 25.6473C23.8256 25.5899 24.1257 25.1966 24.0683 24.7691C23.8626 23.2379 24.9399 21.8248 26.4697 21.6191C26.8973 21.5616 27.1973 21.1683 27.1398 20.7407C27.0823 20.3131 26.6888 20.0127 26.2614 20.0705V20.0705Z" fill="#60347B"/>
<path d="M37.7018 15.5791H36.7316C36.3349 14.0751 35.739 12.6384 34.9541 11.2941L35.64 10.6069C36.0736 10.1749 36.3127 9.59875 36.3134 8.98453C36.3139 8.3693 36.0752 7.79141 35.6411 7.35727L32.6404 4.35664C32.2079 3.92422 31.6311 3.68602 31.0161 3.68602C30.4011 3.68602 29.8243 3.92422 29.3918 4.35664L28.7048 5.04359C27.3559 4.25734 25.9188 3.6618 24.4185 3.26773V2.29602C24.4186 1.03 23.3887 0 22.1226 0H17.8773C16.6101 0 15.5791 1.03 15.5791 2.29602V3.26789C14.0796 3.66227 12.643 4.25773 11.2945 5.04391L10.6059 4.35664C9.71188 3.46266 8.25508 3.46234 7.35727 4.35664L4.35562 7.35844C3.46227 8.25523 3.46273 9.71203 4.35664 10.6059L5.04539 11.2947C4.25844 12.6421 3.66242 14.0786 3.26781 15.5791H2.29594C1.03 15.5791 0 16.6101 0 17.8773V22.1227C0 23.3887 1.03 24.4187 2.29602 24.4187H3.26773C3.66219 25.92 4.25813 27.357 5.04516 28.7048L4.35664 29.3919C3.92422 29.8243 3.68609 30.4012 3.68609 31.0162C3.68609 31.6312 3.92422 32.208 4.35672 32.6405L7.35734 35.6411C7.79148 36.0752 8.37187 36.313 8.98461 36.3133C9.59875 36.3127 10.1749 36.0737 10.6053 35.6416L11.2939 34.9543C12.6359 35.7385 14.0727 36.3344 15.5791 36.7315V37.7017C15.5791 38.969 16.6101 39.9999 17.8773 39.9999H22.1226C23.3886 39.9999 24.4186 38.969 24.4186 37.7017V36.7316C25.9236 36.3352 27.3608 35.7393 28.7053 34.9544L29.3909 35.6399C29.8234 36.0741 30.4006 36.3132 31.0162 36.3132C31.6316 36.3132 32.2089 36.0741 32.6404 35.641L35.6401 32.6413C36.0743 32.2088 36.3134 31.6316 36.3134 31.016C36.3134 30.4005 36.0743 29.8232 35.6412 29.3917L34.9542 28.7048C35.74 27.3568 36.3359 25.9198 36.7318 24.4185H37.7019C38.9691 24.4185 40.0001 23.3885 40.0001 22.1225V17.8772C40 16.6101 38.9691 15.5791 37.7018 15.5791V15.5791ZM38.4375 22.1227C38.4375 22.5271 38.1074 22.8562 37.7018 22.8562H36.1184C35.753 22.8562 35.4365 23.1094 35.3562 23.4659C34.9621 25.2166 34.2729 26.879 33.3077 28.4065C33.1125 28.7152 33.1574 29.118 33.4156 29.3762L34.5372 30.4977C34.6749 30.635 34.7508 30.8191 34.7508 31.0162C34.7508 31.2133 34.6749 31.3973 34.5362 31.5355L31.5345 34.5373C31.3973 34.675 31.2131 34.7508 31.0161 34.7508C30.8191 34.7508 30.6349 34.6749 30.4967 34.5362L29.3762 33.4156C29.1177 33.1571 28.7145 33.1124 28.4058 33.308C26.8841 34.2717 25.2221 34.9608 23.4658 35.3562C23.1093 35.4364 22.8561 35.753 22.8561 36.1184V37.7018C22.8561 38.1074 22.527 38.4375 22.1226 38.4375H17.8773C17.4717 38.4375 17.1416 38.1074 17.1416 37.7018V36.1184C17.1416 35.753 16.8885 35.4365 16.5322 35.3562C14.7735 34.9598 13.1123 34.2708 11.5946 33.3083C11.4659 33.2266 11.3208 33.1868 11.1765 33.1868C10.9749 33.1868 10.7751 33.2646 10.6244 33.4151L9.5 34.5373C9.36297 34.6748 9.17938 34.7506 8.9832 34.7508C8.98297 34.7508 8.98273 34.7508 8.9825 34.7508C8.78547 34.7508 8.6007 34.6746 8.46227 34.5362L5.46164 31.5355C5.18008 31.254 5.18008 30.7783 5.46109 30.4973L6.58383 29.3767C6.84273 29.1183 6.88773 28.7148 6.69195 28.4058C5.725 26.8788 5.03602 25.2171 4.64398 23.4666C4.56406 23.1098 4.24727 22.8561 3.88164 22.8561H2.29602C1.89156 22.8561 1.5625 22.527 1.5625 22.1226V17.8773C1.5625 17.4716 1.89156 17.1416 2.29602 17.1416H3.88156C4.24719 17.1416 4.56391 16.888 4.64391 16.5312C5.03617 14.7817 5.72516 13.1207 6.69187 11.5941C6.88742 11.2853 6.84273 10.8822 6.5843 10.6237L5.46156 9.50094C5.1757 9.21508 5.17617 8.74859 5.46156 8.46211L8.46125 5.46242C8.74883 5.17617 9.21531 5.17555 9.50164 5.46195L10.6244 6.5825C10.8827 6.84031 11.2851 6.88508 11.5936 6.69C13.1221 5.72414 14.7834 5.0357 16.5314 4.64383C16.8882 4.56391 17.1418 4.24711 17.1418 3.88148V2.29602C17.1418 1.89156 17.4719 1.5625 17.8775 1.5625H22.1227C22.5272 1.5625 22.8562 1.89156 22.8562 2.29602V3.88164C22.8562 4.24734 23.1099 4.56406 23.4668 4.64406C25.2158 5.0357 26.8778 5.72406 28.4066 6.69016C28.7153 6.88523 29.1181 6.84039 29.3763 6.58211L30.4969 5.46156C30.7784 5.18 31.2541 5.18 31.5357 5.46156L34.5364 8.46219C34.675 8.6007 34.7512 8.78578 34.751 8.98313C34.7509 9.17938 34.675 9.36289 34.5359 9.50156L33.4153 10.6243C33.1573 10.8829 33.1128 11.2856 33.3083 11.5941C34.2718 13.1157 34.9609 14.777 35.3565 16.5322C35.4368 16.8885 35.7534 17.1416 36.1186 17.1416H37.702C38.1076 17.1416 38.4377 17.4717 38.4377 17.8773V22.1227H38.4375Z" fill="#60347B"/>
<path d="M19.9988 16.8747C19.5673 16.8747 19.2175 17.2245 19.2175 17.6559V17.6604C19.2175 18.0918 19.5673 18.4395 19.9988 18.4395C20.4303 18.4395 20.78 18.0874 20.78 17.656C20.78 17.2246 20.4303 16.8747 19.9988 16.8747Z" fill="#60347B"/>
</g>
<defs>
<clipPath id="clip0">
<rect width="40" height="40" fill="white"/>
</clipPath>
</defs>
</svg>
